<?xml version="1.0" encoding="UTF-8" standalone="no"?>
<!DOCTYPE svg PUBLIC "-//W3C//DTD SVG 1.1//EN"
 "http://www.w3.org/Graphics/SVG/1.1/DTD/svg11.dtd">
<!-- Generated by graphviz version 2.26.3 (20100126.1600)
 -->
<!-- Title: controllers_diagram Pages: 1 -->
<svg width="848pt" height="642pt"
 viewBox="0.00 0.00 848.00 642.00" xmlns="http://www.w3.org/2000/svg" xmlns:xlink="http://www.w3.org/1999/xlink">
<g id="graph1" class="graph" transform="scale(1 1) rotate(0) translate(4 638)">
<title>controllers_diagram</title>
<polygon fill="white" stroke="white" points="-4,5 -4,-638 845,-638 845,5 -4,5"/>
<!-- _diagram_info -->
<g id="node1" class="node"><title>_diagram_info</title>
<text text-anchor="start" x="597" y="-617.3" font-family="Times Roman,serif" font-size="13.00">Controllers diagram</text>
<text text-anchor="start" x="597" y="-600.3" font-family="Times Roman,serif" font-size="13.00">Date: Oct 17 2013 &#45; 23:01</text>
<text text-anchor="start" x="597" y="-583.3" font-family="Times Roman,serif" font-size="13.00">Migration version: 20131018004603</text>
<text text-anchor="start" x="597" y="-566.3" font-family="Times Roman,serif" font-size="13.00">Generated by RailRoady 1.1.1</text>
<text text-anchor="start" x="597" y="-549.3" font-family="Times Roman,serif" font-size="13.00">http://railroady.prestonlee.com</text>
</g>
<!-- ApplicationController -->
<g id="node2" class="node"><title>ApplicationController</title>
<polyline fill="none" stroke="black" points="43.5139,-199.225 180.514,-199.225 "/>
<path fill="none" stroke="black" d="M180.514,-199.225C186.514,-199.225 192.514,-205.225 192.514,-211.225"/>
<polyline fill="none" stroke="black" points="192.514,-211.225 192.514,-287.225 "/>
<path fill="none" stroke="black" d="M192.514,-287.225C192.514,-293.225 186.514,-299.225 180.514,-299.225"/>
<polyline fill="none" stroke="black" points="180.514,-299.225 43.5139,-299.225 "/>
<path fill="none" stroke="black" d="M43.5139,-299.225C37.5139,-299.225 31.5139,-293.225 31.5139,-287.225"/>
<polyline fill="none" stroke="black" points="31.5139,-287.225 31.5139,-211.225 "/>
<path fill="none" stroke="black" d="M31.5139,-211.225C31.5139,-205.225 37.5139,-199.225 43.5139,-199.225"/>
<text text-anchor="middle" x="112.014" y="-282.625" font-family="Times Roman,serif" font-size="14.00">ApplicationController</text>
<polyline fill="none" stroke="black" points="31.5139,-273.225 192.514,-273.225 "/>
<polyline fill="none" stroke="black" points="31.5139,-249.225 192.514,-249.225 "/>
<polyline fill="none" stroke="black" points="31.5139,-225.225 192.514,-225.225 "/>
<text text-anchor="start" x="39.5139" y="-208.625" font-family="Times Roman,serif" font-size="14.00">_layout</text>
</g>
<!-- Api::V1::ApplicationController -->
<g id="node6" class="node"><title>Api::V1::ApplicationController</title>
<polyline fill="none" stroke="black" points="254.882,-171.571 449.882,-171.571 "/>
<path fill="none" stroke="black" d="M449.882,-171.571C455.882,-171.571 461.882,-177.571 461.882,-183.571"/>
<polyline fill="none" stroke="black" points="461.882,-183.571 461.882,-315.571 "/>
<path fill="none" stroke="black" d="M461.882,-315.571C461.882,-321.571 455.882,-327.571 449.882,-327.571"/>
<polyline fill="none" stroke="black" points="449.882,-327.571 254.882,-327.571 "/>
<path fill="none" stroke="black" d="M254.882,-327.571C248.882,-327.571 242.882,-321.571 242.882,-315.571"/>
<polyline fill="none" stroke="black" points="242.882,-315.571 242.882,-183.571 "/>
<path fill="none" stroke="black" d="M242.882,-183.571C242.882,-177.571 248.882,-171.571 254.882,-171.571"/>
<text text-anchor="middle" x="352.382" y="-310.971" font-family="Times Roman,serif" font-size="14.00">Api::V1::ApplicationController</text>
<polyline fill="none" stroke="black" points="242.882,-301.571 461.882,-301.571 "/>
<text text-anchor="start" x="250.882" y="-284.971" font-family="Times Roman,serif" font-size="14.00">ping</text>
<polyline fill="none" stroke="black" points="242.882,-275.571 461.882,-275.571 "/>
<polyline fill="none" stroke="black" points="242.882,-251.571 461.882,-251.571 "/>
<text text-anchor="start" x="250.882" y="-234.971" font-family="Times Roman,serif" font-size="14.00">_layout</text>
<text text-anchor="start" x="250.882" y="-216.971" font-family="Times Roman,serif" font-size="14.00">record_not_found</text>
<text text-anchor="start" x="250.882" y="-198.971" font-family="Times Roman,serif" font-size="14.00">set_csrf_cookie_for_ng</text>
<text text-anchor="start" x="250.882" y="-180.971" font-family="Times Roman,serif" font-size="14.00">verified_request?</text>
</g>
<!-- ApplicationController&#45;&gt;Api::V1::ApplicationController -->
<g id="edge8" class="edge"><title>ApplicationController&#45;&gt;Api::V1::ApplicationController</title>
<path fill="none" stroke="black" d="M192.722,-249.341C208.815,-249.364 225.971,-249.389 242.845,-249.413"/>
</g>
<!-- Api::V1::SessionsController -->
<g id="node3" class="node"><title>Api::V1::SessionsController</title>
<polyline fill="none" stroke="black" points="470.743,-346.099 648.743,-346.099 "/>
<path fill="none" stroke="black" d="M648.743,-346.099C654.743,-346.099 660.743,-352.099 660.743,-358.099"/>
<polyline fill="none" stroke="black" points="660.743,-358.099 660.743,-434.099 "/>
<path fill="none" stroke="black" d="M660.743,-434.099C660.743,-440.099 654.743,-446.099 648.743,-446.099"/>
<polyline fill="none" stroke="black" points="648.743,-446.099 470.743,-446.099 "/>
<path fill="none" stroke="black" d="M470.743,-446.099C464.743,-446.099 458.743,-440.099 458.743,-434.099"/>
<polyline fill="none" stroke="black" points="458.743,-434.099 458.743,-358.099 "/>
<path fill="none" stroke="black" d="M458.743,-358.099C458.743,-352.099 464.743,-346.099 470.743,-346.099"/>
<text text-anchor="middle" x="559.743" y="-429.499" font-family="Times Roman,serif" font-size="14.00">Api::V1::SessionsController</text>
<polyline fill="none" stroke="black" points="458.743,-420.099 660.743,-420.099 "/>
<polyline fill="none" stroke="black" points="458.743,-396.099 660.743,-396.099 "/>
<polyline fill="none" stroke="black" points="458.743,-372.099 660.743,-372.099 "/>
<text text-anchor="start" x="466.743" y="-355.499" font-family="Times Roman,serif" font-size="14.00">_layout</text>
</g>
<!-- Api::V1::TopicsController -->
<g id="node4" class="node"><title>Api::V1::TopicsController</title>
<polyline fill="none" stroke="black" points="258.15,-1.5 418.15,-1.5 "/>
<path fill="none" stroke="black" d="M418.15,-1.5C424.15,-1.5 430.15,-7.5 430.15,-13.5"/>
<polyline fill="none" stroke="black" points="430.15,-13.5 430.15,-89.5 "/>
<path fill="none" stroke="black" d="M430.15,-89.5C430.15,-95.5 424.15,-101.5 418.15,-101.5"/>
<polyline fill="none" stroke="black" points="418.15,-101.5 258.15,-101.5 "/>
<path fill="none" stroke="black" d="M258.15,-101.5C252.15,-101.5 246.15,-95.5 246.15,-89.5"/>
<polyline fill="none" stroke="black" points="246.15,-89.5 246.15,-13.5 "/>
<path fill="none" stroke="black" d="M246.15,-13.5C246.15,-7.5 252.15,-1.5 258.15,-1.5"/>
<text text-anchor="middle" x="338.15" y="-84.9" font-family="Times Roman,serif" font-size="14.00">Api::V1::TopicsController</text>
<polyline fill="none" stroke="black" points="246.15,-75.5 430.15,-75.5 "/>
<polyline fill="none" stroke="black" points="246.15,-51.5 430.15,-51.5 "/>
<polyline fill="none" stroke="black" points="246.15,-27.5 430.15,-27.5 "/>
<text text-anchor="start" x="254.15" y="-10.9" font-family="Times Roman,serif" font-size="14.00">_layout</text>
</g>
<!-- Api::V1::PostsController -->
<g id="node5" class="node"><title>Api::V1::PostsController</title>
<polyline fill="none" stroke="black" points="264.361,-397.304 420.361,-397.304 "/>
<path fill="none" stroke="black" d="M420.361,-397.304C426.361,-397.304 432.361,-403.304 432.361,-409.304"/>
<polyline fill="none" stroke="black" points="432.361,-409.304 432.361,-485.304 "/>
<path fill="none" stroke="black" d="M432.361,-485.304C432.361,-491.304 426.361,-497.304 420.361,-497.304"/>
<polyline fill="none" stroke="black" points="420.361,-497.304 264.361,-497.304 "/>
<path fill="none" stroke="black" d="M264.361,-497.304C258.361,-497.304 252.361,-491.304 252.361,-485.304"/>
<polyline fill="none" stroke="black" points="252.361,-485.304 252.361,-409.304 "/>
<path fill="none" stroke="black" d="M252.361,-409.304C252.361,-403.304 258.361,-397.304 264.361,-397.304"/>
<text text-anchor="middle" x="342.361" y="-480.704" font-family="Times Roman,serif" font-size="14.00">Api::V1::PostsController</text>
<polyline fill="none" stroke="black" points="252.361,-471.304 432.361,-471.304 "/>
<polyline fill="none" stroke="black" points="252.361,-447.304 432.361,-447.304 "/>
<polyline fill="none" stroke="black" points="252.361,-423.304 432.361,-423.304 "/>
<text text-anchor="start" x="260.361" y="-406.704" font-family="Times Roman,serif" font-size="14.00">_layout</text>
</g>
<!-- Api::V1::ApplicationController&#45;&gt;Api::V1::SessionsController -->
<g id="edge2" class="edge"><title>Api::V1::ApplicationController&#45;&gt;Api::V1::SessionsController</title>
<path fill="none" stroke="black" d="M462.134,-327.125C471.169,-333.509 480.142,-339.85 488.778,-345.952"/>
</g>
<!-- Api::V1::ApplicationController&#45;&gt;Api::V1::TopicsController -->
<g id="edge4" class="edge"><title>Api::V1::ApplicationController&#45;&gt;Api::V1::TopicsController</title>
<path fill="none" stroke="black" d="M346.757,-171.288C345.071,-147.823 343.268,-122.731 341.75,-101.606"/>
</g>
<!-- Api::V1::ApplicationController&#45;&gt;Api::V1::PostsController -->
<g id="edge6" class="edge"><title>Api::V1::ApplicationController&#45;&gt;Api::V1::PostsController</title>
<path fill="none" stroke="black" d="M348.421,-327.72C347.234,-351.145 345.965,-376.195 344.896,-397.284"/>
</g>
<!-- Api::V1::CommentsController -->
<g id="node7" class="node"><title>Api::V1::CommentsController</title>
<polyline fill="none" stroke="black" points="13,-345.668 206,-345.668 "/>
<path fill="none" stroke="black" d="M206,-345.668C212,-345.668 218,-351.668 218,-357.668"/>
<polyline fill="none" stroke="black" points="218,-357.668 218,-525.668 "/>
<path fill="none" stroke="black" d="M218,-525.668C218,-531.668 212,-537.668 206,-537.668"/>
<polyline fill="none" stroke="black" points="206,-537.668 13,-537.668 "/>
<path fill="none" stroke="black" d="M13,-537.668C7,-537.668 1,-531.668 1,-525.668"/>
<polyline fill="none" stroke="black" points="1,-525.668 1,-357.668 "/>
<path fill="none" stroke="black" d="M1,-357.668C1,-351.668 7,-345.668 13,-345.668"/>
<text text-anchor="middle" x="109.5" y="-521.068" font-family="Times Roman,serif" font-size="14.00">Api::V1::CommentsController</text>
<polyline fill="none" stroke="black" points="1,-511.668 218,-511.668 "/>
<text text-anchor="start" x="9" y="-495.068" font-family="Times Roman,serif" font-size="14.00">create</text>
<text text-anchor="start" x="9" y="-477.068" font-family="Times Roman,serif" font-size="14.00">destroy</text>
<text text-anchor="start" x="9" y="-459.068" font-family="Times Roman,serif" font-size="14.00">index</text>
<text text-anchor="start" x="9" y="-441.068" font-family="Times Roman,serif" font-size="14.00">show</text>
<text text-anchor="start" x="9" y="-423.068" font-family="Times Roman,serif" font-size="14.00">update</text>
<polyline fill="none" stroke="black" points="1,-413.668 218,-413.668 "/>
<polyline fill="none" stroke="black" points="1,-389.668 218,-389.668 "/>
<text text-anchor="start" x="9" y="-373.068" font-family="Times Roman,serif" font-size="14.00">_layout</text>
<text text-anchor="start" x="9" y="-355.068" font-family="Times Roman,serif" font-size="14.00">comment_params</text>
</g>
<!-- Api::V1::ApplicationController&#45;&gt;Api::V1::CommentsController -->
<g id="edge10" class="edge"><title>Api::V1::ApplicationController&#45;&gt;Api::V1::CommentsController</title>
<path fill="none" stroke="black" d="M253.592,-327.704C241.904,-336.949 229.925,-346.423 218.109,-355.768"/>
</g>
<!-- Api::V1::FeedsController -->
<g id="node8" class="node"><title>Api::V1::FeedsController</title>
<polyline fill="none" stroke="black" points="27.912,-6.33286 186.912,-6.33286 "/>
<path fill="none" stroke="black" d="M186.912,-6.33286C192.912,-6.33286 198.912,-12.3329 198.912,-18.3329"/>
<polyline fill="none" stroke="black" points="198.912,-18.3329 198.912,-94.3329 "/>
<path fill="none" stroke="black" d="M198.912,-94.3329C198.912,-100.333 192.912,-106.333 186.912,-106.333"/>
<polyline fill="none" stroke="black" points="186.912,-106.333 27.912,-106.333 "/>
<path fill="none" stroke="black" d="M27.912,-106.333C21.912,-106.333 15.912,-100.333 15.912,-94.3329"/>
<polyline fill="none" stroke="black" points="15.912,-94.3329 15.912,-18.3329 "/>
<path fill="none" stroke="black" d="M15.912,-18.3329C15.912,-12.3329 21.912,-6.33286 27.912,-6.33286"/>
<text text-anchor="middle" x="107.412" y="-89.7329" font-family="Times Roman,serif" font-size="14.00">Api::V1::FeedsController</text>
<polyline fill="none" stroke="black" points="15.912,-80.3329 198.912,-80.3329 "/>
<polyline fill="none" stroke="black" points="15.912,-56.3329 198.912,-56.3329 "/>
<polyline fill="none" stroke="black" points="15.912,-32.3329 198.912,-32.3329 "/>
<text text-anchor="start" x="23.912" y="-15.7329" font-family="Times Roman,serif" font-size="14.00">_layout</text>
</g>
<!-- Api::V1::ApplicationController&#45;&gt;Api::V1::FeedsController -->
<g id="edge12" class="edge"><title>Api::V1::ApplicationController&#45;&gt;Api::V1::FeedsController</title>
<path fill="none" stroke="black" d="M253.449,-171.531C225.696,-149.638 196.267,-126.424 171.154,-106.614"/>
</g>
<!-- Api::V1::UsersController -->
<g id="node9" class="node"><title>Api::V1::UsersController</title>
<polyline fill="none" stroke="black" points="479.12,-49.7616 637.12,-49.7616 "/>
<path fill="none" stroke="black" d="M637.12,-49.7616C643.12,-49.7616 649.12,-55.7616 649.12,-61.7616"/>
<polyline fill="none" stroke="black" points="649.12,-61.7616 649.12,-137.762 "/>
<path fill="none" stroke="black" d="M649.12,-137.762C649.12,-143.762 643.12,-149.762 637.12,-149.762"/>
<polyline fill="none" stroke="black" points="637.12,-149.762 479.12,-149.762 "/>
<path fill="none" stroke="black" d="M479.12,-149.762C473.12,-149.762 467.12,-143.762 467.12,-137.762"/>
<polyline fill="none" stroke="black" points="467.12,-137.762 467.12,-61.7616 "/>
<path fill="none" stroke="black" d="M467.12,-61.7616C467.12,-55.7616 473.12,-49.7616 479.12,-49.7616"/>
<text text-anchor="middle" x="558.12" y="-133.162" font-family="Times Roman,serif" font-size="14.00">Api::V1::UsersController</text>
<polyline fill="none" stroke="black" points="467.12,-123.762 649.12,-123.762 "/>
<polyline fill="none" stroke="black" points="467.12,-99.7616 649.12,-99.7616 "/>
<polyline fill="none" stroke="black" points="467.12,-75.7616 649.12,-75.7616 "/>
<text text-anchor="start" x="475.12" y="-59.1616" font-family="Times Roman,serif" font-size="14.00">_layout</text>
</g>
<!-- Api::V1::ApplicationController&#45;&gt;Api::V1::UsersController -->
<g id="edge14" class="edge"><title>Api::V1::ApplicationController&#45;&gt;Api::V1::UsersController</title>
<path fill="none" stroke="black" d="M459.77,-171.375C469.805,-164.068 479.783,-156.803 489.321,-149.858"/>
</g>
</g>
</svg>
