<?xml version="1.0" encoding="UTF-8" standalone="no"?>
<!DOCTYPE svg PUBLIC "-//W3C//DTD SVG 1.1//EN"
 "http://www.w3.org/Graphics/SVG/1.1/DTD/svg11.dtd">
<!-- Generated by graphviz version 2.26.3 (20100126.1600)
 -->
<!-- Title: controllers_diagram Pages: 1 -->
<svg width="1196pt" height="1111pt"
 viewBox="0.00 0.00 1196.00 1111.00" xmlns="http://www.w3.org/2000/svg" xmlns:xlink="http://www.w3.org/1999/xlink">
<g id="graph1" class="graph" transform="scale(1 1) rotate(0) translate(4 1107)">
<title>controllers_diagram</title>
<polygon fill="white" stroke="white" points="-4,5 -4,-1107 1193,-1107 1193,5 -4,5"/>
<!-- _diagram_info -->
<g id="node1" class="node"><title>_diagram_info</title>
<text text-anchor="start" x="945" y="-1086.3" font-family="Times Roman,serif" font-size="13.00">Controllers diagram</text>
<text text-anchor="start" x="945" y="-1069.3" font-family="Times Roman,serif" font-size="13.00">Date: Dec 04 2013 &#45; 19:42</text>
<text text-anchor="start" x="945" y="-1052.3" font-family="Times Roman,serif" font-size="13.00">Migration version: 20131117211413</text>
<text text-anchor="start" x="945" y="-1035.3" font-family="Times Roman,serif" font-size="13.00">Generated by RailRoady 1.1.1</text>
<text text-anchor="start" x="945" y="-1018.3" font-family="Times Roman,serif" font-size="13.00">http://railroady.prestonlee.com</text>
</g>
<!-- ApplicationController -->
<g id="node2" class="node"><title>ApplicationController</title>
<polyline fill="none" stroke="black" points="279.711,-278.751 416.711,-278.751 "/>
<path fill="none" stroke="black" d="M416.711,-278.751C422.711,-278.751 428.711,-284.751 428.711,-290.751"/>
<polyline fill="none" stroke="black" points="428.711,-290.751 428.711,-366.751 "/>
<path fill="none" stroke="black" d="M428.711,-366.751C428.711,-372.751 422.711,-378.751 416.711,-378.751"/>
<polyline fill="none" stroke="black" points="416.711,-378.751 279.711,-378.751 "/>
<path fill="none" stroke="black" d="M279.711,-378.751C273.711,-378.751 267.711,-372.751 267.711,-366.751"/>
<polyline fill="none" stroke="black" points="267.711,-366.751 267.711,-290.751 "/>
<path fill="none" stroke="black" d="M267.711,-290.751C267.711,-284.751 273.711,-278.751 279.711,-278.751"/>
<text text-anchor="middle" x="348.211" y="-362.151" font-family="Times Roman,serif" font-size="14.00">ApplicationController</text>
<polyline fill="none" stroke="black" points="267.711,-352.751 428.711,-352.751 "/>
<polyline fill="none" stroke="black" points="267.711,-328.751 428.711,-328.751 "/>
<polyline fill="none" stroke="black" points="267.711,-304.751 428.711,-304.751 "/>
<text text-anchor="start" x="275.711" y="-288.151" font-family="Times Roman,serif" font-size="14.00">_layout</text>
</g>
<!-- Api::V1::FollowshipsController -->
<g id="node9" class="node"><title>Api::V1::FollowshipsController</title>
<polyline fill="none" stroke="black" points="365.68,-14.6251 564.68,-14.6251 "/>
<path fill="none" stroke="black" d="M564.68,-14.6251C570.68,-14.6251 576.68,-20.6251 576.68,-26.6251"/>
<polyline fill="none" stroke="black" points="576.68,-26.6251 576.68,-122.625 "/>
<path fill="none" stroke="black" d="M576.68,-122.625C576.68,-128.625 570.68,-134.625 564.68,-134.625"/>
<polyline fill="none" stroke="black" points="564.68,-134.625 365.68,-134.625 "/>
<path fill="none" stroke="black" d="M365.68,-134.625C359.68,-134.625 353.68,-128.625 353.68,-122.625"/>
<polyline fill="none" stroke="black" points="353.68,-122.625 353.68,-26.6251 "/>
<path fill="none" stroke="black" d="M353.68,-26.6251C353.68,-20.6251 359.68,-14.6251 365.68,-14.6251"/>
<text text-anchor="middle" x="465.18" y="-118.025" font-family="Times Roman,serif" font-size="14.00">Api::V1::FollowshipsController</text>
<polyline fill="none" stroke="black" points="353.68,-108.625 576.68,-108.625 "/>
<text text-anchor="start" x="361.68" y="-92.0251" font-family="Times Roman,serif" font-size="14.00">create</text>
<text text-anchor="start" x="361.68" y="-74.0251" font-family="Times Roman,serif" font-size="14.00">destroy</text>
<polyline fill="none" stroke="black" points="353.68,-64.6251 576.68,-64.6251 "/>
<polyline fill="none" stroke="black" points="353.68,-40.6251 576.68,-40.6251 "/>
<text text-anchor="start" x="361.68" y="-24.0251" font-family="Times Roman,serif" font-size="14.00">_layout</text>
</g>
<!-- ApplicationController&#45;&gt;Api::V1::FollowshipsController -->
<g id="edge14" class="edge"><title>ApplicationController&#45;&gt;Api::V1::FollowshipsController</title>
<path fill="none" stroke="black" d="M371.32,-278.544C390.295,-237.319 417.228,-178.805 437.38,-135.023"/>
</g>
<!-- Api::V1::ApplicationController -->
<g id="node10" class="node"><title>Api::V1::ApplicationController</title>
<polyline fill="none" stroke="black" points="378.212,-474.825 574.212,-474.825 "/>
<path fill="none" stroke="black" d="M574.212,-474.825C580.212,-474.825 586.212,-480.825 586.212,-486.825"/>
<polyline fill="none" stroke="black" points="586.212,-486.825 586.212,-654.825 "/>
<path fill="none" stroke="black" d="M586.212,-654.825C586.212,-660.825 580.212,-666.825 574.212,-666.825"/>
<polyline fill="none" stroke="black" points="574.212,-666.825 378.212,-666.825 "/>
<path fill="none" stroke="black" d="M378.212,-666.825C372.212,-666.825 366.212,-660.825 366.212,-654.825"/>
<polyline fill="none" stroke="black" points="366.212,-654.825 366.212,-486.825 "/>
<path fill="none" stroke="black" d="M366.212,-486.825C366.212,-480.825 372.212,-474.825 378.212,-474.825"/>
<text text-anchor="middle" x="476.212" y="-650.225" font-family="Times Roman,serif" font-size="14.00">Api::V1::ApplicationController</text>
<polyline fill="none" stroke="black" points="366.212,-640.825 586.212,-640.825 "/>
<text text-anchor="start" x="374.212" y="-624.225" font-family="Times Roman,serif" font-size="14.00">ping</text>
<polyline fill="none" stroke="black" points="366.212,-614.825 586.212,-614.825 "/>
<polyline fill="none" stroke="black" points="366.212,-590.825 586.212,-590.825 "/>
<text text-anchor="start" x="374.212" y="-574.225" font-family="Times Roman,serif" font-size="14.00">_layout</text>
<text text-anchor="start" x="374.212" y="-556.225" font-family="Times Roman,serif" font-size="14.00">record_not_found</text>
<text text-anchor="start" x="374.212" y="-538.225" font-family="Times Roman,serif" font-size="14.00">render_not_authenticated</text>
<text text-anchor="start" x="374.212" y="-520.225" font-family="Times Roman,serif" font-size="14.00">server_error</text>
<text text-anchor="start" x="374.212" y="-502.225" font-family="Times Roman,serif" font-size="14.00">set_csrf_cookie_for_ng</text>
<text text-anchor="start" x="374.212" y="-484.225" font-family="Times Roman,serif" font-size="14.00">verified_request?</text>
</g>
<!-- ApplicationController&#45;&gt;Api::V1::ApplicationController -->
<g id="edge16" class="edge"><title>ApplicationController&#45;&gt;Api::V1::ApplicationController</title>
<path fill="none" stroke="black" d="M374.733,-378.909C389.378,-406.606 408.067,-441.949 425.404,-474.738"/>
</g>
<!-- Api::V1::ErrorsController -->
<g id="node3" class="node"><title>Api::V1::ErrorsController</title>
<polyline fill="none" stroke="black" points="696.474,-741.118 858.474,-741.118 "/>
<path fill="none" stroke="black" d="M858.474,-741.118C864.474,-741.118 870.474,-747.118 870.474,-753.118"/>
<polyline fill="none" stroke="black" points="870.474,-753.118 870.474,-849.118 "/>
<path fill="none" stroke="black" d="M870.474,-849.118C870.474,-855.118 864.474,-861.118 858.474,-861.118"/>
<polyline fill="none" stroke="black" points="858.474,-861.118 696.474,-861.118 "/>
<path fill="none" stroke="black" d="M696.474,-861.118C690.474,-861.118 684.474,-855.118 684.474,-849.118"/>
<polyline fill="none" stroke="black" points="684.474,-849.118 684.474,-753.118 "/>
<path fill="none" stroke="black" d="M684.474,-753.118C684.474,-747.118 690.474,-741.118 696.474,-741.118"/>
<text text-anchor="middle" x="777.474" y="-844.518" font-family="Times Roman,serif" font-size="14.00">Api::V1::ErrorsController</text>
<polyline fill="none" stroke="black" points="684.474,-835.118 870.474,-835.118 "/>
<text text-anchor="start" x="692.474" y="-818.518" font-family="Times Roman,serif" font-size="14.00">render_page_not_found</text>
<text text-anchor="start" x="692.474" y="-800.518" font-family="Times Roman,serif" font-size="14.00">routing_error</text>
<polyline fill="none" stroke="black" points="684.474,-791.118 870.474,-791.118 "/>
<polyline fill="none" stroke="black" points="684.474,-767.118 870.474,-767.118 "/>
<text text-anchor="start" x="692.474" y="-750.518" font-family="Times Roman,serif" font-size="14.00">_layout</text>
</g>
<!-- Api::V1::CategoriesController -->
<g id="node4" class="node"><title>Api::V1::CategoriesController</title>
<polyline fill="none" stroke="black" points="60.9109,-1.5 254.911,-1.5 "/>
<path fill="none" stroke="black" d="M254.911,-1.5C260.911,-1.5 266.911,-7.5 266.911,-13.5"/>
<polyline fill="none" stroke="black" points="266.911,-13.5 266.911,-145.5 "/>
<path fill="none" stroke="black" d="M266.911,-145.5C266.911,-151.5 260.911,-157.5 254.911,-157.5"/>
<polyline fill="none" stroke="black" points="254.911,-157.5 60.9109,-157.5 "/>
<path fill="none" stroke="black" d="M60.9109,-157.5C54.9109,-157.5 48.9109,-151.5 48.9109,-145.5"/>
<polyline fill="none" stroke="black" points="48.9109,-145.5 48.9109,-13.5 "/>
<path fill="none" stroke="black" d="M48.9109,-13.5C48.9109,-7.5 54.9109,-1.5 60.9109,-1.5"/>
<text text-anchor="middle" x="157.911" y="-140.9" font-family="Times Roman,serif" font-size="14.00">Api::V1::CategoriesController</text>
<polyline fill="none" stroke="black" points="48.9109,-131.5 266.911,-131.5 "/>
<text text-anchor="start" x="56.9109" y="-114.9" font-family="Times Roman,serif" font-size="14.00">all_posts</text>
<text text-anchor="start" x="56.9109" y="-96.9" font-family="Times Roman,serif" font-size="14.00">all_topics</text>
<text text-anchor="start" x="56.9109" y="-78.9" font-family="Times Roman,serif" font-size="14.00">create</text>
<text text-anchor="start" x="56.9109" y="-60.9" font-family="Times Roman,serif" font-size="14.00">destroy</text>
<polyline fill="none" stroke="black" points="48.9109,-51.5 266.911,-51.5 "/>
<polyline fill="none" stroke="black" points="48.9109,-27.5 266.911,-27.5 "/>
<text text-anchor="start" x="56.9109" y="-10.9" font-family="Times Roman,serif" font-size="14.00">_layout</text>
</g>
<!-- Api::V1::UserSessionsController -->
<g id="node5" class="node"><title>Api::V1::UserSessionsController</title>
<polyline fill="none" stroke="black" points="236.067,-751.754 446.067,-751.754 "/>
<path fill="none" stroke="black" d="M446.067,-751.754C452.067,-751.754 458.067,-757.754 458.067,-763.754"/>
<polyline fill="none" stroke="black" points="458.067,-763.754 458.067,-877.754 "/>
<path fill="none" stroke="black" d="M458.067,-877.754C458.067,-883.754 452.067,-889.754 446.067,-889.754"/>
<polyline fill="none" stroke="black" points="446.067,-889.754 236.067,-889.754 "/>
<path fill="none" stroke="black" d="M236.067,-889.754C230.067,-889.754 224.067,-883.754 224.067,-877.754"/>
<polyline fill="none" stroke="black" points="224.067,-877.754 224.067,-763.754 "/>
<path fill="none" stroke="black" d="M224.067,-763.754C224.067,-757.754 230.067,-751.754 236.067,-751.754"/>
<text text-anchor="middle" x="341.067" y="-873.154" font-family="Times Roman,serif" font-size="14.00">Api::V1::UserSessionsController</text>
<polyline fill="none" stroke="black" points="224.067,-863.754 458.067,-863.754 "/>
<text text-anchor="start" x="232.067" y="-847.154" font-family="Times Roman,serif" font-size="14.00">create</text>
<text text-anchor="start" x="232.067" y="-829.154" font-family="Times Roman,serif" font-size="14.00">destroy</text>
<text text-anchor="start" x="232.067" y="-811.154" font-family="Times Roman,serif" font-size="14.00">me</text>
<polyline fill="none" stroke="black" points="224.067,-801.754 458.067,-801.754 "/>
<polyline fill="none" stroke="black" points="224.067,-777.754 458.067,-777.754 "/>
<text text-anchor="start" x="232.067" y="-761.154" font-family="Times Roman,serif" font-size="14.00">_layout</text>
</g>
<!-- Api::V1::PostsController -->
<g id="node6" class="node"><title>Api::V1::PostsController</title>
<polyline fill="none" stroke="black" points="486.912,-721.447 642.912,-721.447 "/>
<path fill="none" stroke="black" d="M642.912,-721.447C648.912,-721.447 654.912,-727.447 654.912,-733.447"/>
<polyline fill="none" stroke="black" points="654.912,-733.447 654.912,-919.447 "/>
<path fill="none" stroke="black" d="M654.912,-919.447C654.912,-925.447 648.912,-931.447 642.912,-931.447"/>
<polyline fill="none" stroke="black" points="642.912,-931.447 486.912,-931.447 "/>
<path fill="none" stroke="black" d="M486.912,-931.447C480.912,-931.447 474.912,-925.447 474.912,-919.447"/>
<polyline fill="none" stroke="black" points="474.912,-919.447 474.912,-733.447 "/>
<path fill="none" stroke="black" d="M474.912,-733.447C474.912,-727.447 480.912,-721.447 486.912,-721.447"/>
<text text-anchor="middle" x="564.912" y="-914.847" font-family="Times Roman,serif" font-size="14.00">Api::V1::PostsController</text>
<polyline fill="none" stroke="black" points="474.912,-905.447 654.912,-905.447 "/>
<text text-anchor="start" x="482.912" y="-888.847" font-family="Times Roman,serif" font-size="14.00">all_favorers</text>
<text text-anchor="start" x="482.912" y="-870.847" font-family="Times Roman,serif" font-size="14.00">create</text>
<text text-anchor="start" x="482.912" y="-852.847" font-family="Times Roman,serif" font-size="14.00">destroy</text>
<text text-anchor="start" x="482.912" y="-834.847" font-family="Times Roman,serif" font-size="14.00">index</text>
<text text-anchor="start" x="482.912" y="-816.847" font-family="Times Roman,serif" font-size="14.00">show</text>
<text text-anchor="start" x="482.912" y="-798.847" font-family="Times Roman,serif" font-size="14.00">update</text>
<polyline fill="none" stroke="black" points="474.912,-789.447 654.912,-789.447 "/>
<polyline fill="none" stroke="black" points="474.912,-765.447 654.912,-765.447 "/>
<text text-anchor="start" x="482.912" y="-748.847" font-family="Times Roman,serif" font-size="14.00">_layout</text>
<text text-anchor="start" x="482.912" y="-730.847" font-family="Times Roman,serif" font-size="14.00">post_params</text>
</g>
<!-- Api::V1::UsersController -->
<g id="node7" class="node"><title>Api::V1::UsersController</title>
<polyline fill="none" stroke="black" points="34.8627,-706.947 192.863,-706.947 "/>
<path fill="none" stroke="black" d="M192.863,-706.947C198.863,-706.947 204.863,-712.947 204.863,-718.947"/>
<polyline fill="none" stroke="black" points="204.863,-718.947 204.863,-940.947 "/>
<path fill="none" stroke="black" d="M204.863,-940.947C204.863,-946.947 198.863,-952.947 192.863,-952.947"/>
<polyline fill="none" stroke="black" points="192.863,-952.947 34.8627,-952.947 "/>
<path fill="none" stroke="black" d="M34.8627,-952.947C28.8627,-952.947 22.8627,-946.947 22.8627,-940.947"/>
<polyline fill="none" stroke="black" points="22.8627,-940.947 22.8627,-718.947 "/>
<path fill="none" stroke="black" d="M22.8627,-718.947C22.8627,-712.947 28.8627,-706.947 34.8627,-706.947"/>
<text text-anchor="middle" x="113.863" y="-936.347" font-family="Times Roman,serif" font-size="14.00">Api::V1::UsersController</text>
<polyline fill="none" stroke="black" points="22.8627,-926.947 204.863,-926.947 "/>
<text text-anchor="start" x="30.8627" y="-910.347" font-family="Times Roman,serif" font-size="14.00">all_comments</text>
<text text-anchor="start" x="30.8627" y="-892.347" font-family="Times Roman,serif" font-size="14.00">all_favoring_posts</text>
<text text-anchor="start" x="30.8627" y="-874.347" font-family="Times Roman,serif" font-size="14.00">all_following_topics</text>
<text text-anchor="start" x="30.8627" y="-856.347" font-family="Times Roman,serif" font-size="14.00">create</text>
<text text-anchor="start" x="30.8627" y="-838.347" font-family="Times Roman,serif" font-size="14.00">destroy</text>
<text text-anchor="start" x="30.8627" y="-820.347" font-family="Times Roman,serif" font-size="14.00">index</text>
<text text-anchor="start" x="30.8627" y="-802.347" font-family="Times Roman,serif" font-size="14.00">show</text>
<text text-anchor="start" x="30.8627" y="-784.347" font-family="Times Roman,serif" font-size="14.00">update</text>
<polyline fill="none" stroke="black" points="22.8627,-774.947 204.863,-774.947 "/>
<polyline fill="none" stroke="black" points="22.8627,-750.947 204.863,-750.947 "/>
<text text-anchor="start" x="30.8627" y="-734.347" font-family="Times Roman,serif" font-size="14.00">_layout</text>
<text text-anchor="start" x="30.8627" y="-716.347" font-family="Times Roman,serif" font-size="14.00">user_params</text>
</g>
<!-- Api::V1::CommentsController -->
<g id="node8" class="node"><title>Api::V1::CommentsController</title>
<polyline fill="none" stroke="black" points="13,-237.625 207,-237.625 "/>
<path fill="none" stroke="black" d="M207,-237.625C213,-237.625 219,-243.625 219,-249.625"/>
<polyline fill="none" stroke="black" points="219,-249.625 219,-417.625 "/>
<path fill="none" stroke="black" d="M219,-417.625C219,-423.625 213,-429.625 207,-429.625"/>
<polyline fill="none" stroke="black" points="207,-429.625 13,-429.625 "/>
<path fill="none" stroke="black" d="M13,-429.625C7,-429.625 1,-423.625 1,-417.625"/>
<polyline fill="none" stroke="black" points="1,-417.625 1,-249.625 "/>
<path fill="none" stroke="black" d="M1,-249.625C1,-243.625 7,-237.625 13,-237.625"/>
<text text-anchor="middle" x="110" y="-413.025" font-family="Times Roman,serif" font-size="14.00">Api::V1::CommentsController</text>
<polyline fill="none" stroke="black" points="1,-403.625 219,-403.625 "/>
<text text-anchor="start" x="9" y="-387.025" font-family="Times Roman,serif" font-size="14.00">create</text>
<text text-anchor="start" x="9" y="-369.025" font-family="Times Roman,serif" font-size="14.00">destroy</text>
<text text-anchor="start" x="9" y="-351.025" font-family="Times Roman,serif" font-size="14.00">index</text>
<text text-anchor="start" x="9" y="-333.025" font-family="Times Roman,serif" font-size="14.00">show</text>
<text text-anchor="start" x="9" y="-315.025" font-family="Times Roman,serif" font-size="14.00">update</text>
<polyline fill="none" stroke="black" points="1,-305.625 219,-305.625 "/>
<polyline fill="none" stroke="black" points="1,-281.625 219,-281.625 "/>
<text text-anchor="start" x="9" y="-265.025" font-family="Times Roman,serif" font-size="14.00">_layout</text>
<text text-anchor="start" x="9" y="-247.025" font-family="Times Roman,serif" font-size="14.00">comment_params</text>
</g>
<!-- Api::V1::ApplicationController&#45;&gt;Api::V1::ErrorsController -->
<g id="edge2" class="edge"><title>Api::V1::ApplicationController&#45;&gt;Api::V1::ErrorsController</title>
<path fill="none" stroke="black" d="M586.253,-654.944C623.568,-683.468 664.474,-714.738 698.842,-741.009"/>
</g>
<!-- Api::V1::ApplicationController&#45;&gt;Api::V1::CategoriesController -->
<g id="edge4" class="edge"><title>Api::V1::ApplicationController&#45;&gt;Api::V1::CategoriesController</title>
<path fill="none" stroke="black" d="M366.192,-493.052C329.314,-462.174 290.905,-423.974 264.511,-381.951 228.232,-324.189 244.711,-298.814 222.2,-234.425 213.358,-209.135 202.569,-182.014 192.373,-157.644"/>
</g>
<!-- Api::V1::ApplicationController&#45;&gt;Api::V1::UserSessionsController -->
<g id="edge6" class="edge"><title>Api::V1::ApplicationController&#45;&gt;Api::V1::UserSessionsController</title>
<path fill="none" stroke="black" d="M424.155,-667.097C408.912,-695.287 392.555,-725.536 378.42,-751.676"/>
</g>
<!-- Api::V1::ApplicationController&#45;&gt;Api::V1::PostsController -->
<g id="edge8" class="edge"><title>Api::V1::ApplicationController&#45;&gt;Api::V1::PostsController</title>
<path fill="none" stroke="black" d="M509.619,-667.101C515.758,-684.791 522.195,-703.342 528.418,-721.278"/>
</g>
<!-- Api::V1::ApplicationController&#45;&gt;Api::V1::UsersController -->
<g id="edge10" class="edge"><title>Api::V1::ApplicationController&#45;&gt;Api::V1::UsersController</title>
<path fill="none" stroke="black" d="M366.15,-645.928C320.845,-677.231 268.03,-714.226 220.867,-748.554 215.678,-752.331 210.368,-756.236 205.025,-760.198"/>
</g>
<!-- Api::V1::ApplicationController&#45;&gt;Api::V1::CommentsController -->
<g id="edge12" class="edge"><title>Api::V1::ApplicationController&#45;&gt;Api::V1::CommentsController</title>
<path fill="none" stroke="black" d="M365.84,-499.336C319.402,-469.257 265.511,-434.352 219.2,-404.356"/>
</g>
<!-- Api::V1::FavorsController -->
<g id="node11" class="node"><title>Api::V1::FavorsController</title>
<polyline fill="none" stroke="black" points="680.672,-52.7798 844.672,-52.7798 "/>
<path fill="none" stroke="black" d="M844.672,-52.7798C850.672,-52.7798 856.672,-58.7798 856.672,-64.7798"/>
<polyline fill="none" stroke="black" points="856.672,-64.7798 856.672,-160.78 "/>
<path fill="none" stroke="black" d="M856.672,-160.78C856.672,-166.78 850.672,-172.78 844.672,-172.78"/>
<polyline fill="none" stroke="black" points="844.672,-172.78 680.672,-172.78 "/>
<path fill="none" stroke="black" d="M680.672,-172.78C674.672,-172.78 668.672,-166.78 668.672,-160.78"/>
<polyline fill="none" stroke="black" points="668.672,-160.78 668.672,-64.7798 "/>
<path fill="none" stroke="black" d="M668.672,-64.7798C668.672,-58.7798 674.672,-52.7798 680.672,-52.7798"/>
<text text-anchor="middle" x="762.672" y="-156.18" font-family="Times Roman,serif" font-size="14.00">Api::V1::FavorsController</text>
<polyline fill="none" stroke="black" points="668.672,-146.78 856.672,-146.78 "/>
<text text-anchor="start" x="676.672" y="-130.18" font-family="Times Roman,serif" font-size="14.00">create</text>
<text text-anchor="start" x="676.672" y="-112.18" font-family="Times Roman,serif" font-size="14.00">destroy</text>
<polyline fill="none" stroke="black" points="668.672,-102.78 856.672,-102.78 "/>
<polyline fill="none" stroke="black" points="668.672,-78.7798 856.672,-78.7798 "/>
<text text-anchor="start" x="676.672" y="-62.1798" font-family="Times Roman,serif" font-size="14.00">_layout</text>
</g>
<!-- Api::V1::ApplicationController&#45;&gt;Api::V1::FavorsController -->
<g id="edge18" class="edge"><title>Api::V1::ApplicationController&#45;&gt;Api::V1::FavorsController</title>
<path fill="none" stroke="black" d="M565.508,-474.744C598.158,-443.125 636.722,-409.538 675.826,-383.885 684.388,-378.268 690.342,-382.537 696.97,-374.731 745.147,-317.994 758.839,-230.892 762.289,-172.903"/>
</g>
<!-- Api::V1::HomeController -->
<g id="node12" class="node"><title>Api::V1::HomeController</title>
<polyline fill="none" stroke="black" points="521.77,-269.531 681.77,-269.531 "/>
<path fill="none" stroke="black" d="M681.77,-269.531C687.77,-269.531 693.77,-275.531 693.77,-281.531"/>
<polyline fill="none" stroke="black" points="693.77,-281.531 693.77,-359.531 "/>
<path fill="none" stroke="black" d="M693.77,-359.531C693.77,-365.531 687.77,-371.531 681.77,-371.531"/>
<polyline fill="none" stroke="black" points="681.77,-371.531 521.77,-371.531 "/>
<path fill="none" stroke="black" d="M521.77,-371.531C515.77,-371.531 509.77,-365.531 509.77,-359.531"/>
<polyline fill="none" stroke="black" points="509.77,-359.531 509.77,-281.531 "/>
<path fill="none" stroke="black" d="M509.77,-281.531C509.77,-275.531 515.77,-269.531 521.77,-269.531"/>
<text text-anchor="middle" x="601.77" y="-354.931" font-family="Times Roman,serif" font-size="14.00">Api::V1::HomeController</text>
<polyline fill="none" stroke="black" points="509.77,-345.531 693.77,-345.531 "/>
<text text-anchor="start" x="517.77" y="-328.931" font-family="Times Roman,serif" font-size="14.00">index</text>
<polyline fill="none" stroke="black" points="509.77,-319.531 693.77,-319.531 "/>
<polyline fill="none" stroke="black" points="509.77,-295.531 693.77,-295.531 "/>
<text text-anchor="start" x="517.77" y="-278.931" font-family="Times Roman,serif" font-size="14.00">_layout</text>
</g>
<!-- Api::V1::ApplicationController&#45;&gt;Api::V1::HomeController -->
<g id="edge20" class="edge"><title>Api::V1::ApplicationController&#45;&gt;Api::V1::HomeController</title>
<path fill="none" stroke="black" d="M524.397,-474.771C541.962,-439.755 561.142,-401.521 576.011,-371.881"/>
</g>
<!-- Api::V1::TopicsController -->
<g id="node13" class="node"><title>Api::V1::TopicsController</title>
<polyline fill="none" stroke="black" points="82.2718,-452.877 243.272,-452.877 "/>
<path fill="none" stroke="black" d="M243.272,-452.877C249.272,-452.877 255.272,-458.877 255.272,-464.877"/>
<polyline fill="none" stroke="black" points="255.272,-464.877 255.272,-686.877 "/>
<path fill="none" stroke="black" d="M255.272,-686.877C255.272,-692.877 249.272,-698.877 243.272,-698.877"/>
<polyline fill="none" stroke="black" points="243.272,-698.877 82.2718,-698.877 "/>
<path fill="none" stroke="black" d="M82.2718,-698.877C76.2718,-698.877 70.2718,-692.877 70.2718,-686.877"/>
<polyline fill="none" stroke="black" points="70.2718,-686.877 70.2718,-464.877 "/>
<path fill="none" stroke="black" d="M70.2718,-464.877C70.2718,-458.877 76.2718,-452.877 82.2718,-452.877"/>
<text text-anchor="middle" x="162.772" y="-682.277" font-family="Times Roman,serif" font-size="14.00">Api::V1::TopicsController</text>
<polyline fill="none" stroke="black" points="70.2718,-672.877 255.272,-672.877 "/>
<text text-anchor="start" x="78.2718" y="-656.277" font-family="Times Roman,serif" font-size="14.00">all_following_users</text>
<text text-anchor="start" x="78.2718" y="-638.277" font-family="Times Roman,serif" font-size="14.00">all_posts</text>
<text text-anchor="start" x="78.2718" y="-620.277" font-family="Times Roman,serif" font-size="14.00">all_user_topics</text>
<text text-anchor="start" x="78.2718" y="-602.277" font-family="Times Roman,serif" font-size="14.00">create</text>
<text text-anchor="start" x="78.2718" y="-584.277" font-family="Times Roman,serif" font-size="14.00">destroy</text>
<text text-anchor="start" x="78.2718" y="-566.277" font-family="Times Roman,serif" font-size="14.00">index</text>
<text text-anchor="start" x="78.2718" y="-548.277" font-family="Times Roman,serif" font-size="14.00">show</text>
<text text-anchor="start" x="78.2718" y="-530.277" font-family="Times Roman,serif" font-size="14.00">update</text>
<polyline fill="none" stroke="black" points="70.2718,-520.877 255.272,-520.877 "/>
<polyline fill="none" stroke="black" points="70.2718,-496.877 255.272,-496.877 "/>
<text text-anchor="start" x="78.2718" y="-480.277" font-family="Times Roman,serif" font-size="14.00">_layout</text>
<text text-anchor="start" x="78.2718" y="-462.277" font-family="Times Roman,serif" font-size="14.00">topic_params</text>
</g>
<!-- Api::V1::ApplicationController&#45;&gt;Api::V1::TopicsController -->
<g id="edge22" class="edge"><title>Api::V1::ApplicationController&#45;&gt;Api::V1::TopicsController</title>
<path fill="none" stroke="black" d="M366.145,-572.599C329.984,-573.182 290.177,-573.824 255.44,-574.383"/>
</g>
<!-- Api::V1::FeedsController -->
<g id="node14" class="node"><title>Api::V1::FeedsController</title>
<polyline fill="none" stroke="black" points="691.026,-387.085 850.026,-387.085 "/>
<path fill="none" stroke="black" d="M850.026,-387.085C856.026,-387.085 862.026,-393.085 862.026,-399.085"/>
<polyline fill="none" stroke="black" points="862.026,-399.085 862.026,-585.085 "/>
<path fill="none" stroke="black" d="M862.026,-585.085C862.026,-591.085 856.026,-597.085 850.026,-597.085"/>
<polyline fill="none" stroke="black" points="850.026,-597.085 691.026,-597.085 "/>
<path fill="none" stroke="black" d="M691.026,-597.085C685.026,-597.085 679.026,-591.085 679.026,-585.085"/>
<polyline fill="none" stroke="black" points="679.026,-585.085 679.026,-399.085 "/>
<path fill="none" stroke="black" d="M679.026,-399.085C679.026,-393.085 685.026,-387.085 691.026,-387.085"/>
<text text-anchor="middle" x="770.526" y="-580.485" font-family="Times Roman,serif" font-size="14.00">Api::V1::FeedsController</text>
<polyline fill="none" stroke="black" points="679.026,-571.085 862.026,-571.085 "/>
<text text-anchor="start" x="687.026" y="-554.485" font-family="Times Roman,serif" font-size="14.00">all_topics</text>
<text text-anchor="start" x="687.026" y="-536.485" font-family="Times Roman,serif" font-size="14.00">create</text>
<text text-anchor="start" x="687.026" y="-518.485" font-family="Times Roman,serif" font-size="14.00">destroy</text>
<text text-anchor="start" x="687.026" y="-500.485" font-family="Times Roman,serif" font-size="14.00">index</text>
<text text-anchor="start" x="687.026" y="-482.485" font-family="Times Roman,serif" font-size="14.00">show</text>
<text text-anchor="start" x="687.026" y="-464.485" font-family="Times Roman,serif" font-size="14.00">update</text>
<polyline fill="none" stroke="black" points="679.026,-455.085 862.026,-455.085 "/>
<polyline fill="none" stroke="black" points="679.026,-431.085 862.026,-431.085 "/>
<text text-anchor="start" x="687.026" y="-414.485" font-family="Times Roman,serif" font-size="14.00">_layout</text>
<text text-anchor="start" x="687.026" y="-396.485" font-family="Times Roman,serif" font-size="14.00">feed_params</text>
</g>
<!-- Api::V1::ApplicationController&#45;&gt;Api::V1::FeedsController -->
<g id="edge24" class="edge"><title>Api::V1::ApplicationController&#45;&gt;Api::V1::FeedsController</title>
<path fill="none" stroke="black" d="M586.222,-541.393C616.754,-533.225 649.569,-524.446 678.926,-516.591"/>
</g>
</g>
</svg>
