<?xml version="1.0" encoding="UTF-8" standalone="no"?>
<!DOCTYPE svg PUBLIC "-//W3C//DTD SVG 1.1//EN"
 "http://www.w3.org/Graphics/SVG/1.1/DTD/svg11.dtd">
<!-- Generated by graphviz version 2.26.3 (20100126.1600)
 -->
<!-- Title: controllers_diagram Pages: 1 -->
<svg width="865pt" height="688pt"
 viewBox="0.00 0.00 865.00 687.94" xmlns="http://www.w3.org/2000/svg" xmlns:xlink="http://www.w3.org/1999/xlink">
<g id="graph1" class="graph" transform="scale(1 1) rotate(0) translate(4 683.943)">
<title>controllers_diagram</title>
<polygon fill="white" stroke="white" points="-4,5 -4,-683.943 862,-683.943 862,5 -4,5"/>
<!-- _diagram_info -->
<g id="node1" class="node"><title>_diagram_info</title>
<text text-anchor="start" x="614" y="-408.3" font-family="Times Roman,serif" font-size="13.00">Controllers diagram</text>
<text text-anchor="start" x="614" y="-391.3" font-family="Times Roman,serif" font-size="13.00">Date: Oct 18 2013 &#45; 15:10</text>
<text text-anchor="start" x="614" y="-374.3" font-family="Times Roman,serif" font-size="13.00">Migration version: 20131018004603</text>
<text text-anchor="start" x="614" y="-357.3" font-family="Times Roman,serif" font-size="13.00">Generated by RailRoady 1.1.1</text>
<text text-anchor="start" x="614" y="-340.3" font-family="Times Roman,serif" font-size="13.00">http://railroady.prestonlee.com</text>
</g>
<!-- ApplicationController -->
<g id="node2" class="node"><title>ApplicationController</title>
<polyline fill="none" stroke="black" points="45.7184,-289.361 182.718,-289.361 "/>
<path fill="none" stroke="black" d="M182.718,-289.361C188.718,-289.361 194.718,-295.361 194.718,-301.361"/>
<polyline fill="none" stroke="black" points="194.718,-301.361 194.718,-377.361 "/>
<path fill="none" stroke="black" d="M194.718,-377.361C194.718,-383.361 188.718,-389.361 182.718,-389.361"/>
<polyline fill="none" stroke="black" points="182.718,-389.361 45.7184,-389.361 "/>
<path fill="none" stroke="black" d="M45.7184,-389.361C39.7184,-389.361 33.7184,-383.361 33.7184,-377.361"/>
<polyline fill="none" stroke="black" points="33.7184,-377.361 33.7184,-301.361 "/>
<path fill="none" stroke="black" d="M33.7184,-301.361C33.7184,-295.361 39.7184,-289.361 45.7184,-289.361"/>
<text text-anchor="middle" x="114.218" y="-372.761" font-family="Times Roman,serif" font-size="14.00">ApplicationController</text>
<polyline fill="none" stroke="black" points="33.7184,-363.361 194.718,-363.361 "/>
<polyline fill="none" stroke="black" points="33.7184,-339.361 194.718,-339.361 "/>
<polyline fill="none" stroke="black" points="33.7184,-315.361 194.718,-315.361 "/>
<text text-anchor="start" x="41.7184" y="-298.761" font-family="Times Roman,serif" font-size="14.00">_layout</text>
</g>
<!-- Api::V1::ApplicationController -->
<g id="node6" class="node"><title>Api::V1::ApplicationController</title>
<polyline fill="none" stroke="black" points="270.733,-262.015 465.733,-262.015 "/>
<path fill="none" stroke="black" d="M465.733,-262.015C471.733,-262.015 477.733,-268.015 477.733,-274.015"/>
<polyline fill="none" stroke="black" points="477.733,-274.015 477.733,-406.015 "/>
<path fill="none" stroke="black" d="M477.733,-406.015C477.733,-412.015 471.733,-418.015 465.733,-418.015"/>
<polyline fill="none" stroke="black" points="465.733,-418.015 270.733,-418.015 "/>
<path fill="none" stroke="black" d="M270.733,-418.015C264.733,-418.015 258.733,-412.015 258.733,-406.015"/>
<polyline fill="none" stroke="black" points="258.733,-406.015 258.733,-274.015 "/>
<path fill="none" stroke="black" d="M258.733,-274.015C258.733,-268.015 264.733,-262.015 270.733,-262.015"/>
<text text-anchor="middle" x="368.233" y="-401.415" font-family="Times Roman,serif" font-size="14.00">Api::V1::ApplicationController</text>
<polyline fill="none" stroke="black" points="258.733,-392.015 477.733,-392.015 "/>
<text text-anchor="start" x="266.733" y="-375.415" font-family="Times Roman,serif" font-size="14.00">ping</text>
<polyline fill="none" stroke="black" points="258.733,-366.015 477.733,-366.015 "/>
<polyline fill="none" stroke="black" points="258.733,-342.015 477.733,-342.015 "/>
<text text-anchor="start" x="266.733" y="-325.415" font-family="Times Roman,serif" font-size="14.00">_layout</text>
<text text-anchor="start" x="266.733" y="-307.415" font-family="Times Roman,serif" font-size="14.00">record_not_found</text>
<text text-anchor="start" x="266.733" y="-289.415" font-family="Times Roman,serif" font-size="14.00">set_csrf_cookie_for_ng</text>
<text text-anchor="start" x="266.733" y="-271.415" font-family="Times Roman,serif" font-size="14.00">verified_request?</text>
</g>
<!-- ApplicationController&#45;&gt;Api::V1::ApplicationController -->
<g id="edge8" class="edge"><title>ApplicationController&#45;&gt;Api::V1::ApplicationController</title>
<path fill="none" stroke="black" d="M194.939,-339.569C215.132,-339.621 237.133,-339.677 258.472,-339.732"/>
</g>
<!-- Api::V1::SessionsController -->
<g id="node3" class="node"><title>Api::V1::SessionsController</title>
<polyline fill="none" stroke="black" points="480.793,-455.257 658.793,-455.257 "/>
<path fill="none" stroke="black" d="M658.793,-455.257C664.793,-455.257 670.793,-461.257 670.793,-467.257"/>
<polyline fill="none" stroke="black" points="670.793,-467.257 670.793,-563.257 "/>
<path fill="none" stroke="black" d="M670.793,-563.257C670.793,-569.257 664.793,-575.257 658.793,-575.257"/>
<polyline fill="none" stroke="black" points="658.793,-575.257 480.793,-575.257 "/>
<path fill="none" stroke="black" d="M480.793,-575.257C474.793,-575.257 468.793,-569.257 468.793,-563.257"/>
<polyline fill="none" stroke="black" points="468.793,-563.257 468.793,-467.257 "/>
<path fill="none" stroke="black" d="M468.793,-467.257C468.793,-461.257 474.793,-455.257 480.793,-455.257"/>
<text text-anchor="middle" x="569.793" y="-558.657" font-family="Times Roman,serif" font-size="14.00">Api::V1::SessionsController</text>
<polyline fill="none" stroke="black" points="468.793,-549.257 670.793,-549.257 "/>
<text text-anchor="start" x="476.793" y="-532.657" font-family="Times Roman,serif" font-size="14.00">login</text>
<text text-anchor="start" x="476.793" y="-514.657" font-family="Times Roman,serif" font-size="14.00">logout</text>
<polyline fill="none" stroke="black" points="468.793,-505.257 670.793,-505.257 "/>
<polyline fill="none" stroke="black" points="468.793,-481.257 670.793,-481.257 "/>
<text text-anchor="start" x="476.793" y="-464.657" font-family="Times Roman,serif" font-size="14.00">_layout</text>
</g>
<!-- Api::V1::TopicsController -->
<g id="node4" class="node"><title>Api::V1::TopicsController</title>
<polyline fill="none" stroke="black" points="263.414,-1.5 423.414,-1.5 "/>
<path fill="none" stroke="black" d="M423.414,-1.5C429.414,-1.5 435.414,-7.5 435.414,-13.5"/>
<polyline fill="none" stroke="black" points="435.414,-13.5 435.414,-181.5 "/>
<path fill="none" stroke="black" d="M435.414,-181.5C435.414,-187.5 429.414,-193.5 423.414,-193.5"/>
<polyline fill="none" stroke="black" points="423.414,-193.5 263.414,-193.5 "/>
<path fill="none" stroke="black" d="M263.414,-193.5C257.414,-193.5 251.414,-187.5 251.414,-181.5"/>
<polyline fill="none" stroke="black" points="251.414,-181.5 251.414,-13.5 "/>
<path fill="none" stroke="black" d="M251.414,-13.5C251.414,-7.5 257.414,-1.5 263.414,-1.5"/>
<text text-anchor="middle" x="343.414" y="-176.9" font-family="Times Roman,serif" font-size="14.00">Api::V1::TopicsController</text>
<polyline fill="none" stroke="black" points="251.414,-167.5 435.414,-167.5 "/>
<text text-anchor="start" x="259.414" y="-150.9" font-family="Times Roman,serif" font-size="14.00">create</text>
<text text-anchor="start" x="259.414" y="-132.9" font-family="Times Roman,serif" font-size="14.00">destroy</text>
<text text-anchor="start" x="259.414" y="-114.9" font-family="Times Roman,serif" font-size="14.00">index</text>
<text text-anchor="start" x="259.414" y="-96.9" font-family="Times Roman,serif" font-size="14.00">show</text>
<text text-anchor="start" x="259.414" y="-78.9" font-family="Times Roman,serif" font-size="14.00">update</text>
<polyline fill="none" stroke="black" points="251.414,-69.5 435.414,-69.5 "/>
<polyline fill="none" stroke="black" points="251.414,-45.5 435.414,-45.5 "/>
<text text-anchor="start" x="259.414" y="-28.9" font-family="Times Roman,serif" font-size="14.00">_layout</text>
<text text-anchor="start" x="259.414" y="-10.9" font-family="Times Roman,serif" font-size="14.00">topic_params</text>
</g>
<!-- Api::V1::PostsController -->
<g id="node5" class="node"><title>Api::V1::PostsController</title>
<polyline fill="none" stroke="black" points="273.759,-486.443 429.759,-486.443 "/>
<path fill="none" stroke="black" d="M429.759,-486.443C435.759,-486.443 441.759,-492.443 441.759,-498.443"/>
<polyline fill="none" stroke="black" points="441.759,-498.443 441.759,-666.443 "/>
<path fill="none" stroke="black" d="M441.759,-666.443C441.759,-672.443 435.759,-678.443 429.759,-678.443"/>
<polyline fill="none" stroke="black" points="429.759,-678.443 273.759,-678.443 "/>
<path fill="none" stroke="black" d="M273.759,-678.443C267.759,-678.443 261.759,-672.443 261.759,-666.443"/>
<polyline fill="none" stroke="black" points="261.759,-666.443 261.759,-498.443 "/>
<path fill="none" stroke="black" d="M261.759,-498.443C261.759,-492.443 267.759,-486.443 273.759,-486.443"/>
<text text-anchor="middle" x="351.759" y="-661.843" font-family="Times Roman,serif" font-size="14.00">Api::V1::PostsController</text>
<polyline fill="none" stroke="black" points="261.759,-652.443 441.759,-652.443 "/>
<text text-anchor="start" x="269.759" y="-635.843" font-family="Times Roman,serif" font-size="14.00">create</text>
<text text-anchor="start" x="269.759" y="-617.843" font-family="Times Roman,serif" font-size="14.00">destroy</text>
<text text-anchor="start" x="269.759" y="-599.843" font-family="Times Roman,serif" font-size="14.00">index</text>
<text text-anchor="start" x="269.759" y="-581.843" font-family="Times Roman,serif" font-size="14.00">show</text>
<text text-anchor="start" x="269.759" y="-563.843" font-family="Times Roman,serif" font-size="14.00">update</text>
<polyline fill="none" stroke="black" points="261.759,-554.443 441.759,-554.443 "/>
<polyline fill="none" stroke="black" points="261.759,-530.443 441.759,-530.443 "/>
<text text-anchor="start" x="269.759" y="-513.843" font-family="Times Roman,serif" font-size="14.00">_layout</text>
<text text-anchor="start" x="269.759" y="-495.843" font-family="Times Roman,serif" font-size="14.00">post_params</text>
</g>
<!-- Api::V1::ApplicationController&#45;&gt;Api::V1::SessionsController -->
<g id="edge2" class="edge"><title>Api::V1::ApplicationController&#45;&gt;Api::V1::SessionsController</title>
<path fill="none" stroke="black" d="M458.107,-418.154C472.384,-430.567 486.957,-443.237 500.661,-455.152"/>
</g>
<!-- Api::V1::ApplicationController&#45;&gt;Api::V1::TopicsController -->
<g id="edge4" class="edge"><title>Api::V1::ApplicationController&#45;&gt;Api::V1::TopicsController</title>
<path fill="none" stroke="black" d="M360.243,-261.947C358.018,-240.207 355.576,-216.338 353.258,-193.688"/>
</g>
<!-- Api::V1::ApplicationController&#45;&gt;Api::V1::PostsController -->
<g id="edge6" class="edge"><title>Api::V1::ApplicationController&#45;&gt;Api::V1::PostsController</title>
<path fill="none" stroke="black" d="M362.93,-418.055C361.453,-439.787 359.831,-463.648 358.293,-486.289"/>
</g>
<!-- Api::V1::CommentsController -->
<g id="node7" class="node"><title>Api::V1::CommentsController</title>
<polyline fill="none" stroke="black" points="13,-476.074 206,-476.074 "/>
<path fill="none" stroke="black" d="M206,-476.074C212,-476.074 218,-482.074 218,-488.074"/>
<polyline fill="none" stroke="black" points="218,-488.074 218,-656.074 "/>
<path fill="none" stroke="black" d="M218,-656.074C218,-662.074 212,-668.074 206,-668.074"/>
<polyline fill="none" stroke="black" points="206,-668.074 13,-668.074 "/>
<path fill="none" stroke="black" d="M13,-668.074C7,-668.074 1,-662.074 1,-656.074"/>
<polyline fill="none" stroke="black" points="1,-656.074 1,-488.074 "/>
<path fill="none" stroke="black" d="M1,-488.074C1,-482.074 7,-476.074 13,-476.074"/>
<text text-anchor="middle" x="109.5" y="-651.474" font-family="Times Roman,serif" font-size="14.00">Api::V1::CommentsController</text>
<polyline fill="none" stroke="black" points="1,-642.074 218,-642.074 "/>
<text text-anchor="start" x="9" y="-625.474" font-family="Times Roman,serif" font-size="14.00">create</text>
<text text-anchor="start" x="9" y="-607.474" font-family="Times Roman,serif" font-size="14.00">destroy</text>
<text text-anchor="start" x="9" y="-589.474" font-family="Times Roman,serif" font-size="14.00">index</text>
<text text-anchor="start" x="9" y="-571.474" font-family="Times Roman,serif" font-size="14.00">show</text>
<text text-anchor="start" x="9" y="-553.474" font-family="Times Roman,serif" font-size="14.00">update</text>
<polyline fill="none" stroke="black" points="1,-544.074 218,-544.074 "/>
<polyline fill="none" stroke="black" points="1,-520.074 218,-520.074 "/>
<text text-anchor="start" x="9" y="-503.474" font-family="Times Roman,serif" font-size="14.00">_layout</text>
<text text-anchor="start" x="9" y="-485.474" font-family="Times Roman,serif" font-size="14.00">comment_params</text>
</g>
<!-- Api::V1::ApplicationController&#45;&gt;Api::V1::CommentsController -->
<g id="edge10" class="edge"><title>Api::V1::ApplicationController&#45;&gt;Api::V1::CommentsController</title>
<path fill="none" stroke="black" d="M280.998,-418.256C260.313,-436.809 238.014,-456.809 216.56,-476.052"/>
</g>
<!-- Api::V1::FeedsController -->
<g id="node8" class="node"><title>Api::V1::FeedsController</title>
<polyline fill="none" stroke="black" points="26.2594,-9.79519 185.259,-9.79519 "/>
<path fill="none" stroke="black" d="M185.259,-9.79519C191.259,-9.79519 197.259,-15.7952 197.259,-21.7952"/>
<polyline fill="none" stroke="black" points="197.259,-21.7952 197.259,-189.795 "/>
<path fill="none" stroke="black" d="M197.259,-189.795C197.259,-195.795 191.259,-201.795 185.259,-201.795"/>
<polyline fill="none" stroke="black" points="185.259,-201.795 26.2594,-201.795 "/>
<path fill="none" stroke="black" d="M26.2594,-201.795C20.2594,-201.795 14.2594,-195.795 14.2594,-189.795"/>
<polyline fill="none" stroke="black" points="14.2594,-189.795 14.2594,-21.7952 "/>
<path fill="none" stroke="black" d="M14.2594,-21.7952C14.2594,-15.7952 20.2594,-9.79519 26.2594,-9.79519"/>
<text text-anchor="middle" x="105.759" y="-185.195" font-family="Times Roman,serif" font-size="14.00">Api::V1::FeedsController</text>
<polyline fill="none" stroke="black" points="14.2594,-175.795 197.259,-175.795 "/>
<text text-anchor="start" x="22.2594" y="-159.195" font-family="Times Roman,serif" font-size="14.00">create</text>
<text text-anchor="start" x="22.2594" y="-141.195" font-family="Times Roman,serif" font-size="14.00">destroy</text>
<text text-anchor="start" x="22.2594" y="-123.195" font-family="Times Roman,serif" font-size="14.00">index</text>
<text text-anchor="start" x="22.2594" y="-105.195" font-family="Times Roman,serif" font-size="14.00">show</text>
<text text-anchor="start" x="22.2594" y="-87.1952" font-family="Times Roman,serif" font-size="14.00">update</text>
<polyline fill="none" stroke="black" points="14.2594,-77.7952 197.259,-77.7952 "/>
<polyline fill="none" stroke="black" points="14.2594,-53.7952 197.259,-53.7952 "/>
<text text-anchor="start" x="22.2594" y="-37.1952" font-family="Times Roman,serif" font-size="14.00">_layout</text>
<text text-anchor="start" x="22.2594" y="-19.1952" font-family="Times Roman,serif" font-size="14.00">feed_params</text>
</g>
<!-- Api::V1::ApplicationController&#45;&gt;Api::V1::FeedsController -->
<g id="edge12" class="edge"><title>Api::V1::ApplicationController&#45;&gt;Api::V1::FeedsController</title>
<path fill="none" stroke="black" d="M280.468,-261.697C253.792,-237.893 224.414,-211.677 197.484,-187.646"/>
</g>
<!-- Api::V1::UsersController -->
<g id="node9" class="node"><title>Api::V1::UsersController</title>
<polyline fill="none" stroke="black" points="487.685,-61.2143 645.685,-61.2143 "/>
<path fill="none" stroke="black" d="M645.685,-61.2143C651.685,-61.2143 657.685,-67.2143 657.685,-73.2143"/>
<polyline fill="none" stroke="black" points="657.685,-73.2143 657.685,-241.214 "/>
<path fill="none" stroke="black" d="M657.685,-241.214C657.685,-247.214 651.685,-253.214 645.685,-253.214"/>
<polyline fill="none" stroke="black" points="645.685,-253.214 487.685,-253.214 "/>
<path fill="none" stroke="black" d="M487.685,-253.214C481.685,-253.214 475.685,-247.214 475.685,-241.214"/>
<polyline fill="none" stroke="black" points="475.685,-241.214 475.685,-73.2143 "/>
<path fill="none" stroke="black" d="M475.685,-73.2143C475.685,-67.2143 481.685,-61.2143 487.685,-61.2143"/>
<text text-anchor="middle" x="566.685" y="-236.614" font-family="Times Roman,serif" font-size="14.00">Api::V1::UsersController</text>
<polyline fill="none" stroke="black" points="475.685,-227.214 657.685,-227.214 "/>
<text text-anchor="start" x="483.685" y="-210.614" font-family="Times Roman,serif" font-size="14.00">create</text>
<text text-anchor="start" x="483.685" y="-192.614" font-family="Times Roman,serif" font-size="14.00">destroy</text>
<text text-anchor="start" x="483.685" y="-174.614" font-family="Times Roman,serif" font-size="14.00">index</text>
<text text-anchor="start" x="483.685" y="-156.614" font-family="Times Roman,serif" font-size="14.00">show</text>
<text text-anchor="start" x="483.685" y="-138.614" font-family="Times Roman,serif" font-size="14.00">update</text>
<polyline fill="none" stroke="black" points="475.685,-129.214 657.685,-129.214 "/>
<polyline fill="none" stroke="black" points="475.685,-105.214 657.685,-105.214 "/>
<text text-anchor="start" x="483.685" y="-88.6143" font-family="Times Roman,serif" font-size="14.00">_layout</text>
<text text-anchor="start" x="483.685" y="-70.6143" font-family="Times Roman,serif" font-size="14.00">user_params</text>
</g>
<!-- Api::V1::ApplicationController&#45;&gt;Api::V1::UsersController -->
<g id="edge14" class="edge"><title>Api::V1::ApplicationController&#45;&gt;Api::V1::UsersController</title>
<path fill="none" stroke="black" d="M452.97,-261.961C460.45,-255.071 468.042,-248.078 475.571,-241.142"/>
</g>
</g>
</svg>
