<?xml version="1.0" encoding="UTF-8" standalone="no"?>
<!DOCTYPE svg PUBLIC "-//W3C//DTD SVG 1.1//EN"
 "http://www.w3.org/Graphics/SVG/1.1/DTD/svg11.dtd">
<!-- Generated by graphviz version 2.26.3 (20100126.1600)
 -->
<!-- Title: models_diagram Pages: 1 -->
<svg width="559pt" height="398pt"
 viewBox="0.00 0.00 558.88 398.00" xmlns="http://www.w3.org/2000/svg" xmlns:xlink="http://www.w3.org/1999/xlink">
<g id="graph1" class="graph" transform="scale(1 1) rotate(0) translate(4 394)">
<title>models_diagram</title>
<polygon fill="white" stroke="white" points="-4,5 -4,-394 555.877,-394 555.877,5 -4,5"/>
<!-- _diagram_info -->
<g id="node1" class="node"><title>_diagram_info</title>
<text text-anchor="start" x="8" y="-373.8" font-family="Times Roman,serif" font-size="13.00">Models diagram</text>
<text text-anchor="start" x="8" y="-356.8" font-family="Times Roman,serif" font-size="13.00">Date: Oct 18 2013 &#45; 15:10</text>
<text text-anchor="start" x="8" y="-339.8" font-family="Times Roman,serif" font-size="13.00">Migration version: 20131018004603</text>
<text text-anchor="start" x="8" y="-322.8" font-family="Times Roman,serif" font-size="13.00">Generated by RailRoady 1.1.1</text>
<text text-anchor="start" x="8" y="-305.8" font-family="Times Roman,serif" font-size="13.00">http://railroady.prestonlee.com</text>
</g>
<!-- User -->
<g id="node2" class="node"><title>User</title>
<ellipse fill="none" stroke="black" cx="372" cy="-241" rx="33.9411" ry="18.3848"/>
<text text-anchor="middle" x="372" y="-237.4" font-family="Times Roman,serif" font-size="14.00">User</text>
</g>
<!-- Favor -->
<g id="node3" class="node"><title>Favor</title>
<ellipse fill="none" stroke="black" cx="191" cy="-167" rx="38.1838" ry="18.3848"/>
<text text-anchor="middle" x="191" y="-163.4" font-family="Times Roman,serif" font-size="14.00">Favor</text>
</g>
<!-- User&#45;&gt;Favor -->
<g id="edge6" class="edge"><title>User&#45;&gt;Favor</title>
<path fill="none" stroke="#f508d2" d="M336.685,-226.562C305.914,-213.981 261.374,-195.772 229.655,-182.804"/>
<ellipse fill="none" stroke="#f508d2" cx="340.807" cy="-228.247" rx="4.00001" ry="4.00001"/>
<polygon fill="#f508d2" stroke="#f508d2" points="229.508,-182.744 221.955,-174.794 224.88,-180.852 220.252,-178.959 220.252,-178.959 220.252,-178.959 224.88,-180.852 218.549,-183.125 229.508,-182.744 229.508,-182.744"/>
</g>
<!-- Feed -->
<g id="node4" class="node"><title>Feed</title>
<ellipse fill="none" stroke="black" cx="281" cy="-167" rx="34.1461" ry="18.3848"/>
<text text-anchor="middle" x="281" y="-163.4" font-family="Times Roman,serif" font-size="14.00">Feed</text>
</g>
<!-- User&#45;&gt;Feed -->
<g id="edge10" class="edge"><title>User&#45;&gt;Feed</title>
<path fill="none" stroke="#f838fa" d="M346.208,-220.026C334.25,-210.302 320.04,-198.747 307.943,-188.91"/>
<ellipse fill="none" stroke="#f838fa" cx="349.598" cy="-222.783" rx="4.00002" ry="4.00002"/>
<polygon fill="#f838fa" stroke="#f838fa" points="307.717,-188.726 302.798,-178.926 303.838,-185.572 299.959,-182.417 299.959,-182.417 299.959,-182.417 303.838,-185.572 297.12,-185.908 307.717,-188.726 307.717,-188.726"/>
</g>
<!-- Topic -->
<g id="node5" class="node"><title>Topic</title>
<ellipse fill="none" stroke="black" cx="300" cy="-93" rx="34.8574" ry="18.3848"/>
<text text-anchor="middle" x="300" y="-89.4" font-family="Times Roman,serif" font-size="14.00">Topic</text>
</g>
<!-- User&#45;&gt;Topic -->
<g id="edge2" class="edge"><title>User&#45;&gt;Topic</title>
<path fill="none" stroke="#996b1e" d="M358.781,-213.828C345.867,-187.282 326.313,-147.088 313.353,-120.447"/>
<polygon fill="#996b1e" stroke="#996b1e" points="358.797,-213.86 359.125,-224.821 360.984,-218.356 363.171,-222.852 363.171,-222.852 363.171,-222.852 360.984,-218.356 367.218,-220.884 358.797,-213.86 358.797,-213.86"/>
<polygon fill="#996b1e" stroke="#996b1e" points="313.276,-120.289 312.947,-109.328 311.088,-115.792 308.901,-111.296 308.901,-111.296 308.901,-111.296 311.088,-115.792 304.854,-113.265 313.276,-120.289 313.276,-120.289"/>
</g>
<!-- Comment -->
<g id="node6" class="node"><title>Comment</title>
<ellipse fill="none" stroke="black" cx="479" cy="-93" rx="58.1882" ry="18.3848"/>
<text text-anchor="middle" x="479" y="-89.4" font-family="Times Roman,serif" font-size="14.00">Comment</text>
</g>
<!-- User&#45;&gt;Comment -->
<g id="edge12" class="edge"><title>User&#45;&gt;Comment</title>
<path fill="none" stroke="#e31329" d="M388.893,-216.87C402.137,-198.032 421.093,-171.243 438,-148 444.796,-138.658 452.328,-128.499 459.063,-119.483"/>
<ellipse fill="none" stroke="#e31329" cx="386.585" cy="-220.156" rx="4.00002" ry="4.00002"/>
<polygon fill="#e31329" stroke="#e31329" points="459.231,-119.258 468.828,-113.951 462.228,-115.256 465.226,-111.254 465.226,-111.254 465.226,-111.254 462.228,-115.256 461.624,-108.557 459.231,-119.258 459.231,-119.258"/>
</g>
<!-- Post -->
<g id="node7" class="node"><title>Post</title>
<ellipse fill="none" stroke="black" cx="479" cy="-167" rx="32.0265" ry="18.3848"/>
<text text-anchor="middle" x="479" y="-163.4" font-family="Times Roman,serif" font-size="14.00">Post</text>
</g>
<!-- User&#45;&gt;Post -->
<g id="edge8" class="edge"><title>User&#45;&gt;Post</title>
<path fill="none" stroke="#c17933" d="M401.568,-220.551C416.625,-210.138 434.867,-197.522 449.863,-187.151"/>
<polygon fill="#c17933" stroke="#c17933" points="401.364,-220.692 390.58,-222.679 397.252,-223.536 393.14,-226.38 393.14,-226.38 393.14,-226.38 397.252,-223.536 395.699,-230.081 401.364,-220.692 401.364,-220.692"/>
<polygon fill="#c17933" stroke="#c17933" points="450.044,-187.026 460.828,-185.039 454.156,-184.182 458.268,-181.338 458.268,-181.338 458.268,-181.338 454.156,-184.182 455.709,-177.637 450.044,-187.026 450.044,-187.026"/>
</g>
<!-- Followship -->
<g id="node8" class="node"><title>Followship</title>
<ellipse fill="none" stroke="black" cx="381" cy="-19" rx="62.9325" ry="18.3848"/>
<text text-anchor="middle" x="381" y="-15.4" font-family="Times Roman,serif" font-size="14.00">Followship</text>
</g>
<!-- User&#45;&gt;Followship -->
<g id="edge4" class="edge"><title>User&#45;&gt;Followship</title>
<path fill="none" stroke="#96af4d" d="M373.085,-214.237C374.789,-172.199 378.08,-91.0363 379.833,-47.7822"/>
<ellipse fill="none" stroke="#96af4d" cx="372.914" cy="-218.458" rx="4" ry="4"/>
<polygon fill="#96af4d" stroke="#96af4d" points="379.839,-47.6409 384.74,-37.8314 380.041,-42.645 380.244,-37.6491 380.244,-37.6491 380.244,-37.6491 380.041,-42.645 375.748,-37.4668 379.839,-47.6409 379.839,-47.6409"/>
</g>
<!-- Feed&#45;&gt;Topic -->
<g id="edge18" class="edge"><title>Feed&#45;&gt;Topic</title>
<path fill="none" stroke="#7a6fc8" d="M287.795,-140.535C289.381,-134.357 291.078,-127.751 292.685,-121.489"/>
<ellipse fill="none" stroke="#7a6fc8" cx="286.789" cy="-144.452" rx="4.00001" ry="4.00001"/>
<polygon fill="#7a6fc8" stroke="#7a6fc8" points="292.786,-121.097 299.631,-112.53 294.029,-116.254 295.273,-111.411 295.273,-111.411 295.273,-111.411 294.029,-116.254 290.914,-110.292 292.786,-121.097 292.786,-121.097"/>
</g>
<!-- Topic&#45;&gt;Followship -->
<g id="edge22" class="edge"><title>Topic&#45;&gt;Followship</title>
<path fill="none" stroke="#26b145" d="M323.614,-71.4263C333.103,-62.7581 344.097,-52.7139 353.908,-43.7507"/>
<ellipse fill="none" stroke="#26b145" cx="320.529" cy="-74.2451" rx="4.00002" ry="4.00002"/>
<polygon fill="#26b145" stroke="#26b145" points="354.088,-43.586 364.506,-40.1634 357.78,-40.2135 361.471,-36.8411 361.471,-36.8411 361.471,-36.8411 357.78,-40.2135 358.436,-33.5188 354.088,-43.586 354.088,-43.586"/>
</g>
<!-- Post&#45;&gt;Comment -->
<g id="edge28" class="edge"><title>Post&#45;&gt;Comment</title>
<path fill="none" stroke="#4b0245" d="M479,-140.309C479,-134.377 479,-128.061 479,-122.04"/>
<ellipse fill="none" stroke="#4b0245" cx="479" cy="-144.327" rx="4" ry="4"/>
<polygon fill="#4b0245" stroke="#4b0245" points="479,-121.667 483.5,-111.667 479,-116.667 479,-111.667 479,-111.667 479,-111.667 479,-116.667 474.5,-111.667 479,-121.667 479,-121.667"/>
</g>
<!-- ActiveRecord::Base -->
<g id="node15" class="node"><title>ActiveRecord::Base</title>
<ellipse fill="none" stroke="black" cx="372" cy="-343" rx="103.945" ry="18.3848"/>
<text text-anchor="middle" x="372" y="-339.4" font-family="Times Roman,serif" font-size="14.00">ActiveRecord::Base</text>
</g>
<!-- ActiveRecord::Base&#45;&gt;User -->
<g id="edge14" class="edge"><title>ActiveRecord::Base&#45;&gt;User</title>
<path fill="none" stroke="black" d="M372,-324.292C372,-305.888 372,-277.953 372,-259.59"/>
</g>
<!-- ActiveRecord::Base&#45;&gt;Favor -->
<g id="edge16" class="edge"><title>ActiveRecord::Base&#45;&gt;Favor</title>
<path fill="none" stroke="black" d="M352.972,-324.498C317.574,-290.078 242.124,-216.712 208.177,-183.703"/>
</g>
<!-- ActiveRecord::Base&#45;&gt;Feed -->
<g id="edge20" class="edge"><title>ActiveRecord::Base&#45;&gt;Feed</title>
<path fill="none" stroke="black" d="M362.428,-324.543C353.708,-307.726 340.48,-282.2 329,-260 315.48,-233.854 299.85,-203.557 290.194,-184.833"/>
</g>
<!-- ActiveRecord::Base&#45;&gt;Topic -->
<g id="edge24" class="edge"><title>ActiveRecord::Base&#45;&gt;Topic</title>
<path fill="none" stroke="black" d="M324.604,-326.422C269.367,-304.194 180.946,-258.871 144,-186 136.363,-170.937 134.243,-161.785 144,-148 158.516,-127.49 226.085,-109.319 267.39,-99.8742"/>
</g>
<!-- ActiveRecord::Base&#45;&gt;Comment -->
<g id="edge26" class="edge"><title>ActiveRecord::Base&#45;&gt;Comment</title>
<path fill="none" stroke="black" d="M398.594,-324.979C434.149,-299.085 495.534,-247.622 520,-186 526.232,-170.303 525.317,-164.03 520,-148 515.425,-134.209 505.899,-121.071 497.18,-111.097"/>
</g>
<!-- ActiveRecord::Base&#45;&gt;Post -->
<g id="edge30" class="edge"><title>ActiveRecord::Base&#45;&gt;Post</title>
<path fill="none" stroke="black" d="M383.249,-324.498C404.013,-290.342 448.093,-217.838 468.378,-184.472"/>
</g>
<!-- ActiveRecord::Base&#45;&gt;Followship -->
<g id="edge32" class="edge"><title>ActiveRecord::Base&#45;&gt;Followship</title>
<path fill="none" stroke="black" d="M409.554,-325.645C437.392,-311.259 474.733,-288.568 500,-260 545.634,-208.403 541.377,-180.726 546,-112 547.133,-95.1492 555.875,-87.701 546,-74 532.494,-55.2608 476.195,-39.2751 433.078,-29.4452"/>
</g>
</g>
</svg>
