<?xml version="1.0" encoding="UTF-8" standalone="no"?>
<!DOCTYPE svg PUBLIC "-//W3C//DTD SVG 1.1//EN"
 "http://www.w3.org/Graphics/SVG/1.1/DTD/svg11.dtd">
<!-- Generated by graphviz version 2.26.3 (20100126.1600)
 -->
<!-- Title: models_diagram Pages: 1 -->
<svg width="846pt" height="930pt"
 viewBox="0.00 0.00 846.47 930.00" xmlns="http://www.w3.org/2000/svg" xmlns:xlink="http://www.w3.org/1999/xlink">
<g id="graph1" class="graph" transform="scale(1 1) rotate(0) translate(4 926)">
<title>models_diagram</title>
<polygon fill="white" stroke="white" points="-4,5 -4,-926 843.466,-926 843.466,5 -4,5"/>
<!-- _diagram_info -->
<g id="node1" class="node"><title>_diagram_info</title>
<text text-anchor="start" x="135.466" y="-905.8" font-family="Times Roman,serif" font-size="13.00">Models diagram</text>
<text text-anchor="start" x="135.466" y="-888.8" font-family="Times Roman,serif" font-size="13.00">Date: Dec 04 2013 &#45; 19:42</text>
<text text-anchor="start" x="135.466" y="-871.8" font-family="Times Roman,serif" font-size="13.00">Migration version: 20131117211413</text>
<text text-anchor="start" x="135.466" y="-854.8" font-family="Times Roman,serif" font-size="13.00">Generated by RailRoady 1.1.1</text>
<text text-anchor="start" x="135.466" y="-837.8" font-family="Times Roman,serif" font-size="13.00">http://railroady.prestonlee.com</text>
</g>
<!-- Followship -->
<g id="node2" class="node"><title>Followship</title>
<polyline fill="none" stroke="black" points="94.9656,-1 235.966,-1 "/>
<path fill="none" stroke="black" d="M235.966,-1C241.966,-1 247.966,-7 247.966,-13"/>
<polyline fill="none" stroke="black" points="247.966,-13 247.966,-131 "/>
<path fill="none" stroke="black" d="M247.966,-131C247.966,-137 241.966,-143 235.966,-143"/>
<polyline fill="none" stroke="black" points="235.966,-143 94.9656,-143 "/>
<path fill="none" stroke="black" d="M94.9656,-143C88.9656,-143 82.9656,-137 82.9656,-131"/>
<polyline fill="none" stroke="black" points="82.9656,-131 82.9656,-13 "/>
<path fill="none" stroke="black" d="M82.9656,-13C82.9656,-7 88.9656,-1 94.9656,-1"/>
<text text-anchor="middle" x="165.466" y="-126.4" font-family="Times Roman,serif" font-size="14.00">Followship</text>
<polyline fill="none" stroke="black" points="82.9656,-117 247.966,-117 "/>
<text text-anchor="start" x="90.9656" y="-100.4" font-family="Times Roman,serif" font-size="14.00">id :integer</text>
<text text-anchor="start" x="90.9656" y="-82.4" font-family="Times Roman,serif" font-size="14.00">user_id :integer</text>
<text text-anchor="start" x="90.9656" y="-64.4" font-family="Times Roman,serif" font-size="14.00">topic_id :integer</text>
<text text-anchor="start" x="90.9656" y="-46.4" font-family="Times Roman,serif" font-size="14.00">feed_id :integer</text>
<text text-anchor="start" x="90.9656" y="-28.4" font-family="Times Roman,serif" font-size="14.00">created_at :datetime</text>
<text text-anchor="start" x="90.9656" y="-10.4" font-family="Times Roman,serif" font-size="14.00">updated_at :datetime</text>
</g>
<!-- Category -->
<g id="node3" class="node"><title>Category</title>
<polyline fill="none" stroke="black" points="278.966,-10 419.966,-10 "/>
<path fill="none" stroke="black" d="M419.966,-10C425.966,-10 431.966,-16 431.966,-22"/>
<polyline fill="none" stroke="black" points="431.966,-22 431.966,-122 "/>
<path fill="none" stroke="black" d="M431.966,-122C431.966,-128 425.966,-134 419.966,-134"/>
<polyline fill="none" stroke="black" points="419.966,-134 278.966,-134 "/>
<path fill="none" stroke="black" d="M278.966,-134C272.966,-134 266.966,-128 266.966,-122"/>
<polyline fill="none" stroke="black" points="266.966,-122 266.966,-22 "/>
<path fill="none" stroke="black" d="M266.966,-22C266.966,-16 272.966,-10 278.966,-10"/>
<text text-anchor="middle" x="349.466" y="-117.4" font-family="Times Roman,serif" font-size="14.00">Category</text>
<polyline fill="none" stroke="black" points="266.966,-108 431.966,-108 "/>
<text text-anchor="start" x="274.966" y="-91.4" font-family="Times Roman,serif" font-size="14.00">id :integer</text>
<text text-anchor="start" x="274.966" y="-73.4" font-family="Times Roman,serif" font-size="14.00">topic_id :integer</text>
<text text-anchor="start" x="274.966" y="-55.4" font-family="Times Roman,serif" font-size="14.00">post_id :integer</text>
<text text-anchor="start" x="274.966" y="-37.4" font-family="Times Roman,serif" font-size="14.00">created_at :datetime</text>
<text text-anchor="start" x="274.966" y="-19.4" font-family="Times Roman,serif" font-size="14.00">updated_at :datetime</text>
</g>
<!-- Comment -->
<g id="node4" class="node"><title>Comment</title>
<polyline fill="none" stroke="black" points="503.966,-1 644.966,-1 "/>
<path fill="none" stroke="black" d="M644.966,-1C650.966,-1 656.966,-7 656.966,-13"/>
<polyline fill="none" stroke="black" points="656.966,-13 656.966,-131 "/>
<path fill="none" stroke="black" d="M656.966,-131C656.966,-137 650.966,-143 644.966,-143"/>
<polyline fill="none" stroke="black" points="644.966,-143 503.966,-143 "/>
<path fill="none" stroke="black" d="M503.966,-143C497.966,-143 491.966,-137 491.966,-131"/>
<polyline fill="none" stroke="black" points="491.966,-131 491.966,-13 "/>
<path fill="none" stroke="black" d="M491.966,-13C491.966,-7 497.966,-1 503.966,-1"/>
<text text-anchor="middle" x="574.466" y="-126.4" font-family="Times Roman,serif" font-size="14.00">Comment</text>
<polyline fill="none" stroke="black" points="491.966,-117 656.966,-117 "/>
<text text-anchor="start" x="499.966" y="-100.4" font-family="Times Roman,serif" font-size="14.00">id :integer</text>
<text text-anchor="start" x="499.966" y="-82.4" font-family="Times Roman,serif" font-size="14.00">post_id :integer</text>
<text text-anchor="start" x="499.966" y="-64.4" font-family="Times Roman,serif" font-size="14.00">user_id :integer</text>
<text text-anchor="start" x="499.966" y="-46.4" font-family="Times Roman,serif" font-size="14.00">content :text</text>
<text text-anchor="start" x="499.966" y="-28.4" font-family="Times Roman,serif" font-size="14.00">created_at :datetime</text>
<text text-anchor="start" x="499.966" y="-10.4" font-family="Times Roman,serif" font-size="14.00">updated_at :datetime</text>
</g>
<!-- Post -->
<g id="node5" class="node"><title>Post</title>
<polyline fill="none" stroke="black" points="538.966,-181 679.966,-181 "/>
<path fill="none" stroke="black" d="M679.966,-181C685.966,-181 691.966,-187 691.966,-193"/>
<polyline fill="none" stroke="black" points="691.966,-193 691.966,-293 "/>
<path fill="none" stroke="black" d="M691.966,-293C691.966,-299 685.966,-305 679.966,-305"/>
<polyline fill="none" stroke="black" points="679.966,-305 538.966,-305 "/>
<path fill="none" stroke="black" d="M538.966,-305C532.966,-305 526.966,-299 526.966,-293"/>
<polyline fill="none" stroke="black" points="526.966,-293 526.966,-193 "/>
<path fill="none" stroke="black" d="M526.966,-193C526.966,-187 532.966,-181 538.966,-181"/>
<text text-anchor="middle" x="609.466" y="-288.4" font-family="Times Roman,serif" font-size="14.00">Post</text>
<polyline fill="none" stroke="black" points="526.966,-279 691.966,-279 "/>
<text text-anchor="start" x="534.966" y="-262.4" font-family="Times Roman,serif" font-size="14.00">id :integer</text>
<text text-anchor="start" x="534.966" y="-244.4" font-family="Times Roman,serif" font-size="14.00">title :text</text>
<text text-anchor="start" x="534.966" y="-226.4" font-family="Times Roman,serif" font-size="14.00">content :text</text>
<text text-anchor="start" x="534.966" y="-208.4" font-family="Times Roman,serif" font-size="14.00">created_at :datetime</text>
<text text-anchor="start" x="534.966" y="-190.4" font-family="Times Roman,serif" font-size="14.00">updated_at :datetime</text>
</g>
<!-- Post&#45;&gt;Category -->
<g id="edge14" class="edge"><title>Post&#45;&gt;Category</title>
<path fill="none" stroke="#f608c3" d="M520.06,-184.199C494.502,-167.389 466.617,-149.05 440.937,-132.16"/>
<ellipse fill="none" stroke="#f608c3" cx="523.501" cy="-186.462" rx="4.00002" ry="4.00002"/>
<polygon fill="#f608c3" stroke="#f608c3" points="440.675,-131.987 434.792,-122.733 436.497,-129.24 432.32,-126.492 432.32,-126.492 432.32,-126.492 436.497,-129.24 429.847,-130.252 440.675,-131.987 440.675,-131.987"/>
</g>
<!-- Post&#45;&gt;Comment -->
<g id="edge12" class="edge"><title>Post&#45;&gt;Comment</title>
<path fill="none" stroke="#f278c7" d="M595.071,-172.673C593.762,-166.279 592.43,-159.768 591.104,-153.29"/>
<ellipse fill="none" stroke="#f278c7" cx="595.929" cy="-176.863" rx="4.00001" ry="4.00001"/>
<polygon fill="#f278c7" stroke="#f278c7" points="591.035,-152.954 593.439,-142.255 590.033,-148.056 589.03,-143.157 589.03,-143.157 589.03,-143.157 590.033,-148.056 584.621,-144.06 591.035,-152.954 591.035,-152.954"/>
</g>
<!-- Topic -->
<g id="node6" class="node"><title>Topic</title>
<polyline fill="none" stroke="black" points="373.966,-649 514.966,-649 "/>
<path fill="none" stroke="black" d="M514.966,-649C520.966,-649 526.966,-655 526.966,-661"/>
<polyline fill="none" stroke="black" points="526.966,-661 526.966,-779 "/>
<path fill="none" stroke="black" d="M526.966,-779C526.966,-785 520.966,-791 514.966,-791"/>
<polyline fill="none" stroke="black" points="514.966,-791 373.966,-791 "/>
<path fill="none" stroke="black" d="M373.966,-791C367.966,-791 361.966,-785 361.966,-779"/>
<polyline fill="none" stroke="black" points="361.966,-779 361.966,-661 "/>
<path fill="none" stroke="black" d="M361.966,-661C361.966,-655 367.966,-649 373.966,-649"/>
<text text-anchor="middle" x="444.466" y="-774.4" font-family="Times Roman,serif" font-size="14.00">Topic</text>
<polyline fill="none" stroke="black" points="361.966,-765 526.966,-765 "/>
<text text-anchor="start" x="369.966" y="-748.4" font-family="Times Roman,serif" font-size="14.00">id :integer</text>
<text text-anchor="start" x="369.966" y="-730.4" font-family="Times Roman,serif" font-size="14.00">user_id :integer</text>
<text text-anchor="start" x="369.966" y="-712.4" font-family="Times Roman,serif" font-size="14.00">name :string</text>
<text text-anchor="start" x="369.966" y="-694.4" font-family="Times Roman,serif" font-size="14.00">topic_type :string</text>
<text text-anchor="start" x="369.966" y="-676.4" font-family="Times Roman,serif" font-size="14.00">created_at :datetime</text>
<text text-anchor="start" x="369.966" y="-658.4" font-family="Times Roman,serif" font-size="14.00">updated_at :datetime</text>
</g>
<!-- Post&#45;&gt;Topic -->
<g id="edge16" class="edge"><title>Post&#45;&gt;Topic</title>
<path fill="none" stroke="#3fd52b" d="M657.77,-314.107C662.133,-323.184 665.876,-332.596 668.466,-342 700.325,-457.693 732.286,-510.378 668.466,-612 639.574,-658.005 584.966,-684.877 536.902,-700.311"/>
<polygon fill="#3fd52b" stroke="#3fd52b" points="657.751,-314.069 657.232,-303.116 655.485,-309.612 653.22,-305.155 653.22,-305.155 653.22,-305.155 655.485,-309.612 649.208,-307.194 657.751,-314.069 657.751,-314.069"/>
<polygon fill="#3fd52b" stroke="#3fd52b" points="536.629,-700.395 525.747,-699.04 531.851,-701.867 527.072,-703.34 527.072,-703.34 527.072,-703.34 531.851,-701.867 528.398,-707.64 536.629,-700.395 536.629,-700.395"/>
</g>
<!-- User -->
<g id="node8" class="node"><title>User</title>
<polyline fill="none" stroke="black" points="351.466,-343 647.466,-343 "/>
<path fill="none" stroke="black" d="M647.466,-343C653.466,-343 659.466,-349 659.466,-355"/>
<polyline fill="none" stroke="black" points="659.466,-355 659.466,-599 "/>
<path fill="none" stroke="black" d="M659.466,-599C659.466,-605 653.466,-611 647.466,-611"/>
<polyline fill="none" stroke="black" points="647.466,-611 351.466,-611 "/>
<path fill="none" stroke="black" d="M351.466,-611C345.466,-611 339.466,-605 339.466,-599"/>
<polyline fill="none" stroke="black" points="339.466,-599 339.466,-355 "/>
<path fill="none" stroke="black" d="M339.466,-355C339.466,-349 345.466,-343 351.466,-343"/>
<text text-anchor="middle" x="499.466" y="-594.4" font-family="Times Roman,serif" font-size="14.00">User</text>
<polyline fill="none" stroke="black" points="339.466,-585 659.466,-585 "/>
<text text-anchor="start" x="347.466" y="-568.4" font-family="Times Roman,serif" font-size="14.00">id :integer</text>
<text text-anchor="start" x="347.466" y="-550.4" font-family="Times Roman,serif" font-size="14.00">username :string</text>
<text text-anchor="start" x="347.466" y="-532.4" font-family="Times Roman,serif" font-size="14.00">email :string</text>
<text text-anchor="start" x="347.466" y="-514.4" font-family="Times Roman,serif" font-size="14.00">crypted_password :string</text>
<text text-anchor="start" x="347.466" y="-496.4" font-family="Times Roman,serif" font-size="14.00">salt :string</text>
<text text-anchor="start" x="347.466" y="-478.4" font-family="Times Roman,serif" font-size="14.00">name :string</text>
<text text-anchor="start" x="347.466" y="-460.4" font-family="Times Roman,serif" font-size="14.00">created_at :datetime</text>
<text text-anchor="start" x="347.466" y="-442.4" font-family="Times Roman,serif" font-size="14.00">updated_at :datetime</text>
<text text-anchor="start" x="347.466" y="-424.4" font-family="Times Roman,serif" font-size="14.00">remember_me_token :string</text>
<text text-anchor="start" x="347.466" y="-406.4" font-family="Times Roman,serif" font-size="14.00">remember_me_token_expires_at :datetime</text>
<text text-anchor="start" x="347.466" y="-388.4" font-family="Times Roman,serif" font-size="14.00">reset_password_token :string</text>
<text text-anchor="start" x="347.466" y="-370.4" font-family="Times Roman,serif" font-size="14.00">reset_password_token_expires_at :datetime</text>
<text text-anchor="start" x="347.466" y="-352.4" font-family="Times Roman,serif" font-size="14.00">reset_password_email_sent_at :datetime</text>
</g>
<!-- Post&#45;&gt;User -->
<g id="edge8" class="edge"><title>Post&#45;&gt;User</title>
<path fill="none" stroke="#c82d70" d="M582.01,-314.765C579.244,-320.934 576.357,-327.302 573.387,-333.782"/>
<polygon fill="#c82d70" stroke="#c82d70" points="582.181,-314.382 590.36,-307.078 584.215,-309.814 586.249,-305.247 586.249,-305.247 586.249,-305.247 584.215,-309.814 582.138,-303.416 582.181,-314.382 582.181,-314.382"/>
<polygon fill="#c82d70" stroke="#c82d70" points="573.364,-333.832 565.095,-341.034 571.273,-338.374 569.182,-342.916 569.182,-342.916 569.182,-342.916 571.273,-338.374 573.27,-344.798 573.364,-333.832 573.364,-333.832"/>
</g>
<!-- Favor -->
<g id="node9" class="node"><title>Favor</title>
<polyline fill="none" stroke="black" points="685.966,-10 826.966,-10 "/>
<path fill="none" stroke="black" d="M826.966,-10C832.966,-10 838.966,-16 838.966,-22"/>
<polyline fill="none" stroke="black" points="838.966,-22 838.966,-122 "/>
<path fill="none" stroke="black" d="M838.966,-122C838.966,-128 832.966,-134 826.966,-134"/>
<polyline fill="none" stroke="black" points="826.966,-134 685.966,-134 "/>
<path fill="none" stroke="black" d="M685.966,-134C679.966,-134 673.966,-128 673.966,-122"/>
<polyline fill="none" stroke="black" points="673.966,-122 673.966,-22 "/>
<path fill="none" stroke="black" d="M673.966,-22C673.966,-16 679.966,-10 685.966,-10"/>
<text text-anchor="middle" x="756.466" y="-117.4" font-family="Times Roman,serif" font-size="14.00">Favor</text>
<polyline fill="none" stroke="black" points="673.966,-108 838.966,-108 "/>
<text text-anchor="start" x="681.966" y="-91.4" font-family="Times Roman,serif" font-size="14.00">id :integer</text>
<text text-anchor="start" x="681.966" y="-73.4" font-family="Times Roman,serif" font-size="14.00">user_id :integer</text>
<text text-anchor="start" x="681.966" y="-55.4" font-family="Times Roman,serif" font-size="14.00">post_id :integer</text>
<text text-anchor="start" x="681.966" y="-37.4" font-family="Times Roman,serif" font-size="14.00">created_at :datetime</text>
<text text-anchor="start" x="681.966" y="-19.4" font-family="Times Roman,serif" font-size="14.00">updated_at :datetime</text>
</g>
<!-- Post&#45;&gt;Favor -->
<g id="edge10" class="edge"><title>Post&#45;&gt;Favor</title>
<path fill="none" stroke="#429a30" d="M668.196,-174.68C677.451,-163.915 687.032,-152.77 696.318,-141.967"/>
<ellipse fill="none" stroke="#429a30" cx="665.559" cy="-177.748" rx="4.00002" ry="4.00002"/>
<polygon fill="#429a30" stroke="#429a30" points="696.5,-141.756 706.432,-137.106 699.76,-137.964 703.019,-134.172 703.019,-134.172 703.019,-134.172 699.76,-137.964 699.607,-131.239 696.5,-141.756 696.5,-141.756"/>
</g>
<!-- Topic&#45;&gt;Followship -->
<g id="edge20" class="edge"><title>Topic&#45;&gt;Followship</title>
<path fill="none" stroke="#80a675" d="M355.619,-658.445C341.194,-644.722 327.912,-629.102 318.466,-612 224.625,-442.097 333.284,-357.372 254.466,-180 250.122,-170.226 244.641,-160.619 238.541,-151.412"/>
<ellipse fill="none" stroke="#80a675" cx="358.923" cy="-661.496" rx="4.00002" ry="4.00002"/>
<polygon fill="#80a675" stroke="#80a675" points="238.465,-151.302 236.482,-140.517 235.622,-147.188 232.78,-143.075 232.78,-143.075 232.78,-143.075 235.622,-147.188 229.078,-145.633 238.465,-151.302 238.465,-151.302"/>
</g>
<!-- Topic&#45;&gt;Category -->
<g id="edge24" class="edge"><title>Topic&#45;&gt;Category</title>
<path fill="none" stroke="#a7e51c" d="M356.297,-651.86C345.816,-639.772 336.658,-626.396 330.466,-612 312.475,-570.175 332.699,-281.223 343.522,-144.024"/>
<ellipse fill="none" stroke="#a7e51c" cx="359.211" cy="-655.092" rx="4.00002" ry="4.00002"/>
<polygon fill="#a7e51c" stroke="#a7e51c" points="343.526,-143.984 348.803,-134.371 343.921,-138.999 344.317,-134.015 344.317,-134.015 344.317,-134.015 343.921,-138.999 339.831,-133.659 343.526,-143.984 343.526,-143.984"/>
</g>
<!-- Topic&#45;&gt;User -->
<g id="edge22" class="edge"><title>Topic&#45;&gt;User</title>
<path fill="none" stroke="#3b052b" d="M456.434,-638.806C457.628,-633.087 458.875,-627.234 460.161,-621.305"/>
<polygon fill="#3b052b" stroke="#3b052b" points="456.407,-638.94 449.98,-647.825 455.397,-643.837 454.387,-648.734 454.387,-648.734 454.387,-648.734 455.397,-643.837 458.794,-649.643 456.407,-638.94 456.407,-638.94"/>
<polygon fill="#3b052b" stroke="#3b052b" points="460.22,-621.036 466.755,-612.23 461.289,-616.152 462.359,-611.268 462.359,-611.268 462.359,-611.268 461.289,-616.152 457.963,-610.305 460.22,-621.036 460.22,-621.036"/>
</g>
<!-- Feed -->
<g id="node7" class="node"><title>Feed</title>
<polyline fill="none" stroke="black" points="92.9656,-181 233.966,-181 "/>
<path fill="none" stroke="black" d="M233.966,-181C239.966,-181 245.966,-187 245.966,-193"/>
<polyline fill="none" stroke="black" points="245.966,-193 245.966,-293 "/>
<path fill="none" stroke="black" d="M245.966,-293C245.966,-299 239.966,-305 233.966,-305"/>
<polyline fill="none" stroke="black" points="233.966,-305 92.9656,-305 "/>
<path fill="none" stroke="black" d="M92.9656,-305C86.9656,-305 80.9656,-299 80.9656,-293"/>
<polyline fill="none" stroke="black" points="80.9656,-293 80.9656,-193 "/>
<path fill="none" stroke="black" d="M80.9656,-193C80.9656,-187 86.9656,-181 92.9656,-181"/>
<text text-anchor="middle" x="163.466" y="-288.4" font-family="Times Roman,serif" font-size="14.00">Feed</text>
<polyline fill="none" stroke="black" points="80.9656,-279 245.966,-279 "/>
<text text-anchor="start" x="88.9656" y="-262.4" font-family="Times Roman,serif" font-size="14.00">id :integer</text>
<text text-anchor="start" x="88.9656" y="-244.4" font-family="Times Roman,serif" font-size="14.00">user_id :integer</text>
<text text-anchor="start" x="88.9656" y="-226.4" font-family="Times Roman,serif" font-size="14.00">name :string</text>
<text text-anchor="start" x="88.9656" y="-208.4" font-family="Times Roman,serif" font-size="14.00">created_at :datetime</text>
<text text-anchor="start" x="88.9656" y="-190.4" font-family="Times Roman,serif" font-size="14.00">updated_at :datetime</text>
</g>
<!-- Feed&#45;&gt;Followship -->
<g id="edge28" class="edge"><title>Feed&#45;&gt;Followship</title>
<path fill="none" stroke="#ed448e" d="M164.288,-172.673C164.363,-166.279 164.439,-159.768 164.515,-153.29"/>
<ellipse fill="none" stroke="#ed448e" cx="164.24" cy="-176.782" rx="4" ry="4"/>
<polygon fill="#ed448e" stroke="#ed448e" points="164.516,-153.157 169.133,-143.21 164.575,-148.157 164.633,-143.157 164.633,-143.157 164.633,-143.157 164.575,-148.157 160.134,-143.105 164.516,-153.157 164.516,-153.157"/>
</g>
<!-- User&#45;&gt;Followship -->
<g id="edge34" class="edge"><title>User&#45;&gt;Followship</title>
<path fill="none" stroke="#a5d02a" d="M408.475,-335.893C373.08,-284.838 330.672,-227.984 287.466,-180 277.606,-169.05 266.707,-158.085 255.601,-147.564"/>
<ellipse fill="none" stroke="#a5d02a" cx="410.927" cy="-339.442" rx="4.00002" ry="4.00002"/>
<polygon fill="#a5d02a" stroke="#a5d02a" points="255.585,-147.549 251.355,-137.432 251.934,-144.134 248.282,-140.719 248.282,-140.719 248.282,-140.719 251.934,-144.134 245.208,-144.005 255.585,-147.549 255.585,-147.549"/>
</g>
<!-- User&#45;&gt;Comment -->
<g id="edge42" class="edge"><title>User&#45;&gt;Comment</title>
<path fill="none" stroke="#44a37d" d="M496.683,-334.488C498.823,-284.853 504.768,-229.277 518.466,-180 521.005,-170.863 524.377,-161.608 528.211,-152.559"/>
<ellipse fill="none" stroke="#44a37d" cx="496.517" cy="-338.724" rx="4" ry="4"/>
<polygon fill="#44a37d" stroke="#44a37d" points="528.301,-152.356 536.471,-145.041 530.329,-147.786 532.357,-143.216 532.357,-143.216 532.357,-143.216 530.329,-147.786 528.244,-141.39 528.301,-152.356 528.301,-152.356"/>
</g>
<!-- User&#45;&gt;Post -->
<g id="edge38" class="edge"><title>User&#45;&gt;Post</title>
<path fill="none" stroke="#4a5b5a" d="M559.319,-335.599C562.795,-328.371 566.247,-321.274 569.618,-314.424"/>
<ellipse fill="none" stroke="#4a5b5a" cx="557.54" cy="-339.309" rx="4.00002" ry="4.00002"/>
<polygon fill="#4a5b5a" stroke="#4a5b5a" points="569.724,-314.209 578.193,-307.243 571.942,-309.728 574.16,-305.247 574.16,-305.247 574.16,-305.247 571.942,-309.728 570.126,-303.251 569.724,-314.209 569.724,-314.209"/>
</g>
<!-- User&#45;&gt;Topic -->
<g id="edge32" class="edge"><title>User&#45;&gt;Topic</title>
<path fill="none" stroke="#7788f7" d="M473.958,-619.133C472.391,-625.804 470.816,-632.39 469.251,-638.806"/>
<ellipse fill="none" stroke="#7788f7" cx="474.884" cy="-615.163" rx="4.00001" ry="4.00001"/>
<polygon fill="#7788f7" stroke="#7788f7" points="469.197,-639.024 462.435,-647.657 468.001,-643.879 466.804,-648.734 466.804,-648.734 466.804,-648.734 468.001,-643.879 471.174,-649.811 469.197,-639.024 469.197,-639.024"/>
</g>
<!-- User&#45;&gt;Feed -->
<g id="edge40" class="edge"><title>User&#45;&gt;Feed</title>
<path fill="none" stroke="#43f264" d="M332.524,-360.737C305.65,-342.021 278.74,-323.28 254.545,-306.43"/>
<ellipse fill="none" stroke="#43f264" cx="336.056" cy="-363.197" rx="4.00002" ry="4.00002"/>
<polygon fill="#43f264" stroke="#43f264" points="254.31,-306.267 248.676,-296.859 250.207,-303.409 246.104,-300.552 246.104,-300.552 246.104,-300.552 250.207,-303.409 243.532,-304.245 254.31,-306.267 254.31,-306.267"/>
</g>
<!-- User&#45;&gt;Favor -->
<g id="edge36" class="edge"><title>User&#45;&gt;Favor</title>
<path fill="none" stroke="#9d7dd4" d="M665.328,-352.222C678.483,-337.697 690.506,-322.23 700.466,-306 730.551,-256.972 744.473,-192.982 750.916,-144.313"/>
<ellipse fill="none" stroke="#9d7dd4" cx="662.34" cy="-355.452" rx="4.00002" ry="4.00002"/>
<polygon fill="#9d7dd4" stroke="#9d7dd4" points="750.943,-144.094 756.646,-134.727 751.562,-139.132 752.18,-134.171 752.18,-134.171 752.18,-134.171 751.562,-139.132 747.715,-133.614 750.943,-144.094 750.943,-144.094"/>
</g>
<!-- ActiveRecord::Base -->
<g id="node10" class="node"><title>ActiveRecord::Base</title>
<ellipse fill="none" stroke="black" cx="499.466" cy="-875" rx="104.151" ry="18.3848"/>
<text text-anchor="middle" x="499.466" y="-871.4" font-family="Times Roman,serif" font-size="14.00">ActiveRecord::Base</text>
</g>
<!-- ActiveRecord::Base&#45;&gt;Followship -->
<g id="edge2" class="edge"><title>ActiveRecord::Base&#45;&gt;Followship</title>
<path fill="none" stroke="black" d="M463.88,-857.55C442.02,-847.505 413.177,-835.437 386.466,-828 334.511,-813.536 184.642,-830.092 146.466,-792 -47.4826,-598.481 -22.8844,-436.854 72.4656,-180 77.2448,-167.126 84.3229,-154.758 92.4784,-143.281"/>
</g>
<!-- ActiveRecord::Base&#45;&gt;Category -->
<g id="edge4" class="edge"><title>ActiveRecord::Base&#45;&gt;Category</title>
<path fill="none" stroke="black" d="M448.905,-858.757C416.653,-845.774 376.686,-824.323 353.466,-792 208.698,-590.48 286.028,-268.588 328.07,-134.154"/>
</g>
<!-- ActiveRecord::Base&#45;&gt;Comment -->
<g id="edge6" class="edge"><title>ActiveRecord::Base&#45;&gt;Comment</title>
<path fill="none" stroke="black" d="M545.906,-858.275C578.197,-844.654 620.33,-822.647 648.466,-792 707.794,-727.377 711.056,-697.773 729.466,-612 769.848,-423.853 796.023,-347.029 700.466,-180 697.068,-174.061 678.84,-157.657 657.257,-139.373"/>
</g>
<!-- ActiveRecord::Base&#45;&gt;Post -->
<g id="edge18" class="edge"><title>ActiveRecord::Base&#45;&gt;Post</title>
<path fill="none" stroke="black" d="M520.791,-856.619C564.712,-817.173 664.179,-719.238 700.466,-612 738.928,-498.331 744.045,-453.807 700.466,-342 695.336,-328.84 687.549,-316.371 678.646,-305.002"/>
</g>
<!-- ActiveRecord::Base&#45;&gt;Topic -->
<g id="edge26" class="edge"><title>ActiveRecord::Base&#45;&gt;Topic</title>
<path fill="none" stroke="black" d="M492.831,-856.303C487.031,-839.958 478.228,-815.147 469.714,-791.153"/>
</g>
<!-- ActiveRecord::Base&#45;&gt;Feed -->
<g id="edge30" class="edge"><title>ActiveRecord::Base&#45;&gt;Feed</title>
<path fill="none" stroke="black" d="M462.425,-857.615C440.661,-847.904 412.411,-836.154 386.466,-828 314.86,-805.497 271.554,-847.901 221.466,-792 99.464,-655.842 127.072,-417.787 149.071,-305.28"/>
</g>
<!-- ActiveRecord::Base&#45;&gt;User -->
<g id="edge44" class="edge"><title>ActiveRecord::Base&#45;&gt;User</title>
<path fill="none" stroke="black" d="M510.234,-856.285C518.987,-839.927 530.646,-815.222 535.466,-792 547.657,-733.254 542.94,-667.428 533.503,-611.201"/>
</g>
<!-- ActiveRecord::Base&#45;&gt;Favor -->
<g id="edge46" class="edge"><title>ActiveRecord::Base&#45;&gt;Favor</title>
<path fill="none" stroke="black" d="M569.003,-861.146C611.533,-849.364 664.177,-828.354 698.466,-792 756.621,-730.34 747.265,-695.56 761.466,-612 790.525,-441.007 774.973,-235.147 764.112,-134.112"/>
</g>
</g>
</svg>
