<?xml version="1.0" encoding="UTF-8" standalone="no"?>
<!DOCTYPE svg PUBLIC "-//W3C//DTD SVG 1.1//EN"
 "http://www.w3.org/Graphics/SVG/1.1/DTD/svg11.dtd">
<!-- Generated by graphviz version 2.26.3 (20100126.1600)
 -->
<!-- Title: models_diagram Pages: 1 -->
<svg width="929pt" height="498pt"
 viewBox="0.00 0.00 929.00 498.00" xmlns="http://www.w3.org/2000/svg" xmlns:xlink="http://www.w3.org/1999/xlink">
<g id="graph1" class="graph" transform="scale(1 1) rotate(0) translate(4 494)">
<title>models_diagram</title>
<polygon fill="white" stroke="white" points="-4,5 -4,-494 926,-494 926,5 -4,5"/>
<!-- _diagram_info -->
<g id="node1" class="node"><title>_diagram_info</title>
<text text-anchor="start" x="377" y="-473.8" font-family="Times Roman,serif" font-size="13.00">Models diagram</text>
<text text-anchor="start" x="377" y="-456.8" font-family="Times Roman,serif" font-size="13.00">Date: Dec 09 2013 &#45; 01:48</text>
<text text-anchor="start" x="377" y="-439.8" font-family="Times Roman,serif" font-size="13.00">Migration version: 20131208233748</text>
<text text-anchor="start" x="377" y="-422.8" font-family="Times Roman,serif" font-size="13.00">Generated by RailRoady 1.1.1</text>
<text text-anchor="start" x="377" y="-405.8" font-family="Times Roman,serif" font-size="13.00">http://railroady.prestonlee.com</text>
</g>
<!-- Followship -->
<g id="node2" class="node"><title>Followship</title>
<ellipse fill="none" stroke="black" cx="739" cy="-95" rx="62.9325" ry="18.3848"/>
<text text-anchor="middle" x="739" y="-91.4" font-family="Times Roman,serif" font-size="14.00">Followship</text>
</g>
<!-- Category -->
<g id="node3" class="node"><title>Category</title>
<ellipse fill="none" stroke="black" cx="845" cy="-19" rx="56.0679" ry="18.3848"/>
<text text-anchor="middle" x="845" y="-15.4" font-family="Times Roman,serif" font-size="14.00">Category</text>
</g>
<!-- Comment -->
<g id="node4" class="node"><title>Comment</title>
<ellipse fill="none" stroke="black" cx="110" cy="-19" rx="58.1882" ry="18.3848"/>
<text text-anchor="middle" x="110" y="-15.4" font-family="Times Roman,serif" font-size="14.00">Comment</text>
</g>
<!-- Post -->
<g id="node5" class="node"><title>Post</title>
<ellipse fill="none" stroke="black" cx="366" cy="-95" rx="32.0265" ry="18.3848"/>
<text text-anchor="middle" x="366" y="-91.4" font-family="Times Roman,serif" font-size="14.00">Post</text>
</g>
<!-- Post&#45;&gt;Category -->
<g id="edge12" class="edge"><title>Post&#45;&gt;Category</title>
<path fill="none" stroke="#0931d0" d="M405.021,-88.8087C488.399,-75.5796 684.439,-44.4752 784.274,-28.635"/>
<ellipse fill="none" stroke="#0931d0" cx="401.01" cy="-89.4451" rx="4.00001" ry="4.00001"/>
<polygon fill="#0931d0" stroke="#0931d0" points="784.335,-28.6255 794.916,-31.5028 789.273,-27.8419 794.211,-27.0584 794.211,-27.0584 794.211,-27.0584 789.273,-27.8419 793.506,-22.614 784.335,-28.6255 784.335,-28.6255"/>
</g>
<!-- Post&#45;&gt;Comment -->
<g id="edge10" class="edge"><title>Post&#45;&gt;Comment</title>
<path fill="none" stroke="#ca8d6c" d="M329.386,-84.1303C285.646,-71.1448 212.152,-49.3265 162.403,-34.5571"/>
<ellipse fill="none" stroke="#ca8d6c" cx="333.297" cy="-85.2911" rx="4.00001" ry="4.00001"/>
<polygon fill="#ca8d6c" stroke="#ca8d6c" points="162.372,-34.548 154.066,-27.3881 157.579,-33.125 152.786,-31.702 152.786,-31.702 152.786,-31.702 157.579,-33.125 151.505,-36.0159 162.372,-34.548 162.372,-34.548"/>
</g>
<!-- Topic -->
<g id="node6" class="node"><title>Topic</title>
<ellipse fill="none" stroke="black" cx="621" cy="-339" rx="34.8574" ry="18.3848"/>
<text text-anchor="middle" x="621" y="-335.4" font-family="Times Roman,serif" font-size="14.00">Topic</text>
</g>
<!-- Post&#45;&gt;Topic -->
<g id="edge14" class="edge"><title>Post&#45;&gt;Topic</title>
<path fill="none" stroke="#37af55" d="M323.668,-98.0425C253.07,-104.934 122.625,-126.437 161,-190 223.089,-292.842 292.017,-267.208 407,-302 464.131,-319.287 532.439,-329.343 576.253,-334.5"/>
<polygon fill="#37af55" stroke="#37af55" points="324.078,-98.005 334.447,-101.574 329.057,-97.549 334.036,-97.093 334.036,-97.093 334.036,-97.093 329.057,-97.549 333.626,-92.6118 324.078,-98.005 324.078,-98.005"/>
<polygon fill="#37af55" stroke="#37af55" points="576.364,-334.513 585.789,-340.118 581.332,-335.08 586.3,-335.647 586.3,-335.647 586.3,-335.647 581.332,-335.08 586.81,-331.176 576.364,-334.513 576.364,-334.513"/>
</g>
<!-- User -->
<g id="node8" class="node"><title>User</title>
<ellipse fill="none" stroke="black" cx="453" cy="-247" rx="33.9411" ry="18.3848"/>
<text text-anchor="middle" x="453" y="-243.4" font-family="Times Roman,serif" font-size="14.00">User</text>
</g>
<!-- Post&#45;&gt;User -->
<g id="edge16" class="edge"><title>Post&#45;&gt;User</title>
<path fill="none" stroke="#dc7fd9" d="M405.829,-104.804C420.174,-110.383 435.022,-118.961 444,-132 461.39,-157.257 461.197,-193.444 458.233,-218.449"/>
<polygon fill="#dc7fd9" stroke="#dc7fd9" points="405.5,-104.69 397.535,-97.1534 400.778,-103.047 396.056,-101.403 396.056,-101.403 396.056,-101.403 400.778,-103.047 394.577,-105.654 405.5,-104.69 405.5,-104.69"/>
<polygon fill="#dc7fd9" stroke="#dc7fd9" points="458.224,-218.513 452.38,-227.792 457.53,-223.464 456.836,-228.416 456.836,-228.416 456.836,-228.416 457.53,-223.464 461.293,-229.041 458.224,-218.513 458.224,-218.513"/>
<text text-anchor="middle" x="510.5" y="-167.4" font-family="Times Roman,serif" font-size="14.00">favoring_users</text>
</g>
<!-- Favor -->
<g id="node9" class="node"><title>Favor</title>
<ellipse fill="none" stroke="black" cx="605" cy="-19" rx="38.1838" ry="18.3848"/>
<text text-anchor="middle" x="605" y="-15.4" font-family="Times Roman,serif" font-size="14.00">Favor</text>
</g>
<!-- Post&#45;&gt;Favor -->
<g id="edge8" class="edge"><title>Post&#45;&gt;Favor</title>
<path fill="none" stroke="#870c29" d="M402.062,-83.5326C445.314,-69.7789 517.676,-46.7682 563.293,-32.2626"/>
<ellipse fill="none" stroke="#870c29" cx="398.167" cy="-84.7712" rx="4.00001" ry="4.00001"/>
<polygon fill="#870c29" stroke="#870c29" points="563.35,-32.2444 574.244,-33.5023 568.115,-30.7292 572.88,-29.2139 572.88,-29.2139 572.88,-29.2139 568.115,-30.7292 571.516,-24.9255 563.35,-32.2444 563.35,-32.2444"/>
</g>
<!-- Topic&#45;&gt;Followship -->
<g id="edge20" class="edge"><title>Topic&#45;&gt;Followship</title>
<path fill="none" stroke="#d37bdf" d="M659.083,-326.576C672.37,-320.769 686.554,-312.718 697,-302 746.145,-251.572 753.508,-222.199 748,-152 747.273,-142.739 745.893,-132.71 744.427,-123.683"/>
<ellipse fill="none" stroke="#d37bdf" cx="655.098" cy="-328.216" rx="4.00001" ry="4.00001"/>
<polygon fill="#d37bdf" stroke="#d37bdf" points="744.397,-123.508 747.136,-112.89 743.549,-118.581 742.701,-113.653 742.701,-113.653 742.701,-113.653 743.549,-118.581 738.266,-114.416 744.397,-123.508 744.397,-123.508"/>
</g>
<!-- Topic&#45;&gt;Category -->
<g id="edge22" class="edge"><title>Topic&#45;&gt;Category</title>
<path fill="none" stroke="#2ed34a" d="M660.761,-328.947C679.503,-323.011 701.528,-314.223 719,-302 736.301,-289.896 739.031,-284.042 750,-266 794.491,-192.822 824.558,-95.2567 837.618,-47.6158"/>
<ellipse fill="none" stroke="#2ed34a" cx="656.78" cy="-330.156" rx="4.00001" ry="4.00001"/>
<polygon fill="#2ed34a" stroke="#2ed34a" points="837.689,-47.3517 844.634,-38.865 838.989,-42.5235 840.289,-37.6954 840.289,-37.6954 840.289,-37.6954 838.989,-42.5235 835.943,-36.5257 837.689,-47.3517 837.689,-47.3517"/>
</g>
<!-- Topic&#45;&gt;User -->
<g id="edge24" class="edge"><title>Topic&#45;&gt;User</title>
<path fill="none" stroke="#d80ca0" d="M575.645,-337.459C521.061,-334.539 434.198,-326.129 414,-302 405.087,-291.352 412.808,-278.763 423.662,-268.318"/>
<polygon fill="#d80ca0" stroke="#d80ca0" points="575.782,-337.466 585.549,-342.453 580.776,-337.712 585.77,-337.958 585.77,-337.958 585.77,-337.958 580.776,-337.712 585.992,-333.464 575.782,-337.466 575.782,-337.466"/>
<polygon fill="#d80ca0" stroke="#d80ca0" points="423.971,-268.048 434.466,-264.872 427.74,-264.764 431.51,-261.479 431.51,-261.479 431.51,-261.479 427.74,-264.764 428.554,-258.086 423.971,-268.048 423.971,-268.048"/>
<text text-anchor="middle" x="467.5" y="-289.4" font-family="Times Roman,serif" font-size="14.00">following_users</text>
</g>
<!-- Feed -->
<g id="node7" class="node"><title>Feed</title>
<ellipse fill="none" stroke="black" cx="705" cy="-171" rx="34.1461" ry="18.3848"/>
<text text-anchor="middle" x="705" y="-167.4" font-family="Times Roman,serif" font-size="14.00">Feed</text>
</g>
<!-- Feed&#45;&gt;Followship -->
<g id="edge28" class="edge"><title>Feed&#45;&gt;Followship</title>
<path fill="none" stroke="#cb1e0f" d="M716.351,-145.626C719.667,-138.215 723.306,-130.08 726.679,-122.541"/>
<ellipse fill="none" stroke="#cb1e0f" cx="714.691" cy="-149.338" rx="4.00002" ry="4.00002"/>
<polygon fill="#cb1e0f" stroke="#cb1e0f" points="726.68,-122.538 734.872,-115.247 728.722,-117.974 730.764,-113.41 730.764,-113.41 730.764,-113.41 728.722,-117.974 726.656,-111.572 726.68,-122.538 726.68,-122.538"/>
</g>
<!-- Feed&#45;&gt;Post -->
<g id="edge32" class="edge"><title>Feed&#45;&gt;Post</title>
<path fill="none" stroke="#1a7eac" d="M663.302,-161.652C597.558,-146.913 470.657,-118.463 405.991,-103.965"/>
<polygon fill="#1a7eac" stroke="#1a7eac" points="663.654,-161.731 672.428,-168.309 668.533,-162.825 673.412,-163.918 673.412,-163.918 673.412,-163.918 668.533,-162.825 674.397,-159.527 663.654,-161.731 663.654,-161.731"/>
<polygon fill="#1a7eac" stroke="#1a7eac" points="405.923,-103.95 397.15,-97.3717 401.044,-102.857 396.165,-101.763 396.165,-101.763 396.165,-101.763 401.044,-102.857 395.181,-106.154 405.923,-103.95 405.923,-103.95"/>
</g>
<!-- Feed&#45;&gt;Topic -->
<g id="edge30" class="edge"><title>Feed&#45;&gt;Topic</title>
<path fill="none" stroke="#3c82bf" d="M705.598,-199.735C704.83,-228.068 699.879,-271.444 679,-302 673.449,-310.124 665.464,-316.851 657.186,-322.239"/>
<polygon fill="#3c82bf" stroke="#3c82bf" points="705.598,-199.67 710.212,-189.722 705.655,-194.67 705.712,-189.671 705.712,-189.671 705.712,-189.671 705.655,-194.67 701.212,-189.619 705.598,-199.67 705.598,-199.67"/>
<polygon fill="#3c82bf" stroke="#3c82bf" points="657.143,-322.265 646.247,-323.502 652.844,-324.818 648.545,-327.371 648.545,-327.371 648.545,-327.371 652.844,-324.818 650.842,-331.24 657.143,-322.265 657.143,-322.265"/>
</g>
<!-- User&#45;&gt;Followship -->
<g id="edge38" class="edge"><title>User&#45;&gt;Followship</title>
<path fill="none" stroke="#c01299" d="M494.355,-241.16C536.589,-234.608 598.746,-223.156 619,-210 645.91,-192.52 639.301,-174.682 662,-152 674.568,-139.441 690.056,-127.438 703.837,-117.713"/>
<ellipse fill="none" stroke="#c01299" cx="490.147" cy="-241.802" rx="4.00001" ry="4.00001"/>
<polygon fill="#c01299" stroke="#c01299" points="703.928,-117.651 714.714,-115.672 708.042,-114.81 712.157,-111.969 712.157,-111.969 712.157,-111.969 708.042,-114.81 709.6,-108.266 703.928,-117.651 703.928,-117.651"/>
</g>
<!-- User&#45;&gt;Comment -->
<g id="edge46" class="edge"><title>User&#45;&gt;Comment</title>
<path fill="none" stroke="#3c6c5d" d="M410.915,-245.141C337.806,-240.933 192.15,-227.89 161,-190 126.799,-148.399 115.53,-84.4448 111.819,-47.6792"/>
<ellipse fill="none" stroke="#3c6c5d" cx="415.04" cy="-245.369" rx="4" ry="4"/>
<polygon fill="#3c6c5d" stroke="#3c6c5d" points="111.812,-47.5947 115.409,-37.2356 111.369,-42.6144 110.926,-37.634 110.926,-37.634 110.926,-37.634 111.369,-42.6144 106.444,-38.0324 111.812,-47.5947 111.812,-47.5947"/>
</g>
<!-- User&#45;&gt;Post -->
<g id="edge42" class="edge"><title>User&#45;&gt;Post</title>
<path fill="none" stroke="#6192d0" d="M441.631,-221.403C432.687,-201.958 419.515,-174.77 406,-152 399.669,-141.334 391.989,-130.063 385.057,-120.384"/>
<ellipse fill="none" stroke="#6192d0" cx="443.301" cy="-225.069" rx="4.00002" ry="4.00002"/>
<polygon fill="#6192d0" stroke="#6192d0" points="384.844,-120.092 382.6,-109.359 381.903,-116.049 378.961,-112.006 378.961,-112.006 378.961,-112.006 381.903,-116.049 375.322,-114.654 384.844,-120.092 384.844,-120.092"/>
</g>
<!-- User&#45;&gt;Post -->
<g id="edge50" class="edge"><title>User&#45;&gt;Post</title>
<path fill="none" stroke="#988390" d="M409.006,-244.58C338.012,-239.654 203.165,-225.726 174,-190 129.595,-135.605 255.128,-109.771 324.085,-99.9564"/>
<polygon fill="#988390" stroke="#988390" points="409.019,-244.581 418.699,-249.733 414.008,-244.912 418.997,-245.243 418.997,-245.243 418.997,-245.243 414.008,-244.912 419.295,-240.753 409.019,-244.581 409.019,-244.581"/>
<polygon fill="#988390" stroke="#988390" points="324.319,-99.9245 334.836,-103.028 329.273,-99.2472 334.227,-98.5699 334.227,-98.5699 334.227,-98.5699 329.273,-99.2472 333.617,-94.1114 324.319,-99.9245 324.319,-99.9245"/>
<text text-anchor="middle" x="227" y="-167.4" font-family="Times Roman,serif" font-size="14.00">following_posts</text>
</g>
<!-- User&#45;&gt;Post -->
<g id="edge52" class="edge"><title>User&#45;&gt;Post</title>
<path fill="none" stroke="#098aca" d="M411.939,-237.098C371.799,-226.489 314.891,-208.645 302,-190 292.395,-176.108 295.089,-167.41 302,-152 308.893,-136.631 322.204,-123.709 334.91,-114.074"/>
<polygon fill="#098aca" stroke="#098aca" points="412.064,-237.131 420.618,-243.992 416.905,-238.383 421.745,-239.636 421.745,-239.636 421.745,-239.636 416.905,-238.383 422.872,-235.279 412.064,-237.131 412.064,-237.131"/>
<polygon fill="#098aca" stroke="#098aca" points="334.961,-114.038 345.714,-111.887 339.029,-111.132 343.098,-108.225 343.098,-108.225 343.098,-108.225 339.029,-111.132 340.482,-104.564 334.961,-114.038 334.961,-114.038"/>
<text text-anchor="middle" x="352" y="-167.4" font-family="Times Roman,serif" font-size="14.00">favoring_posts</text>
</g>
<!-- User&#45;&gt;Topic -->
<g id="edge36" class="edge"><title>User&#45;&gt;Topic</title>
<path fill="none" stroke="#311b81" d="M485.07,-263.828C496.511,-269.994 509.428,-277.144 521,-284 533.728,-291.54 536.184,-294.61 549,-302 560.817,-308.813 574.022,-315.778 585.865,-321.801"/>
<ellipse fill="none" stroke="#311b81" cx="481.319" cy="-261.819" rx="4.00002" ry="4.00002"/>
<polygon fill="#311b81" stroke="#311b81" points="586.086,-321.912 592.995,-330.428 590.552,-324.16 595.018,-326.408 595.018,-326.408 595.018,-326.408 590.552,-324.16 597.041,-322.389 586.086,-321.912 586.086,-321.912"/>
</g>
<!-- User&#45;&gt;Topic -->
<g id="edge48" class="edge"><title>User&#45;&gt;Topic</title>
<path fill="none" stroke="#de8f92" d="M492.147,-259.747C509.208,-266.011 529.121,-274.306 546,-284 557.256,-290.465 558.598,-294.235 569,-302 576.148,-307.335 583.942,-312.974 591.269,-318.197"/>
<polygon fill="#de8f92" stroke="#de8f92" points="491.895,-259.657 483.987,-252.06 487.185,-257.978 482.476,-256.299 482.476,-256.299 482.476,-256.299 487.185,-257.978 480.964,-260.537 491.895,-259.657 491.895,-259.657"/>
<polygon fill="#de8f92" stroke="#de8f92" points="591.432,-318.312 596.987,-327.767 595.511,-321.204 599.59,-324.096 599.59,-324.096 599.59,-324.096 595.511,-321.204 602.192,-320.424 591.432,-318.312 591.432,-318.312"/>
<text text-anchor="middle" x="624" y="-289.4" font-family="Times Roman,serif" font-size="14.00">following_topics</text>
</g>
<!-- User&#45;&gt;Feed -->
<g id="edge44" class="edge"><title>User&#45;&gt;Feed</title>
<path fill="none" stroke="#500424" d="M495.195,-244.964C537.074,-241.647 602.306,-232.927 654,-210 663.226,-205.908 672.306,-199.832 680.189,-193.687"/>
<ellipse fill="none" stroke="#500424" cx="491.131" cy="-245.264" rx="4" ry="4"/>
<polygon fill="#500424" stroke="#500424" points="680.195,-193.682 690.78,-190.817 684.061,-190.51 687.926,-187.338 687.926,-187.338 687.926,-187.338 684.061,-190.51 685.072,-183.86 680.195,-193.682 680.195,-193.682"/>
</g>
<!-- User&#45;&gt;Favor -->
<g id="edge40" class="edge"><title>User&#45;&gt;Favor</title>
<path fill="none" stroke="#b81ba1" d="M491.796,-236.524C516.316,-227.936 546.719,-213.317 565,-190 597.701,-148.289 604.435,-84.3743 605.389,-47.6453"/>
<ellipse fill="none" stroke="#b81ba1" cx="487.859" cy="-237.837" rx="4.00001" ry="4.00001"/>
<polygon fill="#b81ba1" stroke="#b81ba1" points="605.39,-47.6098 610.022,-37.6703 605.456,-42.6102 605.522,-37.6107 605.522,-37.6107 605.522,-37.6107 605.456,-42.6102 601.023,-37.551 605.39,-47.6098 605.39,-47.6098"/>
</g>
<!-- ActiveRecord::Base -->
<g id="node10" class="node"><title>ActiveRecord::Base</title>
<ellipse fill="none" stroke="black" cx="741" cy="-443" rx="104.151" ry="18.3848"/>
<text text-anchor="middle" x="741" y="-439.4" font-family="Times Roman,serif" font-size="14.00">ActiveRecord::Base</text>
</g>
<!-- ActiveRecord::Base&#45;&gt;Followship -->
<g id="edge2" class="edge"><title>ActiveRecord::Base&#45;&gt;Followship</title>
<path fill="none" stroke="black" d="M777.082,-425.523C807.12,-408.163 845,-378.451 845,-339 845,-339 845,-339 845,-209 845,-164.543 801.232,-130.149 769.945,-111.242"/>
</g>
<!-- ActiveRecord::Base&#45;&gt;Category -->
<g id="edge4" class="edge"><title>ActiveRecord::Base&#45;&gt;Category</title>
<path fill="none" stroke="black" d="M815.772,-430.126C865.227,-416.828 921,-390.43 921,-339 921,-339 921,-339 921,-95 921,-68.1299 896.953,-47.4418 875.912,-34.4828"/>
</g>
<!-- ActiveRecord::Base&#45;&gt;Comment -->
<g id="edge6" class="edge"><title>ActiveRecord::Base&#45;&gt;Comment</title>
<path fill="none" stroke="black" d="M707.418,-425.307C685.467,-414.691 655.81,-402.099 628,-396 559.562,-380.99 0,-409.065 0,-339 0,-339 0,-339 0,-95 0,-61.6908 34.5634,-41.8441 64.9414,-30.8335"/>
</g>
<!-- ActiveRecord::Base&#45;&gt;Post -->
<g id="edge18" class="edge"><title>ActiveRecord::Base&#45;&gt;Post</title>
<path fill="none" stroke="black" d="M706.298,-425.394C684.4,-415.092 655.207,-402.809 628,-396 564.11,-380.01 38,-404.861 38,-339 38,-339 38,-339 38,-171 38,-110.647 251.419,-98.2096 333.953,-95.6562"/>
</g>
<!-- ActiveRecord::Base&#45;&gt;Topic -->
<g id="edge26" class="edge"><title>ActiveRecord::Base&#45;&gt;Topic</title>
<path fill="none" stroke="black" d="M719.823,-424.646C697.081,-404.936 661.298,-373.925 639.603,-355.123"/>
</g>
<!-- ActiveRecord::Base&#45;&gt;Feed -->
<g id="edge34" class="edge"><title>ActiveRecord::Base&#45;&gt;Feed</title>
<path fill="none" stroke="black" d="M743.749,-424.237C747.623,-394.332 753.336,-334.119 745,-284 739.23,-249.306 723.646,-211.173 713.72,-189.261"/>
</g>
<!-- ActiveRecord::Base&#45;&gt;User -->
<g id="edge54" class="edge"><title>ActiveRecord::Base&#45;&gt;User</title>
<path fill="none" stroke="black" d="M700.201,-425.946C611.333,-388.777 408.087,-303.639 407,-302 396.954,-286.855 413.329,-271.095 429.255,-260.349"/>
</g>
<!-- ActiveRecord::Base&#45;&gt;Favor -->
<g id="edge56" class="edge"><title>ActiveRecord::Base&#45;&gt;Favor</title>
<path fill="none" stroke="black" d="M795.495,-427.236C835.54,-411.918 883,-384.225 883,-339 883,-339 883,-339 883,-133 883,-81.1617 715.437,-41.1015 640.491,-25.7764"/>
</g>
</g>
</svg>
