<?xml version="1.0" encoding="UTF-8" standalone="no"?>
<!DOCTYPE svg PUBLIC "-//W3C//DTD SVG 1.1//EN"
 "http://www.w3.org/Graphics/SVG/1.1/DTD/svg11.dtd">
<!-- Generated by graphviz version 2.26.3 (20100126.1600)
 -->
<!-- Title: models_diagram Pages: 1 -->
<svg width="748pt" height="858pt"
 viewBox="0.00 0.00 748.38 858.00" xmlns="http://www.w3.org/2000/svg" xmlns:xlink="http://www.w3.org/1999/xlink">
<g id="graph1" class="graph" transform="scale(1 1) rotate(0) translate(4 854)">
<title>models_diagram</title>
<polygon fill="white" stroke="white" points="-4,5 -4,-854 745.385,-854 745.385,5 -4,5"/>
<!-- _diagram_info -->
<g id="node1" class="node"><title>_diagram_info</title>
<text text-anchor="start" x="76.1209" y="-833.8" font-family="Times Roman,serif" font-size="13.00">Models diagram</text>
<text text-anchor="start" x="76.1209" y="-816.8" font-family="Times Roman,serif" font-size="13.00">Date: Oct 18 2013 &#45; 00:42</text>
<text text-anchor="start" x="76.1209" y="-799.8" font-family="Times Roman,serif" font-size="13.00">Migration version: 20131018004603</text>
<text text-anchor="start" x="76.1209" y="-782.8" font-family="Times Roman,serif" font-size="13.00">Generated by RailRoady 1.1.1</text>
<text text-anchor="start" x="76.1209" y="-765.8" font-family="Times Roman,serif" font-size="13.00">http://railroady.prestonlee.com</text>
</g>
<!-- User -->
<g id="node2" class="node"><title>User</title>
<polyline fill="none" stroke="black" points="348.621,-559 531.621,-559 "/>
<path fill="none" stroke="black" d="M531.621,-559C537.621,-559 543.621,-565 543.621,-571"/>
<polyline fill="none" stroke="black" points="543.621,-571 543.621,-707 "/>
<path fill="none" stroke="black" d="M543.621,-707C543.621,-713 537.621,-719 531.621,-719"/>
<polyline fill="none" stroke="black" points="531.621,-719 348.621,-719 "/>
<path fill="none" stroke="black" d="M348.621,-719C342.621,-719 336.621,-713 336.621,-707"/>
<polyline fill="none" stroke="black" points="336.621,-707 336.621,-571 "/>
<path fill="none" stroke="black" d="M336.621,-571C336.621,-565 342.621,-559 348.621,-559"/>
<text text-anchor="middle" x="440.121" y="-702.4" font-family="Times Roman,serif" font-size="14.00">User</text>
<polyline fill="none" stroke="black" points="336.621,-693 543.621,-693 "/>
<text text-anchor="start" x="344.621" y="-676.4" font-family="Times Roman,serif" font-size="14.00">id :integer</text>
<text text-anchor="start" x="344.621" y="-658.4" font-family="Times Roman,serif" font-size="14.00">username :string</text>
<text text-anchor="start" x="344.621" y="-640.4" font-family="Times Roman,serif" font-size="14.00">email :string</text>
<text text-anchor="start" x="344.621" y="-622.4" font-family="Times Roman,serif" font-size="14.00">encrypted_password :string</text>
<text text-anchor="start" x="344.621" y="-604.4" font-family="Times Roman,serif" font-size="14.00">password_salt :string</text>
<text text-anchor="start" x="344.621" y="-586.4" font-family="Times Roman,serif" font-size="14.00">created_at :datetime</text>
<text text-anchor="start" x="344.621" y="-568.4" font-family="Times Roman,serif" font-size="14.00">updated_at :datetime</text>
</g>
<!-- Favor -->
<g id="node3" class="node"><title>Favor</title>
<polyline fill="none" stroke="black" points="44.6209,-379 185.621,-379 "/>
<path fill="none" stroke="black" d="M185.621,-379C191.621,-379 197.621,-385 197.621,-391"/>
<polyline fill="none" stroke="black" points="197.621,-391 197.621,-491 "/>
<path fill="none" stroke="black" d="M197.621,-491C197.621,-497 191.621,-503 185.621,-503"/>
<polyline fill="none" stroke="black" points="185.621,-503 44.6209,-503 "/>
<path fill="none" stroke="black" d="M44.6209,-503C38.6209,-503 32.6209,-497 32.6209,-491"/>
<polyline fill="none" stroke="black" points="32.6209,-491 32.6209,-391 "/>
<path fill="none" stroke="black" d="M32.6209,-391C32.6209,-385 38.6209,-379 44.6209,-379"/>
<text text-anchor="middle" x="115.121" y="-486.4" font-family="Times Roman,serif" font-size="14.00">Favor</text>
<polyline fill="none" stroke="black" points="32.6209,-477 197.621,-477 "/>
<text text-anchor="start" x="40.6209" y="-460.4" font-family="Times Roman,serif" font-size="14.00">id :integer</text>
<text text-anchor="start" x="40.6209" y="-442.4" font-family="Times Roman,serif" font-size="14.00">user_id :integer</text>
<text text-anchor="start" x="40.6209" y="-424.4" font-family="Times Roman,serif" font-size="14.00">post_id :integer</text>
<text text-anchor="start" x="40.6209" y="-406.4" font-family="Times Roman,serif" font-size="14.00">created_at :datetime</text>
<text text-anchor="start" x="40.6209" y="-388.4" font-family="Times Roman,serif" font-size="14.00">updated_at :datetime</text>
</g>
<!-- User&#45;&gt;Favor -->
<g id="edge6" class="edge"><title>User&#45;&gt;Favor</title>
<path fill="none" stroke="#4b7b6f" d="M328.935,-590.812C288.918,-571.575 244.263,-547.843 206.121,-522 200.415,-518.134 194.687,-513.94 189.036,-509.564"/>
<ellipse fill="none" stroke="#4b7b6f" cx="332.741" cy="-592.628" rx="4.00002" ry="4.00002"/>
<polygon fill="#4b7b6f" stroke="#4b7b6f" points="188.652,-509.259 183.621,-499.515 184.737,-506.149 180.822,-503.039 180.822,-503.039 180.822,-503.039 184.737,-506.149 178.023,-506.563 188.652,-509.259 188.652,-509.259"/>
</g>
<!-- Feed -->
<g id="node4" class="node"><title>Feed</title>
<polyline fill="none" stroke="black" points="226.621,-379 367.621,-379 "/>
<path fill="none" stroke="black" d="M367.621,-379C373.621,-379 379.621,-385 379.621,-391"/>
<polyline fill="none" stroke="black" points="379.621,-391 379.621,-491 "/>
<path fill="none" stroke="black" d="M379.621,-491C379.621,-497 373.621,-503 367.621,-503"/>
<polyline fill="none" stroke="black" points="367.621,-503 226.621,-503 "/>
<path fill="none" stroke="black" d="M226.621,-503C220.621,-503 214.621,-497 214.621,-491"/>
<polyline fill="none" stroke="black" points="214.621,-491 214.621,-391 "/>
<path fill="none" stroke="black" d="M214.621,-391C214.621,-385 220.621,-379 226.621,-379"/>
<text text-anchor="middle" x="297.121" y="-486.4" font-family="Times Roman,serif" font-size="14.00">Feed</text>
<polyline fill="none" stroke="black" points="214.621,-477 379.621,-477 "/>
<text text-anchor="start" x="222.621" y="-460.4" font-family="Times Roman,serif" font-size="14.00">id :integer</text>
<text text-anchor="start" x="222.621" y="-442.4" font-family="Times Roman,serif" font-size="14.00">user_id :integer</text>
<text text-anchor="start" x="222.621" y="-424.4" font-family="Times Roman,serif" font-size="14.00">name :string</text>
<text text-anchor="start" x="222.621" y="-406.4" font-family="Times Roman,serif" font-size="14.00">created_at :datetime</text>
<text text-anchor="start" x="222.621" y="-388.4" font-family="Times Roman,serif" font-size="14.00">updated_at :datetime</text>
</g>
<!-- User&#45;&gt;Feed -->
<g id="edge10" class="edge"><title>User&#45;&gt;Feed</title>
<path fill="none" stroke="#10472b" d="M377.431,-552.198C367.546,-538.512 357.433,-524.509 347.863,-511.259"/>
<ellipse fill="none" stroke="#10472b" cx="379.822" cy="-555.509" rx="4.00002" ry="4.00002"/>
<polygon fill="#10472b" stroke="#10472b" points="347.837,-511.222 345.63,-500.481 344.909,-507.169 341.982,-503.115 341.982,-503.115 341.982,-503.115 344.909,-507.169 338.334,-505.75 347.837,-511.222 347.837,-511.222"/>
</g>
<!-- Topic -->
<g id="node5" class="node"><title>Topic</title>
<polyline fill="none" stroke="black" points="245.621,-163 386.621,-163 "/>
<path fill="none" stroke="black" d="M386.621,-163C392.621,-163 398.621,-169 398.621,-175"/>
<polyline fill="none" stroke="black" points="398.621,-175 398.621,-311 "/>
<path fill="none" stroke="black" d="M398.621,-311C398.621,-317 392.621,-323 386.621,-323"/>
<polyline fill="none" stroke="black" points="386.621,-323 245.621,-323 "/>
<path fill="none" stroke="black" d="M245.621,-323C239.621,-323 233.621,-317 233.621,-311"/>
<polyline fill="none" stroke="black" points="233.621,-311 233.621,-175 "/>
<path fill="none" stroke="black" d="M233.621,-175C233.621,-169 239.621,-163 245.621,-163"/>
<text text-anchor="middle" x="316.121" y="-306.4" font-family="Times Roman,serif" font-size="14.00">Topic</text>
<polyline fill="none" stroke="black" points="233.621,-297 398.621,-297 "/>
<text text-anchor="start" x="241.621" y="-280.4" font-family="Times Roman,serif" font-size="14.00">id :integer</text>
<text text-anchor="start" x="241.621" y="-262.4" font-family="Times Roman,serif" font-size="14.00">user_id :integer</text>
<text text-anchor="start" x="241.621" y="-244.4" font-family="Times Roman,serif" font-size="14.00">feed_id :integer</text>
<text text-anchor="start" x="241.621" y="-226.4" font-family="Times Roman,serif" font-size="14.00">name :string</text>
<text text-anchor="start" x="241.621" y="-208.4" font-family="Times Roman,serif" font-size="14.00">topic_type :integer</text>
<text text-anchor="start" x="241.621" y="-190.4" font-family="Times Roman,serif" font-size="14.00">created_at :datetime</text>
<text text-anchor="start" x="241.621" y="-172.4" font-family="Times Roman,serif" font-size="14.00">updated_at :datetime</text>
</g>
<!-- User&#45;&gt;Topic -->
<g id="edge2" class="edge"><title>User&#45;&gt;Topic</title>
<path fill="none" stroke="#5c3ef8" d="M431.773,-548.493C424.57,-492.744 411.48,-420.592 388.121,-360 384.55,-350.737 380.236,-341.393 375.517,-332.239"/>
<polygon fill="#5c3ef8" stroke="#5c3ef8" points="431.809,-548.782 428.585,-559.264 432.43,-553.744 433.051,-558.705 433.051,-558.705 433.051,-558.705 432.43,-553.744 437.516,-558.146 431.809,-548.782 431.809,-548.782"/>
<polygon fill="#5c3ef8" stroke="#5c3ef8" points="375.38,-331.982 374.644,-321.041 373.027,-327.57 370.674,-323.159 370.674,-323.159 370.674,-323.159 373.027,-327.57 366.703,-325.276 375.38,-331.982 375.38,-331.982"/>
</g>
<!-- Comment -->
<g id="node6" class="node"><title>Comment</title>
<polyline fill="none" stroke="black" points="522.621,-172 663.621,-172 "/>
<path fill="none" stroke="black" d="M663.621,-172C669.621,-172 675.621,-178 675.621,-184"/>
<polyline fill="none" stroke="black" points="675.621,-184 675.621,-302 "/>
<path fill="none" stroke="black" d="M675.621,-302C675.621,-308 669.621,-314 663.621,-314"/>
<polyline fill="none" stroke="black" points="663.621,-314 522.621,-314 "/>
<path fill="none" stroke="black" d="M522.621,-314C516.621,-314 510.621,-308 510.621,-302"/>
<polyline fill="none" stroke="black" points="510.621,-302 510.621,-184 "/>
<path fill="none" stroke="black" d="M510.621,-184C510.621,-178 516.621,-172 522.621,-172"/>
<text text-anchor="middle" x="593.121" y="-297.4" font-family="Times Roman,serif" font-size="14.00">Comment</text>
<polyline fill="none" stroke="black" points="510.621,-288 675.621,-288 "/>
<text text-anchor="start" x="518.621" y="-271.4" font-family="Times Roman,serif" font-size="14.00">id :integer</text>
<text text-anchor="start" x="518.621" y="-253.4" font-family="Times Roman,serif" font-size="14.00">post_id :integer</text>
<text text-anchor="start" x="518.621" y="-235.4" font-family="Times Roman,serif" font-size="14.00">user_id :integer</text>
<text text-anchor="start" x="518.621" y="-217.4" font-family="Times Roman,serif" font-size="14.00">content :text</text>
<text text-anchor="start" x="518.621" y="-199.4" font-family="Times Roman,serif" font-size="14.00">created_at :datetime</text>
<text text-anchor="start" x="518.621" y="-181.4" font-family="Times Roman,serif" font-size="14.00">updated_at :datetime</text>
</g>
<!-- User&#45;&gt;Comment -->
<g id="edge12" class="edge"><title>User&#45;&gt;Comment</title>
<path fill="none" stroke="#0aecbe" d="M455.386,-550.644C468.033,-482.122 486.412,-393.381 502.121,-360 508.175,-347.136 515.854,-334.375 524.176,-322.271"/>
<ellipse fill="none" stroke="#0aecbe" cx="454.594" cy="-554.961" rx="4.00001" ry="4.00001"/>
<polygon fill="#0aecbe" stroke="#0aecbe" points="524.25,-322.166 533.7,-316.604 527.139,-318.085 530.027,-314.004 530.027,-314.004 530.027,-314.004 527.139,-318.085 526.354,-311.404 524.25,-322.166 524.25,-322.166"/>
</g>
<!-- Post -->
<g id="node7" class="node"><title>Post</title>
<polyline fill="none" stroke="black" points="522.621,-361 663.621,-361 "/>
<path fill="none" stroke="black" d="M663.621,-361C669.621,-361 675.621,-367 675.621,-373"/>
<polyline fill="none" stroke="black" points="675.621,-373 675.621,-509 "/>
<path fill="none" stroke="black" d="M675.621,-509C675.621,-515 669.621,-521 663.621,-521"/>
<polyline fill="none" stroke="black" points="663.621,-521 522.621,-521 "/>
<path fill="none" stroke="black" d="M522.621,-521C516.621,-521 510.621,-515 510.621,-509"/>
<polyline fill="none" stroke="black" points="510.621,-509 510.621,-373 "/>
<path fill="none" stroke="black" d="M510.621,-373C510.621,-367 516.621,-361 522.621,-361"/>
<text text-anchor="middle" x="593.121" y="-504.4" font-family="Times Roman,serif" font-size="14.00">Post</text>
<polyline fill="none" stroke="black" points="510.621,-495 675.621,-495 "/>
<text text-anchor="start" x="518.621" y="-478.4" font-family="Times Roman,serif" font-size="14.00">id :integer</text>
<text text-anchor="start" x="518.621" y="-460.4" font-family="Times Roman,serif" font-size="14.00">topic_id :integer</text>
<text text-anchor="start" x="518.621" y="-442.4" font-family="Times Roman,serif" font-size="14.00">user_id :integer</text>
<text text-anchor="start" x="518.621" y="-424.4" font-family="Times Roman,serif" font-size="14.00">title :text</text>
<text text-anchor="start" x="518.621" y="-406.4" font-family="Times Roman,serif" font-size="14.00">content :text</text>
<text text-anchor="start" x="518.621" y="-388.4" font-family="Times Roman,serif" font-size="14.00">created_at :datetime</text>
<text text-anchor="start" x="518.621" y="-370.4" font-family="Times Roman,serif" font-size="14.00">updated_at :datetime</text>
</g>
<!-- User&#45;&gt;Post -->
<g id="edge8" class="edge"><title>User&#45;&gt;Post</title>
<path fill="none" stroke="#a39701" d="M508.248,-550.835C513.757,-543.706 519.325,-536.5 524.835,-529.369"/>
<polygon fill="#a39701" stroke="#a39701" points="508.246,-550.838 498.571,-556 505.189,-554.795 502.131,-558.751 502.131,-558.751 502.131,-558.751 505.189,-554.795 505.692,-561.503 508.246,-550.838 508.246,-550.838"/>
<polygon fill="#a39701" stroke="#a39701" points="525.156,-528.954 534.832,-523.793 528.213,-524.998 531.271,-521.041 531.271,-521.041 531.271,-521.041 528.213,-524.998 527.71,-518.29 525.156,-528.954 525.156,-528.954"/>
</g>
<!-- Followship -->
<g id="node8" class="node"><title>Followship</title>
<polyline fill="none" stroke="black" points="374.621,-1 515.621,-1 "/>
<path fill="none" stroke="black" d="M515.621,-1C521.621,-1 527.621,-7 527.621,-13"/>
<polyline fill="none" stroke="black" points="527.621,-13 527.621,-113 "/>
<path fill="none" stroke="black" d="M527.621,-113C527.621,-119 521.621,-125 515.621,-125"/>
<polyline fill="none" stroke="black" points="515.621,-125 374.621,-125 "/>
<path fill="none" stroke="black" d="M374.621,-125C368.621,-125 362.621,-119 362.621,-113"/>
<polyline fill="none" stroke="black" points="362.621,-113 362.621,-13 "/>
<path fill="none" stroke="black" d="M362.621,-13C362.621,-7 368.621,-1 374.621,-1"/>
<text text-anchor="middle" x="445.121" y="-108.4" font-family="Times Roman,serif" font-size="14.00">Followship</text>
<polyline fill="none" stroke="black" points="362.621,-99 527.621,-99 "/>
<text text-anchor="start" x="370.621" y="-82.4" font-family="Times Roman,serif" font-size="14.00">id :integer</text>
<text text-anchor="start" x="370.621" y="-64.4" font-family="Times Roman,serif" font-size="14.00">user_id :integer</text>
<text text-anchor="start" x="370.621" y="-46.4" font-family="Times Roman,serif" font-size="14.00">topic_id :integer</text>
<text text-anchor="start" x="370.621" y="-28.4" font-family="Times Roman,serif" font-size="14.00">created_at :datetime</text>
<text text-anchor="start" x="370.621" y="-10.4" font-family="Times Roman,serif" font-size="14.00">updated_at :datetime</text>
</g>
<!-- User&#45;&gt;Followship -->
<g id="edge4" class="edge"><title>User&#45;&gt;Followship</title>
<path fill="none" stroke="#f04a93" d="M440.888,-550.592C441.877,-436.723 443.576,-240.948 444.492,-135.432"/>
<ellipse fill="none" stroke="#f04a93" cx="440.851" cy="-554.91" rx="4" ry="4"/>
<polygon fill="#f04a93" stroke="#f04a93" points="444.494,-135.198 449.081,-125.237 444.538,-130.198 444.581,-125.198 444.581,-125.198 444.581,-125.198 444.538,-130.198 440.081,-125.159 444.494,-135.198 444.494,-135.198"/>
</g>
<!-- Feed&#45;&gt;Topic -->
<g id="edge18" class="edge"><title>Feed&#45;&gt;Topic</title>
<path fill="none" stroke="#75d166" d="M303.847,-370.904C305.019,-358.691 306.253,-345.834 307.468,-333.172"/>
<ellipse fill="none" stroke="#75d166" cx="303.463" cy="-374.913" rx="4" ry="4"/>
<polygon fill="#75d166" stroke="#75d166" points="307.482,-333.029 312.916,-323.505 307.959,-328.052 308.437,-323.075 308.437,-323.075 308.437,-323.075 307.959,-328.052 303.958,-322.645 307.482,-333.029 307.482,-333.029"/>
</g>
<!-- Topic&#45;&gt;Followship -->
<g id="edge22" class="edge"><title>Topic&#45;&gt;Followship</title>
<path fill="none" stroke="#049cc1" d="M378.331,-156.195C383.755,-148.627 389.201,-141.028 394.515,-133.614"/>
<ellipse fill="none" stroke="#049cc1" cx="375.972" cy="-159.488" rx="4.00002" ry="4.00002"/>
<polygon fill="#049cc1" stroke="#049cc1" points="394.857,-133.135 404.34,-127.629 397.77,-129.071 400.682,-125.007 400.682,-125.007 400.682,-125.007 397.77,-129.071 397.025,-122.386 394.857,-133.135 394.857,-133.135"/>
</g>
<!-- Post&#45;&gt;Comment -->
<g id="edge28" class="edge"><title>Post&#45;&gt;Comment</title>
<path fill="none" stroke="#549d0c" d="M593.121,-352.744C593.121,-343.253 593.121,-333.628 593.121,-324.224"/>
<ellipse fill="none" stroke="#549d0c" cx="593.121" cy="-356.751" rx="4" ry="4"/>
<polygon fill="#549d0c" stroke="#549d0c" points="593.121,-324.124 597.621,-314.124 593.121,-319.124 593.121,-314.124 593.121,-314.124 593.121,-314.124 593.121,-319.124 588.621,-314.124 593.121,-324.124 593.121,-324.124"/>
</g>
<!-- ActiveRecord::Base -->
<g id="node15" class="node"><title>ActiveRecord::Base</title>
<ellipse fill="none" stroke="black" cx="440.121" cy="-803" rx="103.945" ry="18.3848"/>
<text text-anchor="middle" x="440.121" y="-799.4" font-family="Times Roman,serif" font-size="14.00">ActiveRecord::Base</text>
</g>
<!-- ActiveRecord::Base&#45;&gt;User -->
<g id="edge14" class="edge"><title>ActiveRecord::Base&#45;&gt;User</title>
<path fill="none" stroke="black" d="M440.121,-784.187C440.121,-768.033 440.121,-743.578 440.121,-719.318"/>
</g>
<!-- ActiveRecord::Base&#45;&gt;Favor -->
<g id="edge16" class="edge"><title>ActiveRecord::Base&#45;&gt;Favor</title>
<path fill="none" stroke="black" d="M394.718,-786.295C361.481,-772.379 316.833,-749.996 285.121,-720 219.292,-657.734 169.422,-564.535 141.227,-503.255"/>
</g>
<!-- ActiveRecord::Base&#45;&gt;Feed -->
<g id="edge20" class="edge"><title>ActiveRecord::Base&#45;&gt;Feed</title>
<path fill="none" stroke="black" d="M402.921,-785.71C377.38,-771.757 345.131,-749.583 328.121,-720 289.737,-653.247 286.925,-562.615 290.396,-503.008"/>
</g>
<!-- ActiveRecord::Base&#45;&gt;Topic -->
<g id="edge24" class="edge"><title>ActiveRecord::Base&#45;&gt;Topic</title>
<path fill="none" stroke="black" d="M403.056,-785.692C381.284,-776.005 353.034,-764.255 327.121,-756 258.084,-734.006 228.634,-759.848 168.121,-720 77.2432,-660.157 57.7703,-625.478 24.1209,-522 1.85536,-453.529 -16.2267,-419.633 24.1209,-360 70.5625,-291.361 164.548,-262.985 233.394,-251.257"/>
</g>
<!-- ActiveRecord::Base&#45;&gt;Comment -->
<g id="edge26" class="edge"><title>ActiveRecord::Base&#45;&gt;Comment</title>
<path fill="none" stroke="black" d="M484.959,-786.147C516.757,-772.345 558.666,-750.169 587.121,-720 654.357,-648.713 661.994,-617.462 684.121,-522 700.379,-451.86 707.488,-428.103 684.121,-360 678.609,-343.935 669.891,-328.377 659.986,-314.133"/>
</g>
<!-- ActiveRecord::Base&#45;&gt;Post -->
<g id="edge30" class="edge"><title>ActiveRecord::Base&#45;&gt;Post</title>
<path fill="none" stroke="black" d="M476.737,-785.674C502.167,-771.641 534.53,-749.382 552.121,-720 588.021,-660.038 596.632,-580.196 597.226,-521.29"/>
</g>
<!-- ActiveRecord::Base&#45;&gt;Followship -->
<g id="edge32" class="edge"><title>ActiveRecord::Base&#45;&gt;Followship</title>
<path fill="none" stroke="black" d="M513.759,-789.785C557.504,-778.32 610.939,-757.423 645.121,-720 707.134,-652.107 691.642,-612.958 705.121,-522 728.615,-363.459 780.076,-290.374 684.121,-162 647.216,-112.627 581.185,-87.7382 527.867,-75.2722"/>
</g>
</g>
</svg>
