<?xml version="1.0" encoding="UTF-8" standalone="no"?>
<!DOCTYPE svg PUBLIC "-//W3C//DTD SVG 1.1//EN"
 "http://www.w3.org/Graphics/SVG/1.1/DTD/svg11.dtd">
<!-- Generated by graphviz version 2.26.3 (20100126.1600)
 -->
<!-- Title: models_diagram Pages: 1 -->
<svg width="573pt" height="324pt"
 viewBox="0.00 0.00 573.32 324.00" xmlns="http://www.w3.org/2000/svg" xmlns:xlink="http://www.w3.org/1999/xlink">
<g id="graph1" class="graph" transform="scale(1 1) rotate(0) translate(4 320)">
<title>models_diagram</title>
<polygon fill="white" stroke="white" points="-4,5 -4,-320 570.318,-320 570.318,5 -4,5"/>
<!-- _diagram_info -->
<g id="node1" class="node"><title>_diagram_info</title>
<text text-anchor="start" x="8" y="-299.8" font-family="Times Roman,serif" font-size="13.00">Models diagram</text>
<text text-anchor="start" x="8" y="-282.8" font-family="Times Roman,serif" font-size="13.00">Date: Oct 17 2013 &#45; 22:53</text>
<text text-anchor="start" x="8" y="-265.8" font-family="Times Roman,serif" font-size="13.00">Migration version: 20131018004603</text>
<text text-anchor="start" x="8" y="-248.8" font-family="Times Roman,serif" font-size="13.00">Generated by RailRoady 1.1.1</text>
<text text-anchor="start" x="8" y="-231.8" font-family="Times Roman,serif" font-size="13.00">http://railroady.prestonlee.com</text>
</g>
<!-- User -->
<g id="node2" class="node"><title>User</title>
<ellipse fill="none" stroke="black" cx="282" cy="-167" rx="33.9411" ry="18.3848"/>
<text text-anchor="middle" x="282" y="-163.4" font-family="Times Roman,serif" font-size="14.00">User</text>
</g>
<!-- Favor -->
<g id="node3" class="node"><title>Favor</title>
<ellipse fill="none" stroke="black" cx="147" cy="-93" rx="38.1838" ry="18.3848"/>
<text text-anchor="middle" x="147" y="-89.4" font-family="Times Roman,serif" font-size="14.00">Favor</text>
</g>
<!-- User&#45;&gt;Favor -->
<g id="edge6" class="edge"><title>User&#45;&gt;Favor</title>
<path fill="none" stroke="#e43212" d="M250.765,-149.878C229.912,-138.448 202.491,-123.417 181.075,-111.678"/>
<ellipse fill="none" stroke="#e43212" cx="254.357" cy="-151.848" rx="4.00002" ry="4.00002"/>
<polygon fill="#e43212" stroke="#e43212" points="181.07,-111.675 174.464,-102.923 176.685,-109.272 172.301,-106.869 172.301,-106.869 172.301,-106.869 176.685,-109.272 170.138,-110.815 181.07,-111.675 181.07,-111.675"/>
</g>
<!-- Feed -->
<g id="node4" class="node"><title>Feed</title>
<ellipse fill="none" stroke="black" cx="357" cy="-93" rx="34.1461" ry="18.3848"/>
<text text-anchor="middle" x="357" y="-89.4" font-family="Times Roman,serif" font-size="14.00">Feed</text>
</g>
<!-- User&#45;&gt;Feed -->
<g id="edge10" class="edge"><title>User&#45;&gt;Feed</title>
<path fill="none" stroke="#e5b239" d="M304.447,-144.853C313.469,-135.951 323.885,-125.674 333.053,-116.628"/>
<ellipse fill="none" stroke="#e5b239" cx="301.492" cy="-147.768" rx="4.00002" ry="4.00002"/>
<polygon fill="#e5b239" stroke="#e5b239" points="333.283,-116.401 343.562,-112.58 336.842,-112.889 340.402,-109.377 340.402,-109.377 340.402,-109.377 336.842,-112.889 337.241,-106.174 333.283,-116.401 333.283,-116.401"/>
</g>
<!-- Topic -->
<g id="node5" class="node"><title>Topic</title>
<ellipse fill="none" stroke="black" cx="357" cy="-19" rx="34.8574" ry="18.3848"/>
<text text-anchor="middle" x="357" y="-15.4" font-family="Times Roman,serif" font-size="14.00">Topic</text>
</g>
<!-- User&#45;&gt;Topic -->
<g id="edge2" class="edge"><title>User&#45;&gt;Topic</title>
<path fill="none" stroke="#7ab9f1" d="M257.189,-145.756C237.818,-126.518 216.567,-97.6519 232,-74 249.828,-46.6779 284.605,-32.8372 312.96,-25.8789"/>
<ellipse fill="none" stroke="#7ab9f1" cx="260.205" cy="-148.638" rx="4.00002" ry="4.00002"/>
<polygon fill="#7ab9f1" stroke="#7ab9f1" points="313.314,-25.7997 324.056,-28.0058 318.193,-24.7071 323.072,-23.6145 323.072,-23.6145 323.072,-23.6145 318.193,-24.7071 322.089,-19.2233 313.314,-25.7997 313.314,-25.7997"/>
</g>
<!-- Followship -->
<g id="node7" class="node"><title>Followship</title>
<ellipse fill="none" stroke="black" cx="472" cy="-93" rx="62.9325" ry="18.3848"/>
<text text-anchor="middle" x="472" y="-89.4" font-family="Times Roman,serif" font-size="14.00">Followship</text>
</g>
<!-- User&#45;&gt;Followship -->
<g id="edge4" class="edge"><title>User&#45;&gt;Followship</title>
<path fill="none" stroke="#da1250" d="M317.686,-153.101C347.876,-141.343 391.387,-124.397 424.516,-111.494"/>
<ellipse fill="none" stroke="#da1250" cx="313.762" cy="-154.629" rx="4.00001" ry="4.00001"/>
<polygon fill="#da1250" stroke="#da1250" points="424.682,-111.429 435.633,-111.993 429.341,-109.615 434,-107.8 434,-107.8 434,-107.8 429.341,-109.615 432.367,-103.607 424.682,-111.429 424.682,-111.429"/>
</g>
<!-- Post -->
<g id="node12" class="node"><title>Post</title>
<ellipse fill="none" stroke="black" cx="273" cy="-93" rx="32.0265" ry="18.3848"/>
<text text-anchor="middle" x="273" y="-89.4" font-family="Times Roman,serif" font-size="14.00">Post</text>
</g>
<!-- User&#45;&gt;Post -->
<g id="edge8" class="edge"><title>User&#45;&gt;Post</title>
<path fill="none" stroke="#d8ea6a" d="M278.754,-140.309C278.032,-134.377 277.264,-128.061 276.532,-122.04"/>
<ellipse fill="none" stroke="#d8ea6a" cx="279.246" cy="-144.356" rx="4.00001" ry="4.00001"/>
<polygon fill="#d8ea6a" stroke="#d8ea6a" points="276.478,-121.594 279.737,-111.124 275.874,-116.631 275.27,-111.667 275.27,-111.667 275.27,-111.667 275.874,-116.631 270.803,-112.211 276.478,-121.594 276.478,-121.594"/>
</g>
<!-- Feed&#45;&gt;Topic -->
<g id="edge16" class="edge"><title>Feed&#45;&gt;Topic</title>
<path fill="none" stroke="#a1bb99" d="M357,-66.309C357,-60.3769 357,-54.0606 357,-48.0396"/>
<ellipse fill="none" stroke="#a1bb99" cx="357" cy="-70.3267" rx="4" ry="4"/>
<polygon fill="#a1bb99" stroke="#a1bb99" points="357,-47.6674 361.5,-37.6673 357,-42.6674 357,-37.6674 357,-37.6674 357,-37.6674 357,-42.6674 352.5,-37.6674 357,-47.6674 357,-47.6674"/>
</g>
<!-- Comment -->
<g id="node6" class="node"><title>Comment</title>
<ellipse fill="none" stroke="black" cx="477" cy="-167" rx="58.1882" ry="18.3848"/>
<text text-anchor="middle" x="477" y="-163.4" font-family="Times Roman,serif" font-size="14.00">Comment</text>
</g>
<!-- ActiveRecord::Base -->
<g id="node14" class="node"><title>ActiveRecord::Base</title>
<ellipse fill="none" stroke="black" cx="372" cy="-269" rx="103.945" ry="18.3848"/>
<text text-anchor="middle" x="372" y="-265.4" font-family="Times Roman,serif" font-size="14.00">ActiveRecord::Base</text>
</g>
<!-- ActiveRecord::Base&#45;&gt;User -->
<g id="edge12" class="edge"><title>ActiveRecord::Base&#45;&gt;User</title>
<path fill="none" stroke="black" d="M355.493,-250.292C338.746,-231.312 313.057,-202.198 296.909,-183.897"/>
</g>
<!-- ActiveRecord::Base&#45;&gt;Favor -->
<g id="edge14" class="edge"><title>ActiveRecord::Base&#45;&gt;Favor</title>
<path fill="none" stroke="black" d="M339.156,-251.361C311.339,-235.767 270.996,-211.577 239,-186 209.374,-162.318 179.25,-129.957 161.885,-110.319"/>
</g>
<!-- ActiveRecord::Base&#45;&gt;Feed -->
<g id="edge18" class="edge"><title>ActiveRecord::Base&#45;&gt;Feed</title>
<path fill="none" stroke="black" d="M370.423,-250.498C367.542,-216.695 361.46,-145.333 358.578,-111.519"/>
</g>
<!-- ActiveRecord::Base&#45;&gt;Topic -->
<g id="edge20" class="edge"><title>ActiveRecord::Base&#45;&gt;Topic</title>
<path fill="none" stroke="black" d="M439.765,-254.868C477.424,-243.178 521.171,-222.365 544,-186 570.467,-143.841 573.822,-113.856 544,-74 525.652,-49.4789 439.769,-32.138 391.022,-24.082"/>
</g>
<!-- ActiveRecord::Base&#45;&gt;Comment -->
<g id="edge22" class="edge"><title>ActiveRecord::Base&#45;&gt;Comment</title>
<path fill="none" stroke="black" d="M390.772,-250.764C410.002,-232.084 439.701,-203.233 458.742,-184.736"/>
</g>
<!-- ActiveRecord::Base&#45;&gt;Followship -->
<g id="edge24" class="edge"><title>ActiveRecord::Base&#45;&gt;Followship</title>
<path fill="none" stroke="black" d="M374.642,-250.465C378.873,-225.521 388.934,-180.527 410,-148 419.621,-133.145 434.309,-119.868 446.975,-110.082"/>
</g>
</g>
</svg>
