<?xml version="1.0" encoding="UTF-8" standalone="no"?>
<!DOCTYPE svg PUBLIC "-//W3C//DTD SVG 1.1//EN"
 "http://www.w3.org/Graphics/SVG/1.1/DTD/svg11.dtd">
<!-- Generated by graphviz version 2.26.3 (20100126.1600)
 -->
<!-- Title: models_diagram Pages: 1 -->
<svg width="1029pt" height="1136pt"
 viewBox="0.00 0.00 1029.00 1136.00" xmlns="http://www.w3.org/2000/svg" xmlns:xlink="http://www.w3.org/1999/xlink">
<g id="graph1" class="graph" transform="scale(1 1) rotate(0) translate(4 1132)">
<title>models_diagram</title>
<polygon fill="white" stroke="white" points="-4,5 -4,-1132 1026,-1132 1026,5 -4,5"/>
<!-- _diagram_info -->
<g id="node1" class="node"><title>_diagram_info</title>
<text text-anchor="start" x="464" y="-1111.8" font-family="Times Roman,serif" font-size="13.00">Models diagram</text>
<text text-anchor="start" x="464" y="-1094.8" font-family="Times Roman,serif" font-size="13.00">Date: Dec 09 2013 &#45; 01:48</text>
<text text-anchor="start" x="464" y="-1077.8" font-family="Times Roman,serif" font-size="13.00">Migration version: 20131208233748</text>
<text text-anchor="start" x="464" y="-1060.8" font-family="Times Roman,serif" font-size="13.00">Generated by RailRoady 1.1.1</text>
<text text-anchor="start" x="464" y="-1043.8" font-family="Times Roman,serif" font-size="13.00">http://railroady.prestonlee.com</text>
</g>
<!-- Followship -->
<g id="node2" class="node"><title>Followship</title>
<polyline fill="none" stroke="black" points="739.5,-183 880.5,-183 "/>
<path fill="none" stroke="black" d="M880.5,-183C886.5,-183 892.5,-189 892.5,-195"/>
<polyline fill="none" stroke="black" points="892.5,-195 892.5,-313 "/>
<path fill="none" stroke="black" d="M892.5,-313C892.5,-319 886.5,-325 880.5,-325"/>
<polyline fill="none" stroke="black" points="880.5,-325 739.5,-325 "/>
<path fill="none" stroke="black" d="M739.5,-325C733.5,-325 727.5,-319 727.5,-313"/>
<polyline fill="none" stroke="black" points="727.5,-313 727.5,-195 "/>
<path fill="none" stroke="black" d="M727.5,-195C727.5,-189 733.5,-183 739.5,-183"/>
<text text-anchor="middle" x="810" y="-308.4" font-family="Times Roman,serif" font-size="14.00">Followship</text>
<polyline fill="none" stroke="black" points="727.5,-299 892.5,-299 "/>
<text text-anchor="start" x="735.5" y="-282.4" font-family="Times Roman,serif" font-size="14.00">id :integer</text>
<text text-anchor="start" x="735.5" y="-264.4" font-family="Times Roman,serif" font-size="14.00">user_id :integer</text>
<text text-anchor="start" x="735.5" y="-246.4" font-family="Times Roman,serif" font-size="14.00">topic_id :integer</text>
<text text-anchor="start" x="735.5" y="-228.4" font-family="Times Roman,serif" font-size="14.00">feed_id :integer</text>
<text text-anchor="start" x="735.5" y="-210.4" font-family="Times Roman,serif" font-size="14.00">created_at :datetime</text>
<text text-anchor="start" x="735.5" y="-192.4" font-family="Times Roman,serif" font-size="14.00">updated_at :datetime</text>
</g>
<!-- Category -->
<g id="node3" class="node"><title>Category</title>
<polyline fill="none" stroke="black" points="868.5,-10 1009.5,-10 "/>
<path fill="none" stroke="black" d="M1009.5,-10C1015.5,-10 1021.5,-16 1021.5,-22"/>
<polyline fill="none" stroke="black" points="1021.5,-22 1021.5,-122 "/>
<path fill="none" stroke="black" d="M1021.5,-122C1021.5,-128 1015.5,-134 1009.5,-134"/>
<polyline fill="none" stroke="black" points="1009.5,-134 868.5,-134 "/>
<path fill="none" stroke="black" d="M868.5,-134C862.5,-134 856.5,-128 856.5,-122"/>
<polyline fill="none" stroke="black" points="856.5,-122 856.5,-22 "/>
<path fill="none" stroke="black" d="M856.5,-22C856.5,-16 862.5,-10 868.5,-10"/>
<text text-anchor="middle" x="939" y="-117.4" font-family="Times Roman,serif" font-size="14.00">Category</text>
<polyline fill="none" stroke="black" points="856.5,-108 1021.5,-108 "/>
<text text-anchor="start" x="864.5" y="-91.4" font-family="Times Roman,serif" font-size="14.00">id :integer</text>
<text text-anchor="start" x="864.5" y="-73.4" font-family="Times Roman,serif" font-size="14.00">topic_id :integer</text>
<text text-anchor="start" x="864.5" y="-55.4" font-family="Times Roman,serif" font-size="14.00">post_id :integer</text>
<text text-anchor="start" x="864.5" y="-37.4" font-family="Times Roman,serif" font-size="14.00">created_at :datetime</text>
<text text-anchor="start" x="864.5" y="-19.4" font-family="Times Roman,serif" font-size="14.00">updated_at :datetime</text>
</g>
<!-- Comment -->
<g id="node4" class="node"><title>Comment</title>
<polyline fill="none" stroke="black" points="39.5,-1 180.5,-1 "/>
<path fill="none" stroke="black" d="M180.5,-1C186.5,-1 192.5,-7 192.5,-13"/>
<polyline fill="none" stroke="black" points="192.5,-13 192.5,-131 "/>
<path fill="none" stroke="black" d="M192.5,-131C192.5,-137 186.5,-143 180.5,-143"/>
<polyline fill="none" stroke="black" points="180.5,-143 39.5,-143 "/>
<path fill="none" stroke="black" d="M39.5,-143C33.5,-143 27.5,-137 27.5,-131"/>
<polyline fill="none" stroke="black" points="27.5,-131 27.5,-13 "/>
<path fill="none" stroke="black" d="M27.5,-13C27.5,-7 33.5,-1 39.5,-1"/>
<text text-anchor="middle" x="110" y="-126.4" font-family="Times Roman,serif" font-size="14.00">Comment</text>
<polyline fill="none" stroke="black" points="27.5,-117 192.5,-117 "/>
<text text-anchor="start" x="35.5" y="-100.4" font-family="Times Roman,serif" font-size="14.00">id :integer</text>
<text text-anchor="start" x="35.5" y="-82.4" font-family="Times Roman,serif" font-size="14.00">post_id :integer</text>
<text text-anchor="start" x="35.5" y="-64.4" font-family="Times Roman,serif" font-size="14.00">user_id :integer</text>
<text text-anchor="start" x="35.5" y="-46.4" font-family="Times Roman,serif" font-size="14.00">content :text</text>
<text text-anchor="start" x="35.5" y="-28.4" font-family="Times Roman,serif" font-size="14.00">created_at :datetime</text>
<text text-anchor="start" x="35.5" y="-10.4" font-family="Times Roman,serif" font-size="14.00">updated_at :datetime</text>
</g>
<!-- Post -->
<g id="node5" class="node"><title>Post</title>
<polyline fill="none" stroke="black" points="295.5,-183 436.5,-183 "/>
<path fill="none" stroke="black" d="M436.5,-183C442.5,-183 448.5,-189 448.5,-195"/>
<polyline fill="none" stroke="black" points="448.5,-195 448.5,-313 "/>
<path fill="none" stroke="black" d="M448.5,-313C448.5,-319 442.5,-325 436.5,-325"/>
<polyline fill="none" stroke="black" points="436.5,-325 295.5,-325 "/>
<path fill="none" stroke="black" d="M295.5,-325C289.5,-325 283.5,-319 283.5,-313"/>
<polyline fill="none" stroke="black" points="283.5,-313 283.5,-195 "/>
<path fill="none" stroke="black" d="M283.5,-195C283.5,-189 289.5,-183 295.5,-183"/>
<text text-anchor="middle" x="366" y="-308.4" font-family="Times Roman,serif" font-size="14.00">Post</text>
<polyline fill="none" stroke="black" points="283.5,-299 448.5,-299 "/>
<text text-anchor="start" x="291.5" y="-282.4" font-family="Times Roman,serif" font-size="14.00">id :integer</text>
<text text-anchor="start" x="291.5" y="-264.4" font-family="Times Roman,serif" font-size="14.00">title :text</text>
<text text-anchor="start" x="291.5" y="-246.4" font-family="Times Roman,serif" font-size="14.00">content :text</text>
<text text-anchor="start" x="291.5" y="-228.4" font-family="Times Roman,serif" font-size="14.00">created_at :datetime</text>
<text text-anchor="start" x="291.5" y="-210.4" font-family="Times Roman,serif" font-size="14.00">updated_at :datetime</text>
<text text-anchor="start" x="291.5" y="-192.4" font-family="Times Roman,serif" font-size="14.00">user_id :integer</text>
</g>
<!-- Post&#45;&gt;Category -->
<g id="edge12" class="edge"><title>Post&#45;&gt;Category</title>
<path fill="none" stroke="#b95b12" d="M456.488,-225.259C563.136,-191.384 739.394,-135.4 846.786,-101.29"/>
<ellipse fill="none" stroke="#b95b12" cx="452.519" cy="-226.519" rx="4.00001" ry="4.00001"/>
<polygon fill="#b95b12" stroke="#b95b12" points="846.787,-101.289 857.68,-102.551 851.552,-99.7757 856.318,-98.262 856.318,-98.262 856.318,-98.262 851.552,-99.7757 854.956,-93.9732 846.787,-101.289 846.787,-101.289"/>
</g>
<!-- Post&#45;&gt;Comment -->
<g id="edge10" class="edge"><title>Post&#45;&gt;Comment</title>
<path fill="none" stroke="#25d041" d="M276.397,-190.298C252.019,-172.966 225.592,-154.179 201.13,-136.788"/>
<ellipse fill="none" stroke="#25d041" cx="279.978" cy="-192.843" rx="4.00002" ry="4.00002"/>
<polygon fill="#25d041" stroke="#25d041" points="201.066,-136.742 195.523,-127.28 196.991,-133.845 192.916,-130.948 192.916,-130.948 192.916,-130.948 196.991,-133.845 190.308,-134.615 201.066,-136.742 201.066,-136.742"/>
</g>
<!-- Topic -->
<g id="node6" class="node"><title>Topic</title>
<polyline fill="none" stroke="black" points="642.5,-853 783.5,-853 "/>
<path fill="none" stroke="black" d="M783.5,-853C789.5,-853 795.5,-859 795.5,-865"/>
<polyline fill="none" stroke="black" points="795.5,-865 795.5,-983 "/>
<path fill="none" stroke="black" d="M795.5,-983C795.5,-989 789.5,-995 783.5,-995"/>
<polyline fill="none" stroke="black" points="783.5,-995 642.5,-995 "/>
<path fill="none" stroke="black" d="M642.5,-995C636.5,-995 630.5,-989 630.5,-983"/>
<polyline fill="none" stroke="black" points="630.5,-983 630.5,-865 "/>
<path fill="none" stroke="black" d="M630.5,-865C630.5,-859 636.5,-853 642.5,-853"/>
<text text-anchor="middle" x="713" y="-978.4" font-family="Times Roman,serif" font-size="14.00">Topic</text>
<polyline fill="none" stroke="black" points="630.5,-969 795.5,-969 "/>
<text text-anchor="start" x="638.5" y="-952.4" font-family="Times Roman,serif" font-size="14.00">id :integer</text>
<text text-anchor="start" x="638.5" y="-934.4" font-family="Times Roman,serif" font-size="14.00">user_id :integer</text>
<text text-anchor="start" x="638.5" y="-916.4" font-family="Times Roman,serif" font-size="14.00">name :string</text>
<text text-anchor="start" x="638.5" y="-898.4" font-family="Times Roman,serif" font-size="14.00">topic_type :string</text>
<text text-anchor="start" x="638.5" y="-880.4" font-family="Times Roman,serif" font-size="14.00">created_at :datetime</text>
<text text-anchor="start" x="638.5" y="-862.4" font-family="Times Roman,serif" font-size="14.00">updated_at :datetime</text>
</g>
<!-- Post&#45;&gt;Topic -->
<g id="edge14" class="edge"><title>Post&#45;&gt;Topic</title>
<path fill="none" stroke="#31b845" d="M273.863,-275.281C227.379,-291.289 175.379,-318.545 149,-364 120.892,-412.435 135.163,-435.736 149,-490 187.528,-641.094 196.716,-698.776 317,-798 404.261,-869.983 533.179,-901.056 619.994,-914.329"/>
<polygon fill="#31b845" stroke="#31b845" points="273.888,-275.273 284.796,-276.402 278.635,-273.701 283.381,-272.13 283.381,-272.13 283.381,-272.13 278.635,-273.701 281.967,-267.858 273.888,-275.273 273.888,-275.273"/>
<polygon fill="#31b845" stroke="#31b845" points="620.211,-914.361 629.445,-920.275 625.157,-915.093 630.103,-915.824 630.103,-915.824 630.103,-915.824 625.157,-915.093 630.761,-911.372 620.211,-914.361 620.211,-914.361"/>
</g>
<!-- User -->
<g id="node8" class="node"><title>User</title>
<polyline fill="none" stroke="black" points="338,-529 634,-529 "/>
<path fill="none" stroke="black" d="M634,-529C640,-529 646,-535 646,-541"/>
<polyline fill="none" stroke="black" points="646,-541 646,-785 "/>
<path fill="none" stroke="black" d="M646,-785C646,-791 640,-797 634,-797"/>
<polyline fill="none" stroke="black" points="634,-797 338,-797 "/>
<path fill="none" stroke="black" d="M338,-797C332,-797 326,-791 326,-785"/>
<polyline fill="none" stroke="black" points="326,-785 326,-541 "/>
<path fill="none" stroke="black" d="M326,-541C326,-535 332,-529 338,-529"/>
<text text-anchor="middle" x="486" y="-780.4" font-family="Times Roman,serif" font-size="14.00">User</text>
<polyline fill="none" stroke="black" points="326,-771 646,-771 "/>
<text text-anchor="start" x="334" y="-754.4" font-family="Times Roman,serif" font-size="14.00">id :integer</text>
<text text-anchor="start" x="334" y="-736.4" font-family="Times Roman,serif" font-size="14.00">username :string</text>
<text text-anchor="start" x="334" y="-718.4" font-family="Times Roman,serif" font-size="14.00">email :string</text>
<text text-anchor="start" x="334" y="-700.4" font-family="Times Roman,serif" font-size="14.00">crypted_password :string</text>
<text text-anchor="start" x="334" y="-682.4" font-family="Times Roman,serif" font-size="14.00">salt :string</text>
<text text-anchor="start" x="334" y="-664.4" font-family="Times Roman,serif" font-size="14.00">name :string</text>
<text text-anchor="start" x="334" y="-646.4" font-family="Times Roman,serif" font-size="14.00">created_at :datetime</text>
<text text-anchor="start" x="334" y="-628.4" font-family="Times Roman,serif" font-size="14.00">updated_at :datetime</text>
<text text-anchor="start" x="334" y="-610.4" font-family="Times Roman,serif" font-size="14.00">remember_me_token :string</text>
<text text-anchor="start" x="334" y="-592.4" font-family="Times Roman,serif" font-size="14.00">remember_me_token_expires_at :datetime</text>
<text text-anchor="start" x="334" y="-574.4" font-family="Times Roman,serif" font-size="14.00">reset_password_token :string</text>
<text text-anchor="start" x="334" y="-556.4" font-family="Times Roman,serif" font-size="14.00">reset_password_token_expires_at :datetime</text>
<text text-anchor="start" x="334" y="-538.4" font-family="Times Roman,serif" font-size="14.00">reset_password_email_sent_at :datetime</text>
</g>
<!-- Post&#45;&gt;User -->
<g id="edge16" class="edge"><title>Post&#45;&gt;User</title>
<path fill="none" stroke="#dad34b" d="M438.921,-333.891C440.765,-337.22 442.469,-340.594 444,-344 468.308,-398.07 479.68,-462.133 484.664,-518.611"/>
<polygon fill="#dad34b" stroke="#dad34b" points="438.856,-333.783 437.6,-322.889 436.295,-329.488 433.735,-325.194 433.735,-325.194 433.735,-325.194 436.295,-329.488 429.87,-327.499 438.856,-333.783 438.856,-333.783"/>
<polygon fill="#dad34b" stroke="#dad34b" points="484.674,-518.732 481.009,-529.068 485.084,-523.715 485.494,-528.699 485.494,-528.699 485.494,-528.699 485.084,-523.715 489.979,-528.33 484.674,-518.732 484.674,-518.732"/>
<text text-anchor="middle" x="532.5" y="-423.4" font-family="Times Roman,serif" font-size="14.00">favoring_users</text>
</g>
<!-- Favor -->
<g id="node9" class="node"><title>Favor</title>
<polyline fill="none" stroke="black" points="534.5,-10 675.5,-10 "/>
<path fill="none" stroke="black" d="M675.5,-10C681.5,-10 687.5,-16 687.5,-22"/>
<polyline fill="none" stroke="black" points="687.5,-22 687.5,-122 "/>
<path fill="none" stroke="black" d="M687.5,-122C687.5,-128 681.5,-134 675.5,-134"/>
<polyline fill="none" stroke="black" points="675.5,-134 534.5,-134 "/>
<path fill="none" stroke="black" d="M534.5,-134C528.5,-134 522.5,-128 522.5,-122"/>
<polyline fill="none" stroke="black" points="522.5,-122 522.5,-22 "/>
<path fill="none" stroke="black" d="M522.5,-22C522.5,-16 528.5,-10 534.5,-10"/>
<text text-anchor="middle" x="605" y="-117.4" font-family="Times Roman,serif" font-size="14.00">Favor</text>
<polyline fill="none" stroke="black" points="522.5,-108 687.5,-108 "/>
<text text-anchor="start" x="530.5" y="-91.4" font-family="Times Roman,serif" font-size="14.00">id :integer</text>
<text text-anchor="start" x="530.5" y="-73.4" font-family="Times Roman,serif" font-size="14.00">user_id :integer</text>
<text text-anchor="start" x="530.5" y="-55.4" font-family="Times Roman,serif" font-size="14.00">post_id :integer</text>
<text text-anchor="start" x="530.5" y="-37.4" font-family="Times Roman,serif" font-size="14.00">created_at :datetime</text>
<text text-anchor="start" x="530.5" y="-19.4" font-family="Times Roman,serif" font-size="14.00">updated_at :datetime</text>
</g>
<!-- Post&#45;&gt;Favor -->
<g id="edge8" class="edge"><title>Post&#45;&gt;Favor</title>
<path fill="none" stroke="#3796a3" d="M455.145,-186.115C474.757,-171.181 495.536,-155.357 515.174,-140.403"/>
<ellipse fill="none" stroke="#3796a3" cx="451.767" cy="-188.688" rx="4.00002" ry="4.00002"/>
<polygon fill="#3796a3" stroke="#3796a3" points="515.265,-140.334 525.947,-137.856 519.243,-137.305 523.221,-134.276 523.221,-134.276 523.221,-134.276 519.243,-137.305 520.494,-130.695 515.265,-140.334 515.265,-140.334"/>
</g>
<!-- Topic&#45;&gt;Followship -->
<g id="edge20" class="edge"><title>Topic&#45;&gt;Followship</title>
<path fill="none" stroke="#b84277" d="M767.006,-845.814C769.129,-841.875 771.141,-837.925 773,-834 814.296,-746.797 809.462,-847.92 844,-490 849.379,-434.259 852.362,-419.372 844,-364 842.556,-354.439 840.444,-344.563 837.967,-334.834"/>
<ellipse fill="none" stroke="#b84277" cx="765.018" cy="-849.388" rx="4.00002" ry="4.00002"/>
<polygon fill="#b84277" stroke="#b84277" points="837.966,-334.83 839.728,-324.006 836.673,-330 835.381,-325.17 835.381,-325.17 835.381,-325.17 836.673,-330 831.034,-326.333 837.966,-334.83 837.966,-334.83"/>
</g>
<!-- Topic&#45;&gt;Category -->
<g id="edge22" class="edge"><title>Topic&#45;&gt;Category</title>
<path fill="none" stroke="#89ad8f" d="M798.812,-846.433C811.309,-831.49 822.728,-815.118 831,-798 937.317,-577.992 944.957,-280.243 942.096,-144.653"/>
<ellipse fill="none" stroke="#89ad8f" cx="796" cy="-849.712" rx="4.00002" ry="4.00002"/>
<polygon fill="#89ad8f" stroke="#89ad8f" points="942.09,-144.388 946.351,-134.284 941.971,-139.389 941.853,-134.391 941.853,-134.391 941.853,-134.391 941.971,-139.389 937.354,-134.497 942.09,-144.388 942.09,-144.388"/>
</g>
<!-- Topic&#45;&gt;User -->
<g id="edge24" class="edge"><title>Topic&#45;&gt;User</title>
<path fill="none" stroke="#2485ef" d="M620.623,-908.54C576.222,-896.11 526.564,-873.824 498,-834 492.081,-825.747 487.527,-816.657 484.078,-807.097"/>
<polygon fill="#2485ef" stroke="#2485ef" points="620.638,-908.544 629.142,-915.468 625.47,-909.832 630.301,-911.12 630.301,-911.12 630.301,-911.12 625.47,-909.832 631.46,-906.772 620.638,-908.544 620.638,-908.544"/>
<polygon fill="#2485ef" stroke="#2485ef" points="484.023,-806.925 485.277,-796.031 482.506,-802.16 480.989,-797.396 480.989,-797.396 480.989,-797.396 482.506,-802.16 476.702,-798.761 484.023,-806.925 484.023,-806.925"/>
<text text-anchor="middle" x="551.5" y="-821.4" font-family="Times Roman,serif" font-size="14.00">following_users</text>
</g>
<!-- Feed -->
<g id="node7" class="node"><title>Feed</title>
<polyline fill="none" stroke="black" points="682.5,-365 823.5,-365 "/>
<path fill="none" stroke="black" d="M823.5,-365C829.5,-365 835.5,-371 835.5,-377"/>
<polyline fill="none" stroke="black" points="835.5,-377 835.5,-477 "/>
<path fill="none" stroke="black" d="M835.5,-477C835.5,-483 829.5,-489 823.5,-489"/>
<polyline fill="none" stroke="black" points="823.5,-489 682.5,-489 "/>
<path fill="none" stroke="black" d="M682.5,-489C676.5,-489 670.5,-483 670.5,-477"/>
<polyline fill="none" stroke="black" points="670.5,-477 670.5,-377 "/>
<path fill="none" stroke="black" d="M670.5,-377C670.5,-371 676.5,-365 682.5,-365"/>
<text text-anchor="middle" x="753" y="-472.4" font-family="Times Roman,serif" font-size="14.00">Feed</text>
<polyline fill="none" stroke="black" points="670.5,-463 835.5,-463 "/>
<text text-anchor="start" x="678.5" y="-446.4" font-family="Times Roman,serif" font-size="14.00">id :integer</text>
<text text-anchor="start" x="678.5" y="-428.4" font-family="Times Roman,serif" font-size="14.00">user_id :integer</text>
<text text-anchor="start" x="678.5" y="-410.4" font-family="Times Roman,serif" font-size="14.00">name :string</text>
<text text-anchor="start" x="678.5" y="-392.4" font-family="Times Roman,serif" font-size="14.00">created_at :datetime</text>
<text text-anchor="start" x="678.5" y="-374.4" font-family="Times Roman,serif" font-size="14.00">updated_at :datetime</text>
</g>
<!-- Feed&#45;&gt;Followship -->
<g id="edge28" class="edge"><title>Feed&#45;&gt;Followship</title>
<path fill="none" stroke="#4becfb" d="M776.171,-356.674C778.523,-349.534 780.926,-342.241 783.312,-335"/>
<ellipse fill="none" stroke="#4becfb" cx="774.83" cy="-360.744" rx="4.00001" ry="4.00001"/>
<polygon fill="#4becfb" stroke="#4becfb" points="783.419,-334.675 790.823,-326.585 784.984,-329.926 786.549,-325.177 786.549,-325.177 786.549,-325.177 784.984,-329.926 782.275,-323.769 783.419,-334.675 783.419,-334.675"/>
</g>
<!-- Feed&#45;&gt;Post -->
<g id="edge32" class="edge"><title>Feed&#45;&gt;Post</title>
<path fill="none" stroke="#cb2dc4" d="M661.097,-385.917C599.761,-358.498 519.414,-322.58 458.048,-295.148"/>
<polygon fill="#cb2dc4" stroke="#cb2dc4" points="661.324,-386.018 668.617,-394.208 665.889,-388.059 670.453,-390.099 670.453,-390.099 670.453,-390.099 665.889,-388.059 672.29,-385.991 661.324,-386.018 661.324,-386.018"/>
<polygon fill="#cb2dc4" stroke="#cb2dc4" points="457.882,-295.074 450.589,-286.885 453.317,-293.033 448.753,-290.993 448.753,-290.993 448.753,-290.993 453.317,-293.033 446.916,-295.101 457.882,-295.074 457.882,-295.074"/>
</g>
<!-- Feed&#45;&gt;Topic -->
<g id="edge30" class="edge"><title>Feed&#45;&gt;Topic</title>
<path fill="none" stroke="#c98de3" d="M764.263,-499.033C774.75,-581.283 785.08,-719.288 758,-834 757.281,-837.047 756.442,-840.109 755.503,-843.168"/>
<polygon fill="#c98de3" stroke="#c98de3" points="764.253,-498.953 767.414,-488.452 763.603,-493.995 762.953,-489.037 762.953,-489.037 762.953,-489.037 763.603,-493.995 758.491,-489.622 764.253,-498.953 764.253,-498.953"/>
<polygon fill="#c98de3" stroke="#c98de3" points="755.41,-843.44 747.931,-851.459 753.801,-848.174 752.191,-852.908 752.191,-852.908 752.191,-852.908 753.801,-848.174 756.452,-854.356 755.41,-843.44 755.41,-843.44"/>
</g>
<!-- User&#45;&gt;Followship -->
<g id="edge38" class="edge"><title>User&#45;&gt;Followship</title>
<path fill="none" stroke="#2a93f6" d="M612.17,-521.819C614.552,-517.898 616.834,-513.955 619,-510 651.49,-450.669 623.302,-419.482 662,-364 677.103,-342.346 697.833,-323.229 718.998,-307.26"/>
<ellipse fill="none" stroke="#2a93f6" cx="609.898" cy="-525.459" rx="4.00002" ry="4.00002"/>
<polygon fill="#2a93f6" stroke="#2a93f6" points="719.06,-307.215 729.784,-304.923 723.09,-304.255 727.12,-301.296 727.12,-301.296 727.12,-301.296 723.09,-304.255 724.457,-297.669 719.06,-307.215 719.06,-307.215"/>
</g>
<!-- User&#45;&gt;Comment -->
<g id="edge46" class="edge"><title>User&#45;&gt;Comment</title>
<path fill="none" stroke="#8d5e3f" d="M318.592,-558.919C296.957,-547.59 274.754,-536.946 253,-528 207.487,-509.283 175.653,-531.369 149,-490 83.5285,-388.38 86.5224,-242.979 96.7484,-153.183"/>
<ellipse fill="none" stroke="#8d5e3f" cx="322.369" cy="-560.916" rx="4.00002" ry="4.00002"/>
<polygon fill="#8d5e3f" stroke="#8d5e3f" points="96.7721,-152.983 102.428,-143.588 97.3657,-148.019 97.9594,-143.054 97.9594,-143.054 97.9594,-143.054 97.3657,-148.019 93.4912,-142.52 96.7721,-152.983 96.7721,-152.983"/>
</g>
<!-- User&#45;&gt;Post -->
<g id="edge42" class="edge"><title>User&#45;&gt;Post</title>
<path fill="none" stroke="#15c7d9" d="M450.653,-520.75C437.551,-470.903 421.973,-414.719 406,-364 403.024,-354.551 399.731,-344.712 396.35,-334.974"/>
<ellipse fill="none" stroke="#15c7d9" cx="451.72" cy="-524.824" rx="4.00001" ry="4.00001"/>
<polygon fill="#15c7d9" stroke="#15c7d9" points="396.262,-334.723 397.193,-323.796 394.604,-330.005 392.947,-325.288 392.947,-325.288 392.947,-325.288 394.604,-330.005 388.702,-326.779 396.262,-334.723 396.262,-334.723"/>
</g>
<!-- User&#45;&gt;Post -->
<g id="edge50" class="edge"><title>User&#45;&gt;Post</title>
<path fill="none" stroke="#65d3d4" d="M316.484,-608.912C261.138,-582.292 205.784,-543.966 174,-490 145.581,-441.747 145.919,-412.451 174,-364 195.754,-326.465 235.678,-300.64 273.508,-283.498"/>
<polygon fill="#65d3d4" stroke="#65d3d4" points="316.671,-609 323.811,-617.323 321.197,-611.125 325.723,-613.25 325.723,-613.25 325.723,-613.25 321.197,-611.125 327.636,-609.177 316.671,-609 316.671,-609"/>
<polygon fill="#65d3d4" stroke="#65d3d4" points="273.903,-283.326 284.869,-283.449 278.486,-281.325 283.068,-279.325 283.068,-279.325 283.068,-279.325 278.486,-281.325 281.268,-275.201 273.903,-283.326 273.903,-283.326"/>
<text text-anchor="middle" x="227" y="-423.4" font-family="Times Roman,serif" font-size="14.00">following_posts</text>
</g>
<!-- User&#45;&gt;Post -->
<g id="edge52" class="edge"><title>User&#45;&gt;Post</title>
<path fill="none" stroke="#6a8003" d="M320.16,-523.246C313.14,-512.611 306.977,-501.512 302,-490 279.775,-438.599 287.416,-418.068 302,-364 304.682,-354.058 308.508,-344.09 312.974,-334.436"/>
<polygon fill="#6a8003" stroke="#6a8003" points="320.293,-523.44 322.262,-534.227 323.13,-527.557 325.967,-531.674 325.967,-531.674 325.967,-531.674 323.13,-527.557 329.673,-529.121 320.293,-523.44 320.293,-523.44"/>
<polygon fill="#6a8003" stroke="#6a8003" points="313.052,-334.275 321.479,-327.258 315.243,-329.781 317.434,-325.286 317.434,-325.286 317.434,-325.286 315.243,-329.781 313.389,-323.314 313.052,-334.275 313.052,-334.275"/>
<text text-anchor="middle" x="352" y="-423.4" font-family="Times Roman,serif" font-size="14.00">favoring_posts</text>
</g>
<!-- User&#45;&gt;Topic -->
<g id="edge36" class="edge"><title>User&#45;&gt;Topic</title>
<path fill="none" stroke="#d12a4c" d="M606.262,-803.277C615.29,-813.691 624.277,-824.021 633,-834 636.186,-837.645 639.45,-841.366 642.752,-845.121"/>
<ellipse fill="none" stroke="#d12a4c" cx="603.562" cy="-800.161" rx="4.00002" ry="4.00002"/>
<polygon fill="#d12a4c" stroke="#d12a4c" points="642.961,-845.358 646.194,-855.836 646.266,-849.11 649.571,-852.862 649.571,-852.862 649.571,-852.862 646.266,-849.11 652.948,-849.887 642.961,-845.358 642.961,-845.358"/>
</g>
<!-- User&#45;&gt;Topic -->
<g id="edge48" class="edge"><title>User&#45;&gt;Topic</title>
<path fill="none" stroke="#09e8ee" d="M620.352,-804.793C623.62,-808.549 626.841,-812.289 630,-816 637.861,-825.236 645.904,-835.106 653.74,-844.986"/>
<polygon fill="#09e8ee" stroke="#09e8ee" points="620.171,-804.586 616.966,-794.098 616.876,-800.825 613.581,-797.064 613.581,-797.064 613.581,-797.064 616.876,-800.825 610.196,-800.029 620.171,-804.586 620.171,-804.586"/>
<polygon fill="#09e8ee" stroke="#09e8ee" points="653.786,-845.043 656.438,-855.683 656.879,-848.971 659.973,-852.899 659.973,-852.899 659.973,-852.899 656.879,-848.971 663.508,-850.114 653.786,-845.043 653.786,-845.043"/>
<text text-anchor="middle" x="699" y="-821.4" font-family="Times Roman,serif" font-size="14.00">following_topics</text>
</g>
<!-- User&#45;&gt;Feed -->
<g id="edge44" class="edge"><title>User&#45;&gt;Feed</title>
<path fill="none" stroke="#e1b90d" d="M644.032,-523.316C654.749,-513.843 665.248,-504.563 675.239,-495.732"/>
<ellipse fill="none" stroke="#e1b90d" cx="640.828" cy="-526.148" rx="4.00002" ry="4.00002"/>
<polygon fill="#e1b90d" stroke="#e1b90d" points="675.283,-495.693 685.756,-492.442 679.03,-492.382 682.776,-489.071 682.776,-489.071 682.776,-489.071 679.03,-492.382 679.796,-485.699 675.283,-495.693 675.283,-495.693"/>
</g>
<!-- User&#45;&gt;Favor -->
<g id="edge40" class="edge"><title>User&#45;&gt;Favor</title>
<path fill="none" stroke="#da1b60" d="M575.714,-521.348C580.084,-510.976 583.924,-500.472 587,-490 621.478,-372.636 618.384,-228.798 612.23,-144.105"/>
<ellipse fill="none" stroke="#da1b60" cx="574.036" cy="-525.206" rx="4.00002" ry="4.00002"/>
<polygon fill="#da1b60" stroke="#da1b60" points="612.226,-144.046 615.954,-133.734 611.846,-139.061 611.467,-134.075 611.467,-134.075 611.467,-134.075 611.846,-139.061 606.98,-134.417 612.226,-144.046 612.226,-144.046"/>
</g>
<!-- ActiveRecord::Base -->
<g id="node10" class="node"><title>ActiveRecord::Base</title>
<ellipse fill="none" stroke="black" cx="828" cy="-1081" rx="104.151" ry="18.3848"/>
<text text-anchor="middle" x="828" y="-1077.4" font-family="Times Roman,serif" font-size="14.00">ActiveRecord::Base</text>
</g>
<!-- ActiveRecord::Base&#45;&gt;Followship -->
<g id="edge2" class="edge"><title>ActiveRecord::Base&#45;&gt;Followship</title>
<path fill="none" stroke="black" d="M852.359,-1062.93C885.034,-1036.41 939,-983.585 939,-924 939,-924 939,-924 939,-509 939,-441.526 902.593,-373.775 868.461,-325.085"/>
</g>
<!-- ActiveRecord::Base&#45;&gt;Category -->
<g id="edge4" class="edge"><title>ActiveRecord::Base&#45;&gt;Category</title>
<path fill="none" stroke="black" d="M900.356,-1067.59C932.258,-1058.19 967.711,-1042.38 991,-1016 1018.97,-984.322 1015,-966.257 1015,-924 1015,-924 1015,-924 1015,-254 1015,-211.883 997.455,-168.223 979.225,-134.226"/>
</g>
<!-- ActiveRecord::Base&#45;&gt;Comment -->
<g id="edge6" class="edge"><title>ActiveRecord::Base&#45;&gt;Comment</title>
<path fill="none" stroke="black" d="M794.422,-1063.29C772.472,-1052.67 742.816,-1040.08 715,-1034 640.961,-1017.83 95.6732,-1040.04 34,-996 5.20088,-975.434 0,-959.388 0,-924 0,-924 0,-924 0,-254 0,-213.757 19.9419,-174.789 42.8438,-143.305"/>
</g>
<!-- ActiveRecord::Base&#45;&gt;Post -->
<g id="edge18" class="edge"><title>ActiveRecord::Base&#45;&gt;Post</title>
<path fill="none" stroke="black" d="M792.129,-1063.55C770.289,-1053.57 741.564,-1041.57 715,-1034 568.419,-992.228 38,-1076.42 38,-924 38,-924 38,-924 38,-427 38,-316.267 186.064,-276.236 283.232,-261.889"/>
</g>
<!-- ActiveRecord::Base&#45;&gt;Topic -->
<g id="edge26" class="edge"><title>ActiveRecord::Base&#45;&gt;Topic</title>
<path fill="none" stroke="black" d="M814.356,-1062.37C802.1,-1045.64 783.299,-1019.97 765.203,-995.268"/>
</g>
<!-- ActiveRecord::Base&#45;&gt;Feed -->
<g id="edge34" class="edge"><title>ActiveRecord::Base&#45;&gt;Feed</title>
<path fill="none" stroke="black" d="M829.11,-1062.42C831.507,-1021.28 837.099,-919.399 839,-834 842.075,-695.855 813.728,-662.944 784,-528 781.198,-515.282 777.566,-501.85 773.78,-489.078"/>
</g>
<!-- ActiveRecord::Base&#45;&gt;User -->
<g id="edge54" class="edge"><title>ActiveRecord::Base&#45;&gt;User</title>
<path fill="none" stroke="black" d="M787.229,-1063.97C765.752,-1055.02 738.965,-1043.88 715,-1034 673.72,-1016.98 658.122,-1022.25 622,-996 545.716,-940.572 517.421,-922.546 485,-834 480.713,-822.291 477.859,-809.822 476.084,-797.156"/>
</g>
<!-- ActiveRecord::Base&#45;&gt;Favor -->
<g id="edge56" class="edge"><title>ActiveRecord::Base&#45;&gt;Favor</title>
<path fill="none" stroke="black" d="M863.311,-1063.54C907.372,-1038.98 977,-989.761 977,-924 977,-924 977,-924 977,-345 977,-265.068 959.749,-236.201 901,-182 869.118,-152.586 763.543,-117.503 687.567,-95.0002"/>
</g>
</g>
</svg>
