<?xml version="1.0" encoding="UTF-8" standalone="no"?>
<!DOCTYPE svg PUBLIC "-//W3C//DTD SVG 1.1//EN"
 "http://www.w3.org/Graphics/SVG/1.1/DTD/svg11.dtd">
<!-- Generated by graphviz version 2.26.3 (20100126.1600)
 -->
<!-- Title: models_diagram Pages: 1 -->
<svg width="715pt" height="660pt"
 viewBox="0.00 0.00 714.58 660.00" xmlns="http://www.w3.org/2000/svg" xmlns:xlink="http://www.w3.org/1999/xlink">
<g id="graph1" class="graph" transform="scale(1 1) rotate(0) translate(4 656)">
<title>models_diagram</title>
<polygon fill="white" stroke="white" points="-4,5 -4,-656 711.582,-656 711.582,5 -4,5"/>
<!-- _diagram_info -->
<g id="node1" class="node"><title>_diagram_info</title>
<text text-anchor="start" x="39" y="-635.8" font-family="Times Roman,serif" font-size="13.00">Models diagram</text>
<text text-anchor="start" x="39" y="-618.8" font-family="Times Roman,serif" font-size="13.00">Date: Oct 17 2013 &#45; 22:53</text>
<text text-anchor="start" x="39" y="-601.8" font-family="Times Roman,serif" font-size="13.00">Migration version: 20131018004603</text>
<text text-anchor="start" x="39" y="-584.8" font-family="Times Roman,serif" font-size="13.00">Generated by RailRoady 1.1.1</text>
<text text-anchor="start" x="39" y="-567.8" font-family="Times Roman,serif" font-size="13.00">http://railroady.prestonlee.com</text>
</g>
<!-- User -->
<g id="node2" class="node"><title>User</title>
<polyline fill="none" stroke="black" points="160.5,-361 343.5,-361 "/>
<path fill="none" stroke="black" d="M343.5,-361C349.5,-361 355.5,-367 355.5,-373"/>
<polyline fill="none" stroke="black" points="355.5,-373 355.5,-509 "/>
<path fill="none" stroke="black" d="M355.5,-509C355.5,-515 349.5,-521 343.5,-521"/>
<polyline fill="none" stroke="black" points="343.5,-521 160.5,-521 "/>
<path fill="none" stroke="black" d="M160.5,-521C154.5,-521 148.5,-515 148.5,-509"/>
<polyline fill="none" stroke="black" points="148.5,-509 148.5,-373 "/>
<path fill="none" stroke="black" d="M148.5,-373C148.5,-367 154.5,-361 160.5,-361"/>
<text text-anchor="middle" x="252" y="-504.4" font-family="Times Roman,serif" font-size="14.00">User</text>
<polyline fill="none" stroke="black" points="148.5,-495 355.5,-495 "/>
<text text-anchor="start" x="156.5" y="-478.4" font-family="Times Roman,serif" font-size="14.00">id :integer</text>
<text text-anchor="start" x="156.5" y="-460.4" font-family="Times Roman,serif" font-size="14.00">username :string</text>
<text text-anchor="start" x="156.5" y="-442.4" font-family="Times Roman,serif" font-size="14.00">email :string</text>
<text text-anchor="start" x="156.5" y="-424.4" font-family="Times Roman,serif" font-size="14.00">encrypted_password :string</text>
<text text-anchor="start" x="156.5" y="-406.4" font-family="Times Roman,serif" font-size="14.00">password_salt :string</text>
<text text-anchor="start" x="156.5" y="-388.4" font-family="Times Roman,serif" font-size="14.00">created_at :datetime</text>
<text text-anchor="start" x="156.5" y="-370.4" font-family="Times Roman,serif" font-size="14.00">updated_at :datetime</text>
</g>
<!-- Favor -->
<g id="node3" class="node"><title>Favor</title>
<polyline fill="none" stroke="black" points="11.5,-199 152.5,-199 "/>
<path fill="none" stroke="black" d="M152.5,-199C158.5,-199 164.5,-205 164.5,-211"/>
<polyline fill="none" stroke="black" points="164.5,-211 164.5,-311 "/>
<path fill="none" stroke="black" d="M164.5,-311C164.5,-317 158.5,-323 152.5,-323"/>
<polyline fill="none" stroke="black" points="152.5,-323 11.5,-323 "/>
<path fill="none" stroke="black" d="M11.5,-323C5.5,-323 -0.5,-317 -0.5,-311"/>
<polyline fill="none" stroke="black" points="-0.5,-311 -0.5,-211 "/>
<path fill="none" stroke="black" d="M-0.5,-211C-0.5,-205 5.5,-199 11.5,-199"/>
<text text-anchor="middle" x="82" y="-306.4" font-family="Times Roman,serif" font-size="14.00">Favor</text>
<polyline fill="none" stroke="black" points="-0.5,-297 164.5,-297 "/>
<text text-anchor="start" x="7.5" y="-280.4" font-family="Times Roman,serif" font-size="14.00">id :integer</text>
<text text-anchor="start" x="7.5" y="-262.4" font-family="Times Roman,serif" font-size="14.00">user_id :integer</text>
<text text-anchor="start" x="7.5" y="-244.4" font-family="Times Roman,serif" font-size="14.00">post_id :integer</text>
<text text-anchor="start" x="7.5" y="-226.4" font-family="Times Roman,serif" font-size="14.00">created_at :datetime</text>
<text text-anchor="start" x="7.5" y="-208.4" font-family="Times Roman,serif" font-size="14.00">updated_at :datetime</text>
</g>
<!-- User&#45;&gt;Favor -->
<g id="edge6" class="edge"><title>User&#45;&gt;Favor</title>
<path fill="none" stroke="#980e59" d="M170.58,-354.791C162.824,-346.579 155.029,-338.324 147.452,-330.302"/>
<ellipse fill="none" stroke="#980e59" cx="173.451" cy="-357.831" rx="4.00002" ry="4.00002"/>
<polygon fill="#980e59" stroke="#980e59" points="147.429,-330.277 143.834,-319.917 143.996,-326.642 140.562,-323.007 140.562,-323.007 140.562,-323.007 143.996,-326.642 137.291,-326.097 147.429,-330.277 147.429,-330.277"/>
</g>
<!-- Feed -->
<g id="node4" class="node"><title>Feed</title>
<polyline fill="none" stroke="black" points="313.5,-199 454.5,-199 "/>
<path fill="none" stroke="black" d="M454.5,-199C460.5,-199 466.5,-205 466.5,-211"/>
<polyline fill="none" stroke="black" points="466.5,-211 466.5,-311 "/>
<path fill="none" stroke="black" d="M466.5,-311C466.5,-317 460.5,-323 454.5,-323"/>
<polyline fill="none" stroke="black" points="454.5,-323 313.5,-323 "/>
<path fill="none" stroke="black" d="M313.5,-323C307.5,-323 301.5,-317 301.5,-311"/>
<polyline fill="none" stroke="black" points="301.5,-311 301.5,-211 "/>
<path fill="none" stroke="black" d="M301.5,-211C301.5,-205 307.5,-199 313.5,-199"/>
<text text-anchor="middle" x="384" y="-306.4" font-family="Times Roman,serif" font-size="14.00">Feed</text>
<polyline fill="none" stroke="black" points="301.5,-297 466.5,-297 "/>
<text text-anchor="start" x="309.5" y="-280.4" font-family="Times Roman,serif" font-size="14.00">id :integer</text>
<text text-anchor="start" x="309.5" y="-262.4" font-family="Times Roman,serif" font-size="14.00">user_id :integer</text>
<text text-anchor="start" x="309.5" y="-244.4" font-family="Times Roman,serif" font-size="14.00">name :string</text>
<text text-anchor="start" x="309.5" y="-226.4" font-family="Times Roman,serif" font-size="14.00">created_at :datetime</text>
<text text-anchor="start" x="309.5" y="-208.4" font-family="Times Roman,serif" font-size="14.00">updated_at :datetime</text>
</g>
<!-- User&#45;&gt;Feed -->
<g id="edge10" class="edge"><title>User&#45;&gt;Feed</title>
<path fill="none" stroke="#24cbb8" d="M315.657,-354.195C321.328,-346.462 327.022,-338.698 332.571,-331.13"/>
<ellipse fill="none" stroke="#24cbb8" cx="313.224" cy="-357.513" rx="4.00002" ry="4.00002"/>
<polygon fill="#24cbb8" stroke="#24cbb8" points="332.614,-331.071 342.157,-325.668 335.571,-327.039 338.528,-323.007 338.528,-323.007 338.528,-323.007 335.571,-327.039 334.899,-320.346 332.614,-331.071 332.614,-331.071"/>
</g>
<!-- Topic -->
<g id="node5" class="node"><title>Topic</title>
<polyline fill="none" stroke="black" points="313.5,-1 454.5,-1 "/>
<path fill="none" stroke="black" d="M454.5,-1C460.5,-1 466.5,-7 466.5,-13"/>
<polyline fill="none" stroke="black" points="466.5,-13 466.5,-149 "/>
<path fill="none" stroke="black" d="M466.5,-149C466.5,-155 460.5,-161 454.5,-161"/>
<polyline fill="none" stroke="black" points="454.5,-161 313.5,-161 "/>
<path fill="none" stroke="black" d="M313.5,-161C307.5,-161 301.5,-155 301.5,-149"/>
<polyline fill="none" stroke="black" points="301.5,-149 301.5,-13 "/>
<path fill="none" stroke="black" d="M301.5,-13C301.5,-7 307.5,-1 313.5,-1"/>
<text text-anchor="middle" x="384" y="-144.4" font-family="Times Roman,serif" font-size="14.00">Topic</text>
<polyline fill="none" stroke="black" points="301.5,-135 466.5,-135 "/>
<text text-anchor="start" x="309.5" y="-118.4" font-family="Times Roman,serif" font-size="14.00">id :integer</text>
<text text-anchor="start" x="309.5" y="-100.4" font-family="Times Roman,serif" font-size="14.00">user_id :integer</text>
<text text-anchor="start" x="309.5" y="-82.4" font-family="Times Roman,serif" font-size="14.00">feed_id :integer</text>
<text text-anchor="start" x="309.5" y="-64.4" font-family="Times Roman,serif" font-size="14.00">name :string</text>
<text text-anchor="start" x="309.5" y="-46.4" font-family="Times Roman,serif" font-size="14.00">topic_type :integer</text>
<text text-anchor="start" x="309.5" y="-28.4" font-family="Times Roman,serif" font-size="14.00">created_at :datetime</text>
<text text-anchor="start" x="309.5" y="-10.4" font-family="Times Roman,serif" font-size="14.00">updated_at :datetime</text>
</g>
<!-- User&#45;&gt;Topic -->
<g id="edge2" class="edge"><title>User&#45;&gt;Topic</title>
<path fill="none" stroke="#3c6a5f" d="M211.375,-353.224C195.224,-305.007 185.767,-245.527 211,-198 228.717,-164.629 260.675,-139.04 292.344,-120.427"/>
<ellipse fill="none" stroke="#3c6a5f" cx="212.712" cy="-357.083" rx="4.00001" ry="4.00001"/>
<polygon fill="#3c6a5f" stroke="#3c6a5f" points="292.562,-120.302 303.48,-119.273 296.909,-117.832 301.256,-115.361 301.256,-115.361 301.256,-115.361 296.909,-117.832 299.033,-111.449 292.562,-120.302 292.562,-120.302"/>
</g>
<!-- Followship -->
<g id="node7" class="node"><title>Followship</title>
<polyline fill="none" stroke="black" points="495.5,-199 636.5,-199 "/>
<path fill="none" stroke="black" d="M636.5,-199C642.5,-199 648.5,-205 648.5,-211"/>
<polyline fill="none" stroke="black" points="648.5,-211 648.5,-311 "/>
<path fill="none" stroke="black" d="M648.5,-311C648.5,-317 642.5,-323 636.5,-323"/>
<polyline fill="none" stroke="black" points="636.5,-323 495.5,-323 "/>
<path fill="none" stroke="black" d="M495.5,-323C489.5,-323 483.5,-317 483.5,-311"/>
<polyline fill="none" stroke="black" points="483.5,-311 483.5,-211 "/>
<path fill="none" stroke="black" d="M483.5,-211C483.5,-205 489.5,-199 495.5,-199"/>
<text text-anchor="middle" x="566" y="-306.4" font-family="Times Roman,serif" font-size="14.00">Followship</text>
<polyline fill="none" stroke="black" points="483.5,-297 648.5,-297 "/>
<text text-anchor="start" x="491.5" y="-280.4" font-family="Times Roman,serif" font-size="14.00">id :integer</text>
<text text-anchor="start" x="491.5" y="-262.4" font-family="Times Roman,serif" font-size="14.00">user_id :integer</text>
<text text-anchor="start" x="491.5" y="-244.4" font-family="Times Roman,serif" font-size="14.00">topic_id :integer</text>
<text text-anchor="start" x="491.5" y="-226.4" font-family="Times Roman,serif" font-size="14.00">created_at :datetime</text>
<text text-anchor="start" x="491.5" y="-208.4" font-family="Times Roman,serif" font-size="14.00">updated_at :datetime</text>
</g>
<!-- User&#45;&gt;Followship -->
<g id="edge4" class="edge"><title>User&#45;&gt;Followship</title>
<path fill="none" stroke="#cfd339" d="M363.14,-383.45C406.951,-360.641 451.07,-337.477 474.663,-323.956"/>
<ellipse fill="none" stroke="#cfd339" cx="359.309" cy="-385.444" rx="4.00002" ry="4.00002"/>
<polygon fill="#cfd339" stroke="#cfd339" points="474.839,-323.852 485.74,-322.658 479.148,-321.316 483.457,-318.78 483.457,-318.78 483.457,-318.78 479.148,-321.316 481.175,-314.902 474.839,-323.852 474.839,-323.852"/>
</g>
<!-- Post -->
<g id="node12" class="node"><title>Post</title>
<ellipse fill="none" stroke="black" cx="252" cy="-261" rx="32.0265" ry="18.3848"/>
<text text-anchor="middle" x="252" y="-257.4" font-family="Times Roman,serif" font-size="14.00">Post</text>
</g>
<!-- User&#45;&gt;Post -->
<g id="edge8" class="edge"><title>User&#45;&gt;Post</title>
<path fill="none" stroke="#06205c" d="M252,-352.577C252,-329.923 252,-307.136 252,-289.96"/>
<ellipse fill="none" stroke="#06205c" cx="252" cy="-356.739" rx="4" ry="4"/>
<polygon fill="#06205c" stroke="#06205c" points="252,-289.54 256.5,-279.54 252,-284.54 252,-279.54 252,-279.54 252,-279.54 252,-284.54 247.5,-279.54 252,-289.54 252,-289.54"/>
</g>
<!-- Feed&#45;&gt;Topic -->
<g id="edge16" class="edge"><title>Feed&#45;&gt;Topic</title>
<path fill="none" stroke="#e755fe" d="M384,-190.77C384,-184.428 384,-177.949 384,-171.466"/>
<ellipse fill="none" stroke="#e755fe" cx="384" cy="-194.802" rx="4" ry="4"/>
<polygon fill="#e755fe" stroke="#e755fe" points="384,-171.295 388.5,-161.295 384,-166.295 384,-161.295 384,-161.295 384,-161.295 384,-166.295 379.5,-161.295 384,-171.295 384,-171.295"/>
</g>
<!-- Comment -->
<g id="node6" class="node"><title>Comment</title>
<polyline fill="none" stroke="black" points="461.5,-370 602.5,-370 "/>
<path fill="none" stroke="black" d="M602.5,-370C608.5,-370 614.5,-376 614.5,-382"/>
<polyline fill="none" stroke="black" points="614.5,-382 614.5,-500 "/>
<path fill="none" stroke="black" d="M614.5,-500C614.5,-506 608.5,-512 602.5,-512"/>
<polyline fill="none" stroke="black" points="602.5,-512 461.5,-512 "/>
<path fill="none" stroke="black" d="M461.5,-512C455.5,-512 449.5,-506 449.5,-500"/>
<polyline fill="none" stroke="black" points="449.5,-500 449.5,-382 "/>
<path fill="none" stroke="black" d="M449.5,-382C449.5,-376 455.5,-370 461.5,-370"/>
<text text-anchor="middle" x="532" y="-495.4" font-family="Times Roman,serif" font-size="14.00">Comment</text>
<polyline fill="none" stroke="black" points="449.5,-486 614.5,-486 "/>
<text text-anchor="start" x="457.5" y="-469.4" font-family="Times Roman,serif" font-size="14.00">id :integer</text>
<text text-anchor="start" x="457.5" y="-451.4" font-family="Times Roman,serif" font-size="14.00">post_id :integer</text>
<text text-anchor="start" x="457.5" y="-433.4" font-family="Times Roman,serif" font-size="14.00">user_id :integer</text>
<text text-anchor="start" x="457.5" y="-415.4" font-family="Times Roman,serif" font-size="14.00">content :text</text>
<text text-anchor="start" x="457.5" y="-397.4" font-family="Times Roman,serif" font-size="14.00">created_at :datetime</text>
<text text-anchor="start" x="457.5" y="-379.4" font-family="Times Roman,serif" font-size="14.00">updated_at :datetime</text>
</g>
<!-- ActiveRecord::Base -->
<g id="node14" class="node"><title>ActiveRecord::Base</title>
<ellipse fill="none" stroke="black" cx="403" cy="-605" rx="103.945" ry="18.3848"/>
<text text-anchor="middle" x="403" y="-601.4" font-family="Times Roman,serif" font-size="14.00">ActiveRecord::Base</text>
</g>
<!-- ActiveRecord::Base&#45;&gt;User -->
<g id="edge12" class="edge"><title>ActiveRecord::Base&#45;&gt;User</title>
<path fill="none" stroke="black" d="M385.972,-586.506C371.086,-570.338 348.386,-545.684 325.878,-521.239"/>
</g>
<!-- ActiveRecord::Base&#45;&gt;Favor -->
<g id="edge14" class="edge"><title>ActiveRecord::Base&#45;&gt;Favor</title>
<path fill="none" stroke="black" d="M365.639,-587.704C343.889,-578.08 315.759,-566.389 290,-558 224.81,-536.769 188.068,-570.886 140,-522 88.4987,-469.622 78.5066,-382.265 78.3847,-323.19"/>
</g>
<!-- ActiveRecord::Base&#45;&gt;Feed -->
<g id="edge18" class="edge"><title>ActiveRecord::Base&#45;&gt;Feed</title>
<path fill="none" stroke="black" d="M401.951,-586.015C399.229,-536.717 391.84,-402.939 387.436,-323.218"/>
</g>
<!-- ActiveRecord::Base&#45;&gt;Topic -->
<g id="edge20" class="edge"><title>ActiveRecord::Base&#45;&gt;Topic</title>
<path fill="none" stroke="black" d="M486.96,-593.972C533.877,-583.371 589.478,-562.613 623,-522 715.17,-410.335 736.706,-318.877 657,-198 615.059,-134.396 530.594,-105.237 466.661,-91.9498"/>
</g>
<!-- ActiveRecord::Base&#45;&gt;Comment -->
<g id="edge22" class="edge"><title>ActiveRecord::Base&#45;&gt;Comment</title>
<path fill="none" stroke="black" d="M417.547,-586.506C431.846,-568.328 454.583,-539.421 476.038,-512.146"/>
</g>
<!-- ActiveRecord::Base&#45;&gt;Followship -->
<g id="edge24" class="edge"><title>ActiveRecord::Base&#45;&gt;Followship</title>
<path fill="none" stroke="black" d="M404.131,-586.47C407.465,-536.244 418.47,-398.682 441,-360 447.165,-349.415 464.007,-334.317 483.406,-319.091"/>
</g>
</g>
</svg>
