<?xml version="1.0" encoding="UTF-8" standalone="no"?>
<!DOCTYPE svg PUBLIC "-//W3C//DTD SVG 1.1//EN"
 "http://www.w3.org/Graphics/SVG/1.1/DTD/svg11.dtd">
<!-- Generated by graphviz version 2.26.3 (20100126.1600)
 -->
<!-- Title: models_diagram Pages: 1 -->
<svg width="603pt" height="398pt"
 viewBox="0.00 0.00 603.00 398.00" xmlns="http://www.w3.org/2000/svg" xmlns:xlink="http://www.w3.org/1999/xlink">
<g id="graph1" class="graph" transform="scale(1 1) rotate(0) translate(4 394)">
<title>models_diagram</title>
<polygon fill="white" stroke="white" points="-4,5 -4,-394 600,-394 600,5 -4,5"/>
<!-- _diagram_info -->
<g id="node1" class="node"><title>_diagram_info</title>
<text text-anchor="start" x="8" y="-373.8" font-family="Times Roman,serif" font-size="13.00">Models diagram</text>
<text text-anchor="start" x="8" y="-356.8" font-family="Times Roman,serif" font-size="13.00">Date: Dec 04 2013 &#45; 19:42</text>
<text text-anchor="start" x="8" y="-339.8" font-family="Times Roman,serif" font-size="13.00">Migration version: 20131117211413</text>
<text text-anchor="start" x="8" y="-322.8" font-family="Times Roman,serif" font-size="13.00">Generated by RailRoady 1.1.1</text>
<text text-anchor="start" x="8" y="-305.8" font-family="Times Roman,serif" font-size="13.00">http://railroady.prestonlee.com</text>
</g>
<!-- Followship -->
<g id="node2" class="node"><title>Followship</title>
<ellipse fill="none" stroke="black" cx="171" cy="-19" rx="62.9325" ry="18.3848"/>
<text text-anchor="middle" x="171" y="-15.4" font-family="Times Roman,serif" font-size="14.00">Followship</text>
</g>
<!-- Category -->
<g id="node3" class="node"><title>Category</title>
<ellipse fill="none" stroke="black" cx="309" cy="-19" rx="56.0679" ry="18.3848"/>
<text text-anchor="middle" x="309" y="-15.4" font-family="Times Roman,serif" font-size="14.00">Category</text>
</g>
<!-- Comment -->
<g id="node4" class="node"><title>Comment</title>
<ellipse fill="none" stroke="black" cx="443" cy="-19" rx="58.1882" ry="18.3848"/>
<text text-anchor="middle" x="443" y="-15.4" font-family="Times Roman,serif" font-size="14.00">Comment</text>
</g>
<!-- Post -->
<g id="node5" class="node"><title>Post</title>
<ellipse fill="none" stroke="black" cx="445" cy="-93" rx="32.0265" ry="18.3848"/>
<text text-anchor="middle" x="445" y="-89.4" font-family="Times Roman,serif" font-size="14.00">Post</text>
</g>
<!-- Post&#45;&gt;Category -->
<g id="edge14" class="edge"><title>Post&#45;&gt;Category</title>
<path fill="none" stroke="#b791d3" d="M414.526,-76.4188C394.574,-65.5623 368.346,-51.2912 347.03,-39.6927"/>
<ellipse fill="none" stroke="#b791d3" cx="418.107" cy="-78.3671" rx="4.00002" ry="4.00002"/>
<polygon fill="#b791d3" stroke="#b791d3" points="347.012,-39.6828 340.378,-30.9505 342.62,-37.293 338.228,-34.9033 338.228,-34.9033 338.228,-34.9033 342.62,-37.293 336.077,-38.856 347.012,-39.6828 347.012,-39.6828"/>
</g>
<!-- Post&#45;&gt;Comment -->
<g id="edge12" class="edge"><title>Post&#45;&gt;Comment</title>
<path fill="none" stroke="#e93bf9" d="M444.279,-66.309C444.118,-60.3769 443.948,-54.0606 443.785,-48.0396"/>
<ellipse fill="none" stroke="#e93bf9" cx="444.387" cy="-70.3281" rx="4" ry="4"/>
<polygon fill="#e93bf9" stroke="#e93bf9" points="443.775,-47.6637 448.003,-37.5457 443.64,-42.6655 443.505,-37.6674 443.505,-37.6674 443.505,-37.6674 443.64,-42.6655 439.006,-37.789 443.775,-47.6637 443.775,-47.6637"/>
</g>
<!-- Topic -->
<g id="node6" class="node"><title>Topic</title>
<ellipse fill="none" stroke="black" cx="340" cy="-241" rx="34.8574" ry="18.3848"/>
<text text-anchor="middle" x="340" y="-237.4" font-family="Times Roman,serif" font-size="14.00">Topic</text>
</g>
<!-- Post&#45;&gt;Topic -->
<g id="edge16" class="edge"><title>Post&#45;&gt;Topic</title>
<path fill="none" stroke="#08c799" d="M440.188,-121.507C435.823,-141.062 427.875,-166.837 414,-186 403.349,-200.71 387.605,-213.184 373.374,-222.514"/>
<polygon fill="#08c799" stroke="#08c799" points="440.203,-121.437 446.617,-112.544 441.206,-116.539 442.209,-111.641 442.209,-111.641 442.209,-111.641 441.206,-116.539 437.8,-110.738 440.203,-121.437 440.203,-121.437"/>
<polygon fill="#08c799" stroke="#08c799" points="373.24,-222.598 362.377,-224.097 369.003,-225.254 364.767,-227.91 364.767,-227.91 364.767,-227.91 369.003,-225.254 367.157,-231.723 373.24,-222.598 373.24,-222.598"/>
</g>
<!-- User -->
<g id="node8" class="node"><title>User</title>
<ellipse fill="none" stroke="black" cx="371" cy="-167" rx="33.9411" ry="18.3848"/>
<text text-anchor="middle" x="371" y="-163.4" font-family="Times Roman,serif" font-size="14.00">User</text>
</g>
<!-- Post&#45;&gt;User -->
<g id="edge8" class="edge"><title>Post&#45;&gt;User</title>
<path fill="none" stroke="#7896ef" d="M426.673,-117.736C418.331,-126.587 408.362,-136.495 399.133,-145.091"/>
<polygon fill="#7896ef" stroke="#7896ef" points="426.755,-117.647 436.837,-113.335 430.14,-113.968 433.526,-110.288 433.526,-110.288 433.526,-110.288 430.14,-113.968 430.214,-107.241 426.755,-117.647 426.755,-117.647"/>
<polygon fill="#7896ef" stroke="#7896ef" points="398.915,-145.289 388.493,-148.699 395.219,-148.657 391.524,-152.025 391.524,-152.025 391.524,-152.025 395.219,-148.657 394.555,-155.351 398.915,-145.289 398.915,-145.289"/>
</g>
<!-- Favor -->
<g id="node9" class="node"><title>Favor</title>
<ellipse fill="none" stroke="black" cx="557" cy="-19" rx="38.1838" ry="18.3848"/>
<text text-anchor="middle" x="557" y="-15.4" font-family="Times Roman,serif" font-size="14.00">Favor</text>
</g>
<!-- Post&#45;&gt;Favor -->
<g id="edge10" class="edge"><title>Post&#45;&gt;Favor</title>
<path fill="none" stroke="#80ea90" d="M473.008,-74.4945C488.95,-63.9619 508.965,-50.7376 525.458,-39.8405"/>
<ellipse fill="none" stroke="#80ea90" cx="469.667" cy="-76.7019" rx="4.00002" ry="4.00002"/>
<polygon fill="#80ea90" stroke="#80ea90" points="525.866,-39.5705 536.69,-37.8124 530.038,-36.8142 534.21,-34.0579 534.21,-34.0579 534.21,-34.0579 530.038,-36.8142 531.729,-30.3034 525.866,-39.5705 525.866,-39.5705"/>
</g>
<!-- Topic&#45;&gt;Followship -->
<g id="edge20" class="edge"><title>Topic&#45;&gt;Followship</title>
<path fill="none" stroke="#6699cf" d="M321.983,-216.85C297.643,-184.288 252.83,-124.556 214,-74 206.765,-64.5798 198.767,-54.312 191.652,-45.2259"/>
<ellipse fill="none" stroke="#6699cf" cx="324.462" cy="-220.169" rx="4.00002" ry="4.00002"/>
<polygon fill="#6699cf" stroke="#6699cf" points="191.585,-45.14 188.953,-34.4946 188.498,-41.2061 185.412,-37.2721 185.412,-37.2721 185.412,-37.2721 188.498,-41.2061 181.872,-40.0496 191.585,-45.14 191.585,-45.14"/>
</g>
<!-- Topic&#45;&gt;Category -->
<g id="edge24" class="edge"><title>Topic&#45;&gt;Category</title>
<path fill="none" stroke="#9b714b" d="M333.669,-214.594C331.656,-205.563 329.552,-195.375 328,-186 320.002,-137.683 314.324,-80.9395 311.362,-47.5864"/>
<ellipse fill="none" stroke="#9b714b" cx="334.584" cy="-218.606" rx="4.00001" ry="4.00001"/>
<polygon fill="#9b714b" stroke="#9b714b" points="311.362,-47.5822 314.98,-37.2303 310.929,-42.601 310.497,-37.6197 310.497,-37.6197 310.497,-37.6197 310.929,-42.601 306.014,-38.0092 311.362,-47.5822 311.362,-47.5822"/>
</g>
<!-- Topic&#45;&gt;User -->
<g id="edge22" class="edge"><title>Topic&#45;&gt;User</title>
<path fill="none" stroke="#0a09a9" d="M345.241,-212.788C347.617,-206.52 350.414,-199.895 353.308,-193.689"/>
<polygon fill="#0a09a9" stroke="#0a09a9" points="345.202,-212.898 337.627,-220.827 343.536,-217.612 341.87,-222.327 341.87,-222.327 341.87,-222.327 343.536,-217.612 346.113,-223.826 345.202,-212.898 345.202,-212.898"/>
<polygon fill="#0a09a9" stroke="#0a09a9" points="353.467,-193.367 361.924,-186.386 355.677,-188.882 357.887,-184.396 357.887,-184.396 357.887,-184.396 355.677,-188.882 353.85,-182.407 353.467,-193.367 353.467,-193.367"/>
</g>
<!-- Feed -->
<g id="node7" class="node"><title>Feed</title>
<ellipse fill="none" stroke="black" cx="171" cy="-93" rx="34.1461" ry="18.3848"/>
<text text-anchor="middle" x="171" y="-89.4" font-family="Times Roman,serif" font-size="14.00">Feed</text>
</g>
<!-- Feed&#45;&gt;Followship -->
<g id="edge28" class="edge"><title>Feed&#45;&gt;Followship</title>
<path fill="none" stroke="#4098fe" d="M171,-66.309C171,-60.3769 171,-54.0606 171,-48.0396"/>
<ellipse fill="none" stroke="#4098fe" cx="171" cy="-70.3267" rx="4" ry="4"/>
<polygon fill="#4098fe" stroke="#4098fe" points="171,-47.6674 175.5,-37.6673 171,-42.6674 171,-37.6674 171,-37.6674 171,-37.6674 171,-42.6674 166.5,-37.6674 171,-47.6674 171,-47.6674"/>
</g>
<!-- User&#45;&gt;Followship -->
<g id="edge34" class="edge"><title>User&#45;&gt;Followship</title>
<path fill="none" stroke="#f3d0e8" d="M344.196,-146.691C319.148,-127.761 280.665,-98.8029 247,-74 232.802,-63.5392 217.017,-52.0878 203.529,-42.3553"/>
<ellipse fill="none" stroke="#f3d0e8" cx="347.699" cy="-149.34" rx="4.00002" ry="4.00002"/>
<polygon fill="#f3d0e8" stroke="#f3d0e8" points="203.15,-42.0819 197.667,-32.5847 199.093,-39.1588 195.037,-36.2356 195.037,-36.2356 195.037,-36.2356 199.093,-39.1588 192.406,-39.8865 203.15,-42.0819 203.15,-42.0819"/>
</g>
<!-- User&#45;&gt;Comment -->
<g id="edge42" class="edge"><title>User&#45;&gt;Comment</title>
<path fill="none" stroke="#82583a" d="M378.165,-140.842C383.894,-121.751 392.81,-95.553 404,-74 409.15,-64.0804 415.884,-53.909 422.304,-45.0536"/>
<ellipse fill="none" stroke="#82583a" cx="377.031" cy="-144.716" rx="4.00001" ry="4.00001"/>
<polygon fill="#82583a" stroke="#82583a" points="422.32,-45.0323 431.907,-39.7093 425.31,-41.0251 428.301,-37.0179 428.301,-37.0179 428.301,-37.0179 425.31,-41.0251 424.694,-34.3265 422.32,-45.0323 422.32,-45.0323"/>
</g>
<!-- User&#45;&gt;Post -->
<g id="edge38" class="edge"><title>User&#45;&gt;Post</title>
<path fill="none" stroke="#515dc2" d="M388.131,-143.537C396.81,-134.259 407.45,-123.664 417.222,-114.579"/>
<ellipse fill="none" stroke="#515dc2" cx="385.401" cy="-146.515" rx="4.00002" ry="4.00002"/>
<polygon fill="#515dc2" stroke="#515dc2" points="417.42,-114.399 427.846,-111.001 421.119,-111.035 424.819,-107.671 424.819,-107.671 424.819,-107.671 421.119,-111.035 421.791,-104.342 417.42,-114.399 417.42,-114.399"/>
</g>
<!-- User&#45;&gt;Topic -->
<g id="edge32" class="edge"><title>User&#45;&gt;Topic</title>
<path fill="none" stroke="#68f378" d="M366.436,-193.406C363.912,-200.225 360.839,-207.569 357.652,-214.397"/>
<ellipse fill="none" stroke="#68f378" cx="367.803" cy="-189.482" rx="4.00001" ry="4.00001"/>
<polygon fill="#68f378" stroke="#68f378" points="357.605,-214.492 349.15,-221.475 355.396,-218.978 353.186,-223.463 353.186,-223.463 353.186,-223.463 355.396,-218.978 357.223,-225.451 357.605,-214.492 357.605,-214.492"/>
</g>
<!-- User&#45;&gt;Feed -->
<g id="edge40" class="edge"><title>User&#45;&gt;Feed</title>
<path fill="none" stroke="#c8d0b3" d="M334.827,-153.616C299.297,-140.47 245.299,-120.49 209.114,-107.102"/>
<ellipse fill="none" stroke="#c8d0b3" cx="339.018" cy="-155.166" rx="4.00001" ry="4.00001"/>
<polygon fill="#c8d0b3" stroke="#c8d0b3" points="208.789,-106.982 200.972,-99.2915 204.1,-105.247 199.41,-103.512 199.41,-103.512 199.41,-103.512 204.1,-105.247 197.849,-107.732 208.789,-106.982 208.789,-106.982"/>
</g>
<!-- User&#45;&gt;Favor -->
<g id="edge36" class="edge"><title>User&#45;&gt;Favor</title>
<path fill="none" stroke="#7fc273" d="M408.062,-154.455C431.942,-145.182 462.754,-130.892 486,-112 508.829,-93.4469 528.551,-66.1229 541.375,-45.8889"/>
<ellipse fill="none" stroke="#7fc273" cx="404.312" cy="-155.873" rx="4.00001" ry="4.00001"/>
<polygon fill="#7fc273" stroke="#7fc273" points="541.517,-45.6586 550.598,-39.5111 544.143,-41.4033 546.768,-37.1481 546.768,-37.1481 546.768,-37.1481 544.143,-41.4033 542.938,-34.7852 541.517,-45.6586 541.517,-45.6586"/>
</g>
<!-- ActiveRecord::Base -->
<g id="node10" class="node"><title>ActiveRecord::Base</title>
<ellipse fill="none" stroke="black" cx="372" cy="-343" rx="104.151" ry="18.3848"/>
<text text-anchor="middle" x="372" y="-339.4" font-family="Times Roman,serif" font-size="14.00">ActiveRecord::Base</text>
</g>
<!-- ActiveRecord::Base&#45;&gt;Followship -->
<g id="edge2" class="edge"><title>ActiveRecord::Base&#45;&gt;Followship</title>
<path fill="none" stroke="black" d="M330.785,-325.841C280.945,-304.81 202.398,-270.649 192,-260 130.926,-197.448 99.524,-156.656 128,-74 132.816,-60.0194 142.808,-46.8729 151.948,-36.9407"/>
</g>
<!-- ActiveRecord::Base&#45;&gt;Category -->
<g id="edge4" class="edge"><title>ActiveRecord::Base&#45;&gt;Category</title>
<path fill="none" stroke="black" d="M347.687,-324.923C329.6,-309.845 306.334,-286.588 296,-260 265.717,-182.085 290.528,-79.2479 302.955,-37.6499"/>
</g>
<!-- ActiveRecord::Base&#45;&gt;Comment -->
<g id="edge6" class="edge"><title>ActiveRecord::Base&#45;&gt;Comment</title>
<path fill="none" stroke="black" d="M387.649,-324.534C400.801,-308.332 419.414,-283.716 432,-260 464.823,-198.15 473.814,-180.951 486,-112 488.939,-95.3689 491.501,-89.9678 486,-74 481.184,-60.0194 471.192,-46.8729 462.052,-36.9407"/>
</g>
<!-- ActiveRecord::Base&#45;&gt;Post -->
<g id="edge18" class="edge"><title>ActiveRecord::Base&#45;&gt;Post</title>
<path fill="none" stroke="black" d="M381.736,-324.267C396.237,-295.423 423.174,-238.013 436,-186 442.214,-160.801 444.176,-130.773 444.774,-111.795"/>
</g>
<!-- ActiveRecord::Base&#45;&gt;Topic -->
<g id="edge26" class="edge"><title>ActiveRecord::Base&#45;&gt;Topic</title>
<path fill="none" stroke="black" d="M366.131,-324.292C360.357,-305.888 351.593,-277.953 345.832,-259.59"/>
</g>
<!-- ActiveRecord::Base&#45;&gt;Feed -->
<g id="edge30" class="edge"><title>ActiveRecord::Base&#45;&gt;Feed</title>
<path fill="none" stroke="black" d="M320.364,-326.791C286.924,-313.776 244.93,-292.275 219,-260 183.102,-215.317 174.05,-144.97 171.768,-111.667"/>
</g>
<!-- ActiveRecord::Base&#45;&gt;User -->
<g id="edge44" class="edge"><title>ActiveRecord::Base&#45;&gt;User</title>
<path fill="none" stroke="black" d="M376.386,-324.116C381.342,-300.289 388.204,-258.065 384,-222 382.557,-209.623 379.346,-195.99 376.477,-185.394"/>
</g>
<!-- ActiveRecord::Base&#45;&gt;Favor -->
<g id="edge46" class="edge"><title>ActiveRecord::Base&#45;&gt;Favor</title>
<path fill="none" stroke="black" d="M394.436,-324.784C412.619,-309.112 437.936,-285.116 455,-260 506.193,-184.651 539.764,-79.4982 551.915,-37.4459"/>
</g>
</g>
</svg>
