<?xml version="1.0" encoding="UTF-8" standalone="no"?>
<!DOCTYPE svg PUBLIC "-//W3C//DTD SVG 1.1//EN"
 "http://www.w3.org/Graphics/SVG/1.1/DTD/svg11.dtd">
<!-- Generated by graphviz version 2.26.3 (20100126.1600)
 -->
<!-- Title: models_diagram Pages: 1 -->
<svg width="748pt" height="802pt"
 viewBox="0.00 0.00 747.96 802.00" xmlns="http://www.w3.org/2000/svg" xmlns:xlink="http://www.w3.org/1999/xlink">
<g id="graph1" class="graph" transform="scale(1 1) rotate(0) translate(4 798)">
<title>models_diagram</title>
<polygon fill="white" stroke="white" points="-4,5 -4,-798 744.955,-798 744.955,5 -4,5"/>
<!-- User -->
<g id="node1" class="node"><title>User</title>
<polyline fill="none" stroke="black" points="348.303,-559 531.303,-559 "/>
<path fill="none" stroke="black" d="M531.303,-559C537.303,-559 543.303,-565 543.303,-571"/>
<polyline fill="none" stroke="black" points="543.303,-571 543.303,-707 "/>
<path fill="none" stroke="black" d="M543.303,-707C543.303,-713 537.303,-719 531.303,-719"/>
<polyline fill="none" stroke="black" points="531.303,-719 348.303,-719 "/>
<path fill="none" stroke="black" d="M348.303,-719C342.303,-719 336.303,-713 336.303,-707"/>
<polyline fill="none" stroke="black" points="336.303,-707 336.303,-571 "/>
<path fill="none" stroke="black" d="M336.303,-571C336.303,-565 342.303,-559 348.303,-559"/>
<text text-anchor="middle" x="439.803" y="-702.4" font-family="Times Roman,serif" font-size="14.00">User</text>
<polyline fill="none" stroke="black" points="336.303,-693 543.303,-693 "/>
<text text-anchor="start" x="344.303" y="-676.4" font-family="Times Roman,serif" font-size="14.00">id :integer</text>
<text text-anchor="start" x="344.303" y="-658.4" font-family="Times Roman,serif" font-size="14.00">username :string</text>
<text text-anchor="start" x="344.303" y="-640.4" font-family="Times Roman,serif" font-size="14.00">email :string</text>
<text text-anchor="start" x="344.303" y="-622.4" font-family="Times Roman,serif" font-size="14.00">encrypted_password :string</text>
<text text-anchor="start" x="344.303" y="-604.4" font-family="Times Roman,serif" font-size="14.00">password_salt :string</text>
<text text-anchor="start" x="344.303" y="-586.4" font-family="Times Roman,serif" font-size="14.00">created_at :datetime</text>
<text text-anchor="start" x="344.303" y="-568.4" font-family="Times Roman,serif" font-size="14.00">updated_at :datetime</text>
</g>
<!-- Favor -->
<g id="node2" class="node"><title>Favor</title>
<polyline fill="none" stroke="black" points="44.3033,-379 185.303,-379 "/>
<path fill="none" stroke="black" d="M185.303,-379C191.303,-379 197.303,-385 197.303,-391"/>
<polyline fill="none" stroke="black" points="197.303,-391 197.303,-491 "/>
<path fill="none" stroke="black" d="M197.303,-491C197.303,-497 191.303,-503 185.303,-503"/>
<polyline fill="none" stroke="black" points="185.303,-503 44.3033,-503 "/>
<path fill="none" stroke="black" d="M44.3033,-503C38.3033,-503 32.3033,-497 32.3033,-491"/>
<polyline fill="none" stroke="black" points="32.3033,-491 32.3033,-391 "/>
<path fill="none" stroke="black" d="M32.3033,-391C32.3033,-385 38.3033,-379 44.3033,-379"/>
<text text-anchor="middle" x="114.803" y="-486.4" font-family="Times Roman,serif" font-size="14.00">Favor</text>
<polyline fill="none" stroke="black" points="32.3033,-477 197.303,-477 "/>
<text text-anchor="start" x="40.3033" y="-460.4" font-family="Times Roman,serif" font-size="14.00">id :integer</text>
<text text-anchor="start" x="40.3033" y="-442.4" font-family="Times Roman,serif" font-size="14.00">user_id :integer</text>
<text text-anchor="start" x="40.3033" y="-424.4" font-family="Times Roman,serif" font-size="14.00">post_id :integer</text>
<text text-anchor="start" x="40.3033" y="-406.4" font-family="Times Roman,serif" font-size="14.00">created_at :datetime</text>
<text text-anchor="start" x="40.3033" y="-388.4" font-family="Times Roman,serif" font-size="14.00">updated_at :datetime</text>
</g>
<!-- User&#45;&gt;Favor -->
<g id="edge6" class="edge"><title>User&#45;&gt;Favor</title>
<path fill="none" stroke="#359baf" d="M328.617,-590.812C288.6,-571.575 243.946,-547.843 205.803,-522 200.097,-518.134 194.37,-513.94 188.718,-509.564"/>
<ellipse fill="none" stroke="#359baf" cx="332.423" cy="-592.628" rx="4.00002" ry="4.00002"/>
<polygon fill="#359baf" stroke="#359baf" points="188.334,-509.259 183.303,-499.515 184.419,-506.149 180.504,-503.039 180.504,-503.039 180.504,-503.039 184.419,-506.149 177.705,-506.563 188.334,-509.259 188.334,-509.259"/>
</g>
<!-- Feed -->
<g id="node3" class="node"><title>Feed</title>
<polyline fill="none" stroke="black" points="226.303,-379 367.303,-379 "/>
<path fill="none" stroke="black" d="M367.303,-379C373.303,-379 379.303,-385 379.303,-391"/>
<polyline fill="none" stroke="black" points="379.303,-391 379.303,-491 "/>
<path fill="none" stroke="black" d="M379.303,-491C379.303,-497 373.303,-503 367.303,-503"/>
<polyline fill="none" stroke="black" points="367.303,-503 226.303,-503 "/>
<path fill="none" stroke="black" d="M226.303,-503C220.303,-503 214.303,-497 214.303,-491"/>
<polyline fill="none" stroke="black" points="214.303,-491 214.303,-391 "/>
<path fill="none" stroke="black" d="M214.303,-391C214.303,-385 220.303,-379 226.303,-379"/>
<text text-anchor="middle" x="296.803" y="-486.4" font-family="Times Roman,serif" font-size="14.00">Feed</text>
<polyline fill="none" stroke="black" points="214.303,-477 379.303,-477 "/>
<text text-anchor="start" x="222.303" y="-460.4" font-family="Times Roman,serif" font-size="14.00">id :integer</text>
<text text-anchor="start" x="222.303" y="-442.4" font-family="Times Roman,serif" font-size="14.00">user_id :integer</text>
<text text-anchor="start" x="222.303" y="-424.4" font-family="Times Roman,serif" font-size="14.00">name :string</text>
<text text-anchor="start" x="222.303" y="-406.4" font-family="Times Roman,serif" font-size="14.00">created_at :datetime</text>
<text text-anchor="start" x="222.303" y="-388.4" font-family="Times Roman,serif" font-size="14.00">updated_at :datetime</text>
</g>
<!-- User&#45;&gt;Feed -->
<g id="edge10" class="edge"><title>User&#45;&gt;Feed</title>
<path fill="none" stroke="#246983" d="M377.113,-552.198C367.228,-538.512 357.115,-524.509 347.546,-511.259"/>
<ellipse fill="none" stroke="#246983" cx="379.504" cy="-555.509" rx="4.00002" ry="4.00002"/>
<polygon fill="#246983" stroke="#246983" points="347.519,-511.222 345.312,-500.481 344.592,-507.169 341.664,-503.115 341.664,-503.115 341.664,-503.115 344.592,-507.169 338.016,-505.75 347.519,-511.222 347.519,-511.222"/>
</g>
<!-- Topic -->
<g id="node4" class="node"><title>Topic</title>
<polyline fill="none" stroke="black" points="245.303,-163 386.303,-163 "/>
<path fill="none" stroke="black" d="M386.303,-163C392.303,-163 398.303,-169 398.303,-175"/>
<polyline fill="none" stroke="black" points="398.303,-175 398.303,-311 "/>
<path fill="none" stroke="black" d="M398.303,-311C398.303,-317 392.303,-323 386.303,-323"/>
<polyline fill="none" stroke="black" points="386.303,-323 245.303,-323 "/>
<path fill="none" stroke="black" d="M245.303,-323C239.303,-323 233.303,-317 233.303,-311"/>
<polyline fill="none" stroke="black" points="233.303,-311 233.303,-175 "/>
<path fill="none" stroke="black" d="M233.303,-175C233.303,-169 239.303,-163 245.303,-163"/>
<text text-anchor="middle" x="315.803" y="-306.4" font-family="Times Roman,serif" font-size="14.00">Topic</text>
<polyline fill="none" stroke="black" points="233.303,-297 398.303,-297 "/>
<text text-anchor="start" x="241.303" y="-280.4" font-family="Times Roman,serif" font-size="14.00">id :integer</text>
<text text-anchor="start" x="241.303" y="-262.4" font-family="Times Roman,serif" font-size="14.00">user_id :integer</text>
<text text-anchor="start" x="241.303" y="-244.4" font-family="Times Roman,serif" font-size="14.00">feed_id :integer</text>
<text text-anchor="start" x="241.303" y="-226.4" font-family="Times Roman,serif" font-size="14.00">name :string</text>
<text text-anchor="start" x="241.303" y="-208.4" font-family="Times Roman,serif" font-size="14.00">topic_type :integer</text>
<text text-anchor="start" x="241.303" y="-190.4" font-family="Times Roman,serif" font-size="14.00">created_at :datetime</text>
<text text-anchor="start" x="241.303" y="-172.4" font-family="Times Roman,serif" font-size="14.00">updated_at :datetime</text>
</g>
<!-- User&#45;&gt;Topic -->
<g id="edge2" class="edge"><title>User&#45;&gt;Topic</title>
<path fill="none" stroke="#439f54" d="M431.455,-548.493C424.252,-492.744 411.163,-420.592 387.803,-360 384.232,-350.737 379.919,-341.393 375.199,-332.239"/>
<polygon fill="#439f54" stroke="#439f54" points="431.491,-548.782 428.268,-559.264 432.112,-553.744 432.733,-558.705 432.733,-558.705 432.733,-558.705 432.112,-553.744 437.198,-558.146 431.491,-548.782 431.491,-548.782"/>
<polygon fill="#439f54" stroke="#439f54" points="375.062,-331.982 374.327,-321.041 372.709,-327.57 370.356,-323.159 370.356,-323.159 370.356,-323.159 372.709,-327.57 366.386,-325.276 375.062,-331.982 375.062,-331.982"/>
</g>
<!-- Comment -->
<g id="node5" class="node"><title>Comment</title>
<polyline fill="none" stroke="black" points="522.303,-172 663.303,-172 "/>
<path fill="none" stroke="black" d="M663.303,-172C669.303,-172 675.303,-178 675.303,-184"/>
<polyline fill="none" stroke="black" points="675.303,-184 675.303,-302 "/>
<path fill="none" stroke="black" d="M675.303,-302C675.303,-308 669.303,-314 663.303,-314"/>
<polyline fill="none" stroke="black" points="663.303,-314 522.303,-314 "/>
<path fill="none" stroke="black" d="M522.303,-314C516.303,-314 510.303,-308 510.303,-302"/>
<polyline fill="none" stroke="black" points="510.303,-302 510.303,-184 "/>
<path fill="none" stroke="black" d="M510.303,-184C510.303,-178 516.303,-172 522.303,-172"/>
<text text-anchor="middle" x="592.803" y="-297.4" font-family="Times Roman,serif" font-size="14.00">Comment</text>
<polyline fill="none" stroke="black" points="510.303,-288 675.303,-288 "/>
<text text-anchor="start" x="518.303" y="-271.4" font-family="Times Roman,serif" font-size="14.00">id :integer</text>
<text text-anchor="start" x="518.303" y="-253.4" font-family="Times Roman,serif" font-size="14.00">post_id :integer</text>
<text text-anchor="start" x="518.303" y="-235.4" font-family="Times Roman,serif" font-size="14.00">user_id :integer</text>
<text text-anchor="start" x="518.303" y="-217.4" font-family="Times Roman,serif" font-size="14.00">content :text</text>
<text text-anchor="start" x="518.303" y="-199.4" font-family="Times Roman,serif" font-size="14.00">created_at :datetime</text>
<text text-anchor="start" x="518.303" y="-181.4" font-family="Times Roman,serif" font-size="14.00">updated_at :datetime</text>
</g>
<!-- User&#45;&gt;Comment -->
<g id="edge12" class="edge"><title>User&#45;&gt;Comment</title>
<path fill="none" stroke="#7d8d66" d="M455.068,-550.644C467.715,-482.122 486.094,-393.381 501.803,-360 507.857,-347.136 515.537,-334.375 523.858,-322.271"/>
<ellipse fill="none" stroke="#7d8d66" cx="454.277" cy="-554.961" rx="4.00001" ry="4.00001"/>
<polygon fill="#7d8d66" stroke="#7d8d66" points="523.932,-322.166 533.383,-316.604 526.821,-318.085 529.709,-314.004 529.709,-314.004 529.709,-314.004 526.821,-318.085 526.036,-311.404 523.932,-322.166 523.932,-322.166"/>
</g>
<!-- Post -->
<g id="node6" class="node"><title>Post</title>
<polyline fill="none" stroke="black" points="522.303,-361 663.303,-361 "/>
<path fill="none" stroke="black" d="M663.303,-361C669.303,-361 675.303,-367 675.303,-373"/>
<polyline fill="none" stroke="black" points="675.303,-373 675.303,-509 "/>
<path fill="none" stroke="black" d="M675.303,-509C675.303,-515 669.303,-521 663.303,-521"/>
<polyline fill="none" stroke="black" points="663.303,-521 522.303,-521 "/>
<path fill="none" stroke="black" d="M522.303,-521C516.303,-521 510.303,-515 510.303,-509"/>
<polyline fill="none" stroke="black" points="510.303,-509 510.303,-373 "/>
<path fill="none" stroke="black" d="M510.303,-373C510.303,-367 516.303,-361 522.303,-361"/>
<text text-anchor="middle" x="592.803" y="-504.4" font-family="Times Roman,serif" font-size="14.00">Post</text>
<polyline fill="none" stroke="black" points="510.303,-495 675.303,-495 "/>
<text text-anchor="start" x="518.303" y="-478.4" font-family="Times Roman,serif" font-size="14.00">id :integer</text>
<text text-anchor="start" x="518.303" y="-460.4" font-family="Times Roman,serif" font-size="14.00">topic_id :integer</text>
<text text-anchor="start" x="518.303" y="-442.4" font-family="Times Roman,serif" font-size="14.00">user_id :integer</text>
<text text-anchor="start" x="518.303" y="-424.4" font-family="Times Roman,serif" font-size="14.00">title :text</text>
<text text-anchor="start" x="518.303" y="-406.4" font-family="Times Roman,serif" font-size="14.00">content :text</text>
<text text-anchor="start" x="518.303" y="-388.4" font-family="Times Roman,serif" font-size="14.00">created_at :datetime</text>
<text text-anchor="start" x="518.303" y="-370.4" font-family="Times Roman,serif" font-size="14.00">updated_at :datetime</text>
</g>
<!-- User&#45;&gt;Post -->
<g id="edge8" class="edge"><title>User&#45;&gt;Post</title>
<path fill="none" stroke="#5856be" d="M507.931,-550.835C513.44,-543.706 519.008,-536.5 524.518,-529.369"/>
<polygon fill="#5856be" stroke="#5856be" points="507.928,-550.838 498.253,-556 504.871,-554.795 501.814,-558.751 501.814,-558.751 501.814,-558.751 504.871,-554.795 505.374,-561.503 507.928,-550.838 507.928,-550.838"/>
<polygon fill="#5856be" stroke="#5856be" points="524.839,-528.954 534.514,-523.793 527.896,-524.998 530.953,-521.041 530.953,-521.041 530.953,-521.041 527.896,-524.998 527.392,-518.29 524.839,-528.954 524.839,-528.954"/>
</g>
<!-- Followship -->
<g id="node7" class="node"><title>Followship</title>
<polyline fill="none" stroke="black" points="374.303,-1 515.303,-1 "/>
<path fill="none" stroke="black" d="M515.303,-1C521.303,-1 527.303,-7 527.303,-13"/>
<polyline fill="none" stroke="black" points="527.303,-13 527.303,-113 "/>
<path fill="none" stroke="black" d="M527.303,-113C527.303,-119 521.303,-125 515.303,-125"/>
<polyline fill="none" stroke="black" points="515.303,-125 374.303,-125 "/>
<path fill="none" stroke="black" d="M374.303,-125C368.303,-125 362.303,-119 362.303,-113"/>
<polyline fill="none" stroke="black" points="362.303,-113 362.303,-13 "/>
<path fill="none" stroke="black" d="M362.303,-13C362.303,-7 368.303,-1 374.303,-1"/>
<text text-anchor="middle" x="444.803" y="-108.4" font-family="Times Roman,serif" font-size="14.00">Followship</text>
<polyline fill="none" stroke="black" points="362.303,-99 527.303,-99 "/>
<text text-anchor="start" x="370.303" y="-82.4" font-family="Times Roman,serif" font-size="14.00">id :integer</text>
<text text-anchor="start" x="370.303" y="-64.4" font-family="Times Roman,serif" font-size="14.00">user_id :integer</text>
<text text-anchor="start" x="370.303" y="-46.4" font-family="Times Roman,serif" font-size="14.00">topic_id :integer</text>
<text text-anchor="start" x="370.303" y="-28.4" font-family="Times Roman,serif" font-size="14.00">created_at :datetime</text>
<text text-anchor="start" x="370.303" y="-10.4" font-family="Times Roman,serif" font-size="14.00">updated_at :datetime</text>
</g>
<!-- User&#45;&gt;Followship -->
<g id="edge4" class="edge"><title>User&#45;&gt;Followship</title>
<path fill="none" stroke="#7484c4" d="M440.571,-550.592C441.559,-436.723 443.259,-240.948 444.175,-135.432"/>
<ellipse fill="none" stroke="#7484c4" cx="440.533" cy="-554.91" rx="4" ry="4"/>
<polygon fill="#7484c4" stroke="#7484c4" points="444.176,-135.198 448.763,-125.237 444.22,-130.198 444.263,-125.198 444.263,-125.198 444.263,-125.198 444.22,-130.198 439.764,-125.159 444.176,-135.198 444.176,-135.198"/>
</g>
<!-- Feed&#45;&gt;Topic -->
<g id="edge18" class="edge"><title>Feed&#45;&gt;Topic</title>
<path fill="none" stroke="#1724b0" d="M303.53,-370.904C304.702,-358.691 305.935,-345.834 307.15,-333.172"/>
<ellipse fill="none" stroke="#1724b0" cx="303.145" cy="-374.913" rx="4" ry="4"/>
<polygon fill="#1724b0" stroke="#1724b0" points="307.164,-333.029 312.599,-323.505 307.642,-328.052 308.119,-323.075 308.119,-323.075 308.119,-323.075 307.642,-328.052 303.64,-322.645 307.164,-333.029 307.164,-333.029"/>
</g>
<!-- Topic&#45;&gt;Followship -->
<g id="edge22" class="edge"><title>Topic&#45;&gt;Followship</title>
<path fill="none" stroke="#852a08" d="M378.013,-156.195C383.438,-148.627 388.883,-141.028 394.197,-133.614"/>
<ellipse fill="none" stroke="#852a08" cx="375.654" cy="-159.488" rx="4.00002" ry="4.00002"/>
<polygon fill="#852a08" stroke="#852a08" points="394.539,-133.135 404.022,-127.629 397.452,-129.071 400.365,-125.007 400.365,-125.007 400.365,-125.007 397.452,-129.071 396.707,-122.386 394.539,-133.135 394.539,-133.135"/>
</g>
<!-- Post&#45;&gt;Comment -->
<g id="edge28" class="edge"><title>Post&#45;&gt;Comment</title>
<path fill="none" stroke="#512c14" d="M592.803,-352.744C592.803,-343.253 592.803,-333.628 592.803,-324.224"/>
<ellipse fill="none" stroke="#512c14" cx="592.803" cy="-356.751" rx="4" ry="4"/>
<polygon fill="#512c14" stroke="#512c14" points="592.803,-324.124 597.303,-314.124 592.803,-319.124 592.803,-314.124 592.803,-314.124 592.803,-314.124 592.803,-319.124 588.303,-314.124 592.803,-324.124 592.803,-324.124"/>
</g>
<!-- ActiveRecord::Base -->
<g id="node14" class="node"><title>ActiveRecord::Base</title>
<ellipse fill="none" stroke="black" cx="439.803" cy="-775" rx="103.945" ry="18.3848"/>
<text text-anchor="middle" x="439.803" y="-771.4" font-family="Times Roman,serif" font-size="14.00">ActiveRecord::Base</text>
</g>
<!-- ActiveRecord::Base&#45;&gt;User -->
<g id="edge14" class="edge"><title>ActiveRecord::Base&#45;&gt;User</title>
<path fill="none" stroke="black" d="M439.803,-756.375C439.803,-746.263 439.803,-732.991 439.803,-719.019"/>
</g>
<!-- ActiveRecord::Base&#45;&gt;Favor -->
<g id="edge16" class="edge"><title>ActiveRecord::Base&#45;&gt;Favor</title>
<path fill="none" stroke="black" d="M367.952,-761.537C338.574,-753.3 305.715,-740.292 280.803,-720 210.119,-662.424 162.486,-566.223 136.994,-503.193"/>
</g>
<!-- ActiveRecord::Base&#45;&gt;Feed -->
<g id="edge20" class="edge"><title>ActiveRecord::Base&#45;&gt;Feed</title>
<path fill="none" stroke="black" d="M382.228,-759.473C361.869,-751.088 340.818,-738.522 327.803,-720 283.184,-656.497 282.081,-564.035 287.621,-503.218"/>
</g>
<!-- ActiveRecord::Base&#45;&gt;Topic -->
<g id="edge24" class="edge"><title>ActiveRecord::Base&#45;&gt;Topic</title>
<path fill="none" stroke="black" d="M351.53,-765.12C281.359,-755.927 189.983,-740.554 158.803,-720 69.8788,-661.379 55.1982,-623.776 23.8033,-522 2.58023,-453.199 -16.5444,-419.633 23.8033,-360 70.2448,-291.361 164.231,-262.985 233.076,-251.257"/>
</g>
<!-- ActiveRecord::Base&#45;&gt;Comment -->
<g id="edge26" class="edge"><title>ActiveRecord::Base&#45;&gt;Comment</title>
<path fill="none" stroke="black" d="M509.542,-761.209C536.822,-752.969 566.782,-740.048 588.803,-720 660.978,-654.292 662.153,-617.173 683.803,-522 699.774,-451.794 707.17,-428.103 683.803,-360 678.291,-343.935 669.573,-328.377 659.668,-314.133"/>
</g>
<!-- ActiveRecord::Base&#45;&gt;Post -->
<g id="edge30" class="edge"><title>ActiveRecord::Base&#45;&gt;Post</title>
<path fill="none" stroke="black" d="M496.454,-759.469C516.948,-751.052 538.337,-738.465 551.803,-720 593.488,-662.842 601.178,-581.318 599.968,-521.147"/>
</g>
<!-- ActiveRecord::Base&#45;&gt;Followship -->
<g id="edge32" class="edge"><title>ActiveRecord::Base&#45;&gt;Followship</title>
<path fill="none" stroke="black" d="M516.645,-762.53C567.139,-752.866 627.187,-738.09 645.803,-720 711.657,-656.009 691.554,-612.863 704.803,-522 727.93,-363.405 779.758,-290.374 683.803,-162 646.898,-112.627 580.868,-87.7382 527.549,-75.2722"/>
</g>
</g>
</svg>
